<?xml version="1.0" encoding="utf-8"?>
<!-- Generator: Adobe Illustrator 16.0.2, SVG Export Plug-In . SVG Version: 6.00 Build 0)  -->
<!DOCTYPE svg PUBLIC "-//W3C//DTD SVG 1.1//EN" "http://www.w3.org/Graphics/SVG/1.1/DTD/svg11.dtd">
<svg version="1.1" id="Слой_1" xmlns="http://www.w3.org/2000/svg" xmlns:xlink="http://www.w3.org/1999/xlink" x="0px" y="0px"
	 width="389.98px" height="386.98px" viewBox="0 0 389.98 386.98" enable-background="new 0 0 389.98 386.98" xml:space="preserve">
<g>
	<defs>
		<rect id="SVGID_1_" width="389.98" height="386.98"/>
	</defs>
	<clipPath id="SVGID_2_">
		<use xlink:href="#SVGID_1_"  overflow="visible"/>
	</clipPath>
	<path clip-path="url(#SVGID_2_)" fill="#D71F27" d="M195.397,10.067c101.619,0,184,82.38,184,184s-82.381,184-184,184
		c-101.621,0-184-82.38-184-184S93.777,10.067,195.397,10.067"/>
	<polygon clip-path="url(#SVGID_2_)" fill="#FFFFFF" points="163.342,283.28 144.758,283.28 144.758,295.269 165.515,295.269 
		165.515,304.636 133.292,304.636 133.292,254.13 164.465,254.13 164.465,263.497 144.757,263.497 144.757,273.988 163.341,273.988 
		163.341,283.28 	"/>
	<path clip-path="url(#SVGID_2_)" fill="#FFFFFF" d="M184.698,254.13v29.074c0,8.692,3.297,13.113,9.142,13.113
		c5.995,0,9.292-4.196,9.292-13.113V254.13h11.392v28.325c0,15.586-7.868,23.006-21.058,23.006
		c-12.739,0-20.233-7.045-20.233-23.155V254.13H184.698z"/>
	<path clip-path="url(#SVGID_2_)" fill="#FFFFFF" d="M224.414,254.805c3.672-0.601,9.142-1.05,15.212-1.05
		c7.494,0,12.738,1.124,16.336,3.972c2.998,2.397,4.646,5.92,4.646,10.566c0,6.443-4.572,10.864-8.918,12.438v0.225
		c3.521,1.425,5.471,4.797,6.743,9.441c1.574,5.695,3.148,12.29,4.121,14.238h-11.688c-0.824-1.424-2.023-5.545-3.521-11.766
		c-1.35-6.295-3.521-8.019-8.168-8.094h-3.446v19.858h-11.315L224.414,254.805L224.414,254.805z M235.729,276.536h4.496
		c5.695,0,9.066-2.848,9.066-7.27c0-4.646-3.146-6.969-8.392-7.044c-2.772,0-4.347,0.226-5.171,0.375V276.536z"/>
	<path clip-path="url(#SVGID_2_)" fill="#FFFFFF" d="M303.102,222.981c-3.384,0.033-7.245,0.905-9.582-2.864
		c-0.139-0.862-0.277-1.727-0.417-2.59c0.018-0.554-0.005-1.102-0.26-1.611c-0.002-0.357-0.005-0.716-0.008-1.072
		c0.275-2.444,0.218-4.886-0.104-7.319c0.042-1.318,0.137-2.638,0.117-3.956c-0.269-20.397-0.323-40.794-0.051-61.193
		c0.08-6.058,0.041-12.116,0.058-18.175c1.528-4.475,2.136-4.911,6.88-4.936c0.884-0.004,1.779-0.099,2.646,0.019
		c2.296,0.309,3.064-0.551,3.014-2.911c-0.046-2.173-0.431-3.132-2.896-3.059c-5.957,0.177-11.982,0.586-17.868-0.089
		c-6.127-0.702-9.217,1.721-10.571,7.296c-2.606,5.554-5.216,11.107-7.822,16.661c-3.181,6.604-6.359,13.207-9.538,19.811
		c-2.862,5.99-5.726,11.979-8.587,17.968c-2.798,5.988-5.598,11.976-8.396,17.965c-2.056,3.628-3.891,7.359-5.354,11.27v-0.001
		c-0.64,0.387-0.701,1.729-1.917,1.163c0.184-1.161-1.328-1.422-1.32-2.489c-1.354-4.513-3.75-8.526-6.026-12.599
		c-1.86-5.357-4.516-10.342-7.183-15.32c-2.265-5.717-5.074-11.17-8.043-16.545c-2.59-6.657-5.688-13.072-9.258-19.259
		c-1.814-5.38-4.536-10.337-7.17-15.334c-1.328-3.433-2.742-6.822-4.856-9.867h0.001c-0.15-0.153-0.299-0.438-0.45-0.439
		c-7.509-0.057-15.018-0.092-22.527-0.119c-0.651-0.002-1.26,0.004-1.624,0.793c-1.187,2.568,0.232,5.047,2.966,5.085
		c0.995,0.013,1.991-0.01,2.981,0.055c3.095,0.205,4.86,1.579,4.876,4.978c0.011,2.404-0.258,4.857,0.433,7.23v-0.004
		c0,0.002,0,0.004,0.001,0.006c-0.313,0.536-0.283,1.084-0.057,1.638c-0.271,7.749-0.209,15.498,0.055,23.246
		c-0.238,2.337-0.364,4.674-0.015,7.013c-0.175,0.264-0.19,0.497-0.072,0.703c-0.027,0.245-0.051,0.49-0.075,0.736
		c-0.035,0.018-0.065,0.029-0.101,0.049c-0.013,0.435-0.015,0.87-0.021,1.304c-0.395,5.129-0.234,10.273-0.237,15.414
		c-0.05,2.776-0.1,5.553-0.15,8.33c-0.196,0.521-0.248,1.053-0.256,1.587c-0.484,3.544-0.39,7.119-0.391,10.688
		c-0.461,4.634-0.921,9.267-1.381,13.899c-1.53,5.47-5.443,7.388-10.759,7.244c-1.656-0.046-3.332,0.126-4.965-0.077
		c-2.566-0.319-2.9,0.982-2.781,3.087c0.113,1.991-0.417,3.784,2.876,3.731c12.808-0.201,25.624-0.188,38.433-0.003
		c2.951,0.042,3.075-1.207,3.136-3.5c0.064-2.508-0.538-3.792-3.271-3.295c-0.536,0.1-1.102,0.024-1.654,0.035
		c-10.057,0.189-10.473-0.145-12.295-9.856c-0.118-6.23-0.234-12.459-0.352-18.688c0.18-1.143,0.062-2.298-0.064-3.452
		c-0.007-0.366-0.014-0.73-0.021-1.096c0.111-9.581,0.256-19.161,0.322-28.741c0.054-7.76,0.011-15.521,0.011-23.282
		c0.266-0.039,0.532-0.079,0.798-0.118c0.847,1.341,1.693,2.683,2.54,4.022v0.001c3.249,7.128,6.901,14.051,10.726,20.883
		c2.169,4.815,4.563,9.514,7.257,14.058c2.353,5.255,4.991,10.36,7.927,15.313c1.88,4.99,4.651,9.52,7.278,14.123
		c3.518,6.981,7.018,13.97,10.57,20.932c0.477,0.933,0.666,2.405,1.947,2.438c1.518,0.039,1.65-1.601,2.147-2.608
		c3.151-6.378,6.222-12.796,9.317-19.2c2.967-4.599,5.309-9.51,7.297-14.597c1.147-0.669,1.358-1.954,1.881-3
		c2.539-5.086,5-10.211,7.489-15.321c0.599-1.027,1.26-2.023,1.783-3.087c2.092-4.253,4.141-8.529,6.205-12.796
		c3.562-6.562,7.156-13.107,9.858-20.089c1.637,0.376,1.069,1.704,1.088,2.691c0.111,5.732,0.161,11.464,0.231,17.196
		c-0.008,9.737-0.018,19.474-0.026,29.211c-0.277,2.434-0.325,4.868-0.027,7.305c-0.076,2.073-0.099,4.151-0.238,6.221
		c-0.429,6.313,0.606,12.717-1.207,18.939c-1.665,1.636-3.742,2.026-5.98,2.211c-2.354,0.191-4.769-0.381-7.064,0.523l-0.023,0.021
		c-1.432,5.618-1.042,6.178,4.305,6.178c12.164,0,24.33-0.075,36.492,0.063c2.55,0.028,3.016-0.785,3.14-3.178
		C307.032,223.483,305.896,222.954,303.102,222.981"/>
	<path clip-path="url(#SVGID_2_)" fill="#FFFFFF" d="M124.991,223.293c-1.628,0.15-3.297-0.184-4.95-0.211
		c-3.387-0.054-5.699-1.455-6.444-4.933c-0.085-10.249-0.205-20.498-0.225-30.746c-0.004-1.814-0.497-2.565-2.433-2.488
		c-3.412,0.137-6.834,0.092-10.25,0.015c-1.58-0.036-2.407,0.271-2.394,2.141c0.062,8.813,0,17.626-0.018,26.438
		c-0.019,0.66-0.037,1.32-0.056,1.98l-0.117,0.195l0.144,0.178c-0.041,0.156-0.081,0.313-0.122,0.47
		c-0.387,1.487-0.773,2.976-1.16,4.464c-2.717,2.708-6.261,2.653-9.624,2.468c-3.035-0.167-2.973,1.351-3.069,3.555
		c-0.105,2.446,0.581,3.212,3.12,3.187c12.578-0.134,25.159-0.154,37.736,0.012c2.84,0.036,3.119-1.08,3.209-3.454
		C128.44,223.89,127.56,223.053,124.991,223.293"/>
	<path clip-path="url(#SVGID_2_)" fill="#FFFFFF" d="M162.677,162.999c4.753-7.607,5.804-15.806,3.914-24.476
		c-1.081-5.709-3.514-10.687-7.898-14.61c-3.646-3.942-8.02-6.688-13.23-8.06c-0.701-0.186-1.526,0.081-2.096-0.579
		c-0.897-1.004-2.082-0.775-3.219-0.752c0.008,0.011,0.017,0.017,0.024,0.028c-0.508-0.16-1.017-0.44-1.527-0.442
		c-17.452-0.07-34.904-0.096-52.356-0.182c-2.151-0.012-1.844,1.368-1.825,2.679c0.019,1.31-0.254,2.705,1.88,2.683
		c3.085-0.03,6.171,0.151,9.258,0.242h0.001c0.634,0.375,1.268,0.75,1.901,1.124c0.779,2.12,0.732,4.333,0.74,6.539
		c0.05,14.007,0.084,28.014,0.181,42.021c0.007,1.044-0.728,2.911,1.136,2.893c4.455-0.044,8.948,0.722,13.37-0.401
		c0.001,0.001,0.002,0.003,0.004,0.004v0.001c0.001-0.001,0.001-0.001,0.001-0.002c0.002-0.002,0.004-0.005,0.004-0.005
		c0.92-1.051,0.44-2.316,0.443-3.466c0.036-15.549,0.087-31.099-0.041-46.647c-0.023-2.817,0.774-3.603,3.563-3.346
		c4.161,0.382,8.363,0.322,12.546,0.451c-0.007-0.014-0.016-0.025-0.023-0.038c1.014,0.667,2.168,0.694,3.32,0.73
		c4.974,1.744,8.989,4.907,12.661,8.576c3.111,4.17,4.837,8.872,5.688,13.907c0.009,0.53,0.041,1.056,0.245,1.564v0.001
		c-0.22,5.271-0.29,10.563-2.277,15.576c-2.655,5.438-6.904,9.37-11.907,12.586h-0.001c-7.825,3.607-16.195,4.352-24.646,4.859
		c-11.838,0.712-23.589-0.189-35.33-1.521c-1.183-0.74-2.514-0.67-3.827-0.702c-1.428-0.722-2.866-0.813-5.097-0.263
		c1.476,0.478,2.185,0.707,2.894,0.937c0.867,0.257,1.735,0.514,2.602,0.771c9.256,3.135,18.813,4.136,28.528,4.026
		c5.986,0.492,11.972,0.601,17.958,0.01c5.349,0.176,10.659-0.107,15.89-1.331c1.176,0.064,2.343,0.082,3.372-0.623
		c-0.004,0.006-0.008,0.008-0.012,0.014c1.193,0.057,2.346-0.066,3.375-0.749c2.849-0.596,5.509-1.635,7.882-3.35
		C156.18,171.743,159.848,167.839,162.677,162.999"/>
</g>
</svg>
