<?xml version="1.0" encoding="utf-8"?>
<!-- Generator: Adobe Illustrator 16.0.2, SVG Export Plug-In . SVG Version: 6.00 Build 0)  -->
<!DOCTYPE svg PUBLIC "-//W3C//DTD SVG 1.1//EN" "http://www.w3.org/Graphics/SVG/1.1/DTD/svg11.dtd">
<svg version="1.1" id="historyIcon1" xmlns="http://www.w3.org/2000/svg" xmlns:xlink="http://www.w3.org/1999/xlink" x="0px"
	 y="0px" width="349px" height="349px" viewBox="103.615 91.854 349 349" enable-background="new 103.615 91.854 349 349"
	 xml:space="preserve">
<circle fill="#BF0000" cx="278.115" cy="266.354" r="174.5"/>
<g>
	<path fill="#FFFFFF" d="M335.081,198.979H221.952c-10.933,0-19.826,8.894-19.826,19.826v98.397
		c0,11.319,9.209,20.528,20.528,20.528h112.427c2.832,0,5.128-2.297,5.128-5.127V204.105
		C340.209,201.273,337.914,198.979,335.081,198.979z M221.952,209.234h108.001v19.14h-7.971v-9.569c0-1.888-1.53-3.419-3.418-3.419
		H213.016C214.395,211.792,217.879,209.234,221.952,209.234z M315.145,228.374h-93.191c-4.072,0-7.557-2.558-8.938-6.151h102.129
		V228.374L315.145,228.374z M222.654,327.477c-5.664,0-10.273-4.607-10.273-10.272V236.16c2.84,1.572,6.102,2.47,9.57,2.47h108.001
		v25.563H308.15c-10.399,0-18.858,8.461-18.858,18.858c0,10.398,8.459,18.857,18.858,18.857h21.802v25.563H222.654V327.477z
		 M329.953,295.074H308.15c-6.627,0-12.021-5.393-12.021-12.021c0-6.628,5.395-12.021,12.021-12.021h21.803V295.074z"/>
	<path fill="#FFFFFF" d="M303.384,283.052c0,1.351,0.546,2.675,1.5,3.628c0.953,0.953,2.277,1.5,3.628,1.5s2.67-0.547,3.623-1.5
		c0.957-0.953,1.506-2.277,1.506-3.628c0-1.35-0.549-2.67-1.506-3.622c-0.953-0.959-2.272-1.506-3.623-1.506
		s-2.675,0.547-3.628,1.506C303.93,280.382,303.384,281.705,303.384,283.052z"/>
</g>
</svg>
