<?xml version="1.0" encoding="utf-8"?>
<!-- Generator: Adobe Illustrator 16.0.0, SVG Export Plug-In . SVG Version: 6.00 Build 0)  -->
<!DOCTYPE svg PUBLIC "-//W3C//DTD SVG 1.1//EN" "http://www.w3.org/Graphics/SVG/1.1/DTD/svg11.dtd">
<svg version="1.1" id="historyIcon1" xmlns="http://www.w3.org/2000/svg" xmlns:xlink="http://www.w3.org/1999/xlink" x="0px"
	 y="0px" width="349px" height="349px" viewBox="103.615 91.854 349 349" enable-background="new 103.615 91.854 349 349"
	 xml:space="preserve">
<circle fill="#BF0000" cx="278.115" cy="266.354" r="174.5"/>
<g display="none">
	<path display="inline" fill="#FFFFFF" d="M394.126,184.945c-8.793-8.792-23.097-8.791-31.89,0l-27.594,27.593H182.777
		c-3.898,0-7.059,3.16-7.059,7.059v106.335c0,3.898,3.16,7.06,7.059,7.06H348.15c3.898,0,7.06-3.16,7.06-7.06v-70.184l38.916-38.916
		C402.917,208.041,402.917,193.736,394.126,184.945z M378.182,187.752c3.51,0,6.809,1.366,9.289,3.848
		c4.889,4.889,5.107,12.702,0.662,17.858l-18.521-18.521C371.995,188.878,375.001,187.752,378.182,187.752z M335.232,259.6
		l-15.762-15.763l-1.406-1.407l44.863-44.866l18.578,18.578l-44.865,44.865L335.232,259.6z M314.986,252.663l2.383,2.382
		l-8.494,8.495c-1.838,1.838-1.838,4.817,0,6.655c0.919,0.919,2.123,1.379,3.327,1.379s2.407-0.46,3.327-1.379l8.494-8.495
		l2.383,2.383l-4.949,12.728l-27.373,8.176l8.176-27.373L314.986,252.663z M341.093,318.873H189.836v-92.218h130.689l-12.445,12.447
		c-1.719,1.717-1.828,4.432-0.336,6.28l-11.039,4.293c-1.354,0.526-2.389,1.648-2.805,3.039l-10.987,36.789l-4.698,4.697
		l-5.539-5.539c-1.838-1.837-4.816-1.837-6.654,0c-1.838,1.838-1.838,4.817,0,6.655l5.539,5.539l-5.539,5.538
		c-1.838,1.838-1.838,4.816,0,6.655c0.918,0.918,2.123,1.378,3.328,1.378c1.203,0,2.408-0.46,3.326-1.378l5.539-5.539l5.539,5.539
		c0.92,0.918,2.123,1.378,3.328,1.378c1.204,0,2.409-0.46,3.327-1.378c1.838-1.838,1.838-4.816,0-6.655l-5.538-5.538l4.697-4.697
		l36.789-10.989c1.391-0.416,2.513-1.45,3.039-2.803l4.293-11.039c0.858,0.692,1.904,1.041,2.953,1.041
		c1.205,0,2.407-0.46,3.326-1.378l1.124-1.124V318.873L341.093,318.873z"/>
	<path display="inline" fill="#FFFFFF" d="M206.742,251.226h73.84c2.6,0,4.707-2.107,4.707-4.706s-2.107-4.706-4.707-4.706h-73.84
		c-2.599,0-4.706,2.107-4.706,4.706S204.143,251.226,206.742,251.226z"/>
	<path display="inline" fill="#FFFFFF" d="M275.535,266.023c0-2.598-2.105-4.705-4.705-4.705h-64.088
		c-2.599,0-4.706,2.107-4.706,4.705c0,2.601,2.107,4.707,4.706,4.707h64.088C273.43,270.73,275.535,268.624,275.535,266.023z"/>
</g>
<g display="none">
	<g display="inline">
		<path fill="#FFFFFF" d="M371.301,248.333l-72.32-61.687c-2.109-1.832-5.097-2.23-7.646-1.035
			c-2.548,1.155-4.183,3.704-4.183,6.491v30.106c-18.357,0.956-34.963,4.979-49.418,11.987c-14.137,6.85-26.244,16.527-35.96,28.75
			C184.212,285.009,178,310.973,178,327.898c0,3.266,2.23,6.133,5.376,6.929c0.597,0.159,1.195,0.239,1.792,0.239
			c2.589,0,5.018-1.395,6.292-3.703c14.774-26.921,38.549-41.098,74.787-44.563c3.942-0.359,6.851-3.863,6.451-7.807
			c-0.357-3.943-3.902-6.85-7.806-6.451c-18.159,1.752-33.332,5.854-46.354,12.625c-7.726,3.98-14.695,8.959-20.907,14.854
			c3.266-9.318,8.283-19.114,15.412-28.076c18.478-23.214,45.875-35.161,81.397-35.521c3.942-0.04,7.088-3.226,7.088-7.168v-21.504
			l54.121,46.155l-54.159,46.153v-21.505c0-3.941-3.226-7.166-7.169-7.166c-3.942,0-7.168,3.225-7.168,7.166v37.076
			c0,2.787,1.634,5.336,4.182,6.491c2.549,1.154,5.535,0.757,7.646-1.076l72.318-61.845c1.594-1.354,2.51-3.345,2.51-5.455
			C373.809,251.677,372.893,249.687,371.301,248.333z"/>
	</g>
</g>
<g>
	<path fill="#FFFFFF" d="M361.188,234.562l-37.013-37.013c-2.344-2.343-5.458-3.633-8.772-3.633c-3.313,0-6.428,1.29-8.771,3.633
		l-8.697,8.698c-1.338,1.338-2.291,2.913-2.891,4.587l-40.695-7.285c-0.003-0.001-0.006-0.001-0.009-0.002
		c-18.298-3.632-36.164,8.265-39.854,26.564l-1.877,9.313c-2.073,10.281,4.606,20.33,14.888,22.403
		c10.283,2.071,20.333-4.606,22.406-14.886l1.147-5.694l18.249,1.596l47.657,47.657l8.639,8.637c1.747,1.749,1.747,4.596,0,6.345
		c-1.748,1.747-4.595,1.749-6.345,0l-23.137-23.139c-1.611-1.61-4.226-1.61-5.837,0c-1.61,1.612-1.61,4.226,0,5.839l23.139,23.136
		c0.846,0.848,1.313,1.974,1.313,3.172c0,1.197-0.467,2.325-1.313,3.172c-1.751,1.75-4.596,1.748-6.346,0l-23.137-23.138
		c-1.61-1.61-4.225-1.61-5.836,0c-1.611,1.611-1.611,4.226,0,5.837l23.137,23.138c1.748,1.747,1.748,4.594,0,6.343
		c-0.846,0.849-1.973,1.314-3.17,1.314c-1.198,0-2.324-0.468-3.174-1.314l-23.137-23.138c-1.611-1.61-4.227-1.61-5.837,0
		c-1.61,1.612-1.61,4.225,0,5.837l23.14,23.137c1.748,1.749,1.748,4.597,0,6.344c-1.75,1.75-4.596,1.75-6.346,0l-81.863-81.861
		l-10.811-10.81c-1.612-1.611-4.225-1.611-5.836,0c-1.612,1.612-1.612,4.225,0,5.836l10.811,10.81l11.765,11.765l-6.486,6.485
		c-2.123,2.124-3.293,4.946-3.293,7.95c0,3.005,1.17,5.825,3.293,7.949l2.117,2.117c1.855,1.855,4.248,2.983,6.826,3.237
		c0.255,2.578,1.381,4.971,3.238,6.826l2.117,2.116c1.906,1.905,4.331,2.979,6.825,3.229c0.253,2.582,1.38,4.976,3.239,6.834
		l2.116,2.116c1.856,1.855,4.248,2.981,6.826,3.238c0.254,2.577,1.381,4.97,3.238,6.825l2.116,2.116
		c2.192,2.192,5.071,3.287,7.951,3.287c2.879,0,5.757-1.095,7.95-3.287l6.485-6.484l15.539,15.54
		c2.406,2.406,5.604,3.731,9.009,3.731c3.402,0,6.602-1.326,9.008-3.731c2.279-2.278,3.574-5.272,3.705-8.475
		c3.202-0.131,6.195-1.425,8.477-3.705c2.35-2.349,3.572-5.396,3.699-8.479c3.084-0.128,6.131-1.353,8.479-3.699
		c2.351-2.352,3.573-5.397,3.7-8.481c3.085-0.126,6.131-1.35,8.48-3.699c4.967-4.969,4.967-13.05,0-18.017l-5.722-5.72
		l20.927-20.925l14.551-14.549C366.023,247.269,366.023,239.398,361.188,234.562L361.188,234.562z M206.126,294.307
		c-1.166-1.166-1.166-3.063,0-4.228l6.082-6.081l6.344,6.344l-6.082,6.081c-1.165,1.166-3.063,1.165-4.228,0L206.126,294.307z
		 M218.307,306.486c-1.167-1.165-1.167-3.063,0-4.228l6.081-6.082l6.345,6.345l-6.081,6.081c-1.166,1.165-3.063,1.166-4.228,0
		L218.307,306.486z M230.487,318.668c-0.565-0.565-0.876-1.317-0.876-2.114c0-0.799,0.311-1.55,0.876-2.113l6.081-6.082l6.344,6.345
		l-6.082,6.081c-1.165,1.165-3.062,1.165-4.227,0L230.487,318.668L230.487,318.668z M249.011,332.964
		c-1.166,1.166-3.063,1.164-4.228,0l-2.116-2.117c-1.166-1.166-1.166-3.061,0-4.228l6.081-6.081l6.345,6.345L249.011,332.964z
		 M319.874,281.743l-45.804-45.8c-0.686-0.687-1.59-1.108-2.559-1.192l-23.42-2.048c-0.122-0.011-0.243-0.016-0.363-0.016
		c-1.945,0-3.651,1.372-4.042,3.312l-1.877,9.312c-1.174,5.82-6.86,9.599-12.685,8.426c-2.819-0.568-5.249-2.2-6.841-4.597
		c-1.591-2.395-2.155-5.267-1.586-8.087l1.877-9.31c2.797-13.873,16.352-22.885,30.23-20.086c0.029,0.005,0.058,0.012,0.088,0.017
		l40.102,7.18l4.938,4.938l39.948,39.946L319.874,281.743z M355.352,246.269L343.716,257.9l-39.948-39.946
		c-0.783-0.784-1.216-1.828-1.216-2.936c0-1.11,0.433-2.153,1.216-2.938l8.698-8.697c0.785-0.785,1.827-1.216,2.937-1.216
		s2.15,0.431,2.937,1.216l37.013,37.012c0.783,0.784,1.217,1.827,1.217,2.936S356.134,245.485,355.352,246.269z"/>
	<circle fill="#FFFFFF" cx="345.359" cy="244.972" r="4.127"/>
</g>
</svg>
