<?xml version="1.0" encoding="utf-8"?>
<!-- Generator: Adobe Illustrator 16.0.2, SVG Export Plug-In . SVG Version: 6.00 Build 0)  -->
<!DOCTYPE svg PUBLIC "-//W3C//DTD SVG 1.1//EN" "http://www.w3.org/Graphics/SVG/1.1/DTD/svg11.dtd">
<svg version="1.1" id="historyIcon1" xmlns="http://www.w3.org/2000/svg" xmlns:xlink="http://www.w3.org/1999/xlink" x="0px"
	 y="0px" width="349px" height="349px" viewBox="103.615 91.854 349 349" enable-background="new 103.615 91.854 349 349"
	 xml:space="preserve">
<circle fill="#BF0000" cx="278.115" cy="266.354" r="174.5"/>
<g>
	<path fill="#FFFFFF" d="M229.885,245.188c0-1.967-1.595-3.563-3.563-3.563c-1.969,0-3.563,1.596-3.563,3.563
		c0,6.865,4.738,12.641,11.115,14.238v2.025c0,1.968,1.595,3.563,3.563,3.563c1.967,0,3.563-1.596,3.563-3.563v-2.025
		c6.377-1.598,11.115-7.373,11.115-14.238c0-6.863-4.738-12.642-11.115-14.237v-14.646c2.372,1.274,3.988,3.778,3.988,6.654
		c0,1.968,1.596,3.563,3.563,3.563s3.563-1.595,3.563-3.563c0-6.865-4.738-12.643-11.115-14.238v-2.025
		c0-1.969-1.595-3.563-3.563-3.563c-1.968,0-3.563,1.597-3.563,3.563v2.025c-6.377,1.596-11.115,7.373-11.115,14.238
		c0,6.863,4.738,12.643,11.115,14.238v14.646C231.501,250.568,229.885,248.064,229.885,245.188z M244.986,245.188
		c0,2.877-1.616,5.381-3.987,6.655v-13.31C243.371,239.809,244.986,242.313,244.986,245.188z M229.885,222.959
		c0-2.876,1.617-5.38,3.988-6.654v13.309C231.501,228.338,229.885,225.834,229.885,222.959z"/>
	<path fill="#FFFFFF" d="M237.436,282.71c26.817,0,48.635-21.817,48.635-48.636c0-26.819-21.817-48.639-48.635-48.639
		c-26.818,0-48.639,21.819-48.639,48.639C188.797,260.893,210.617,282.71,237.436,282.71z M237.436,196.126
		c20.922,0,37.946,17.022,37.946,37.948c0,20.924-17.024,37.947-37.946,37.947c-20.924,0-37.947-17.022-37.947-37.947
		C199.488,213.148,216.512,196.126,237.436,196.126z"/>
	<path fill="#FFFFFF" d="M308.786,256.788c-26.818,0-48.638,21.817-48.638,48.638c0,26.821,21.817,48.639,48.638,48.639
		s48.639-21.817,48.639-48.639C357.425,278.605,335.605,256.788,308.786,256.788z M308.786,343.374
		c-20.925,0-37.947-17.022-37.947-37.948c0-20.925,17.022-37.947,37.947-37.947s37.948,17.022,37.948,37.947
		C346.734,326.352,329.711,343.374,308.786,343.374z"/>
	<path fill="#FFFFFF" d="M325.639,316.381c-1.694-1.001-3.881-0.438-4.881,1.258c-2.04,3.457-5.797,5.604-9.804,5.604
		c-5.698,0-10.431-4.213-11.247-9.688h10.954c1.968,0,3.563-1.596,3.563-3.563s-1.597-3.563-3.563-3.563h-11.08v-2.005h11.08
		c1.968,0,3.563-1.595,3.563-3.563s-1.597-3.563-3.563-3.563h-10.954c0.816-5.475,5.549-9.688,11.247-9.688
		c3.442,0,6.662,1.535,8.835,4.213c1.24,1.527,3.484,1.761,5.013,0.521c1.527-1.24,1.761-3.484,0.521-5.015
		c-3.531-4.353-8.771-6.847-14.367-6.847c-9.632,0-17.563,7.399-18.42,16.813h-4.132c-1.969,0-3.563,1.597-3.563,3.563
		s1.599,3.563,3.563,3.563h4.052v2.006h-4.052c-1.969,0-3.563,1.596-3.563,3.563s1.599,3.563,3.563,3.563h4.132
		c0.854,9.412,8.787,16.813,18.42,16.813c6.518,0,12.625-3.49,15.941-9.108C327.896,319.564,327.332,317.381,325.639,316.381z"/>
	<path fill="#FFFFFF" d="M293.602,216.113c0.688,1.02,1.813,1.568,2.955,1.568c0.688,0,1.381-0.199,1.992-0.611
		c1.631-1.103,2.06-3.317,0.956-4.947l-3.278-4.852c22.681,8.273,39.563,28.51,43.193,52.818c0.264,1.768,1.784,3.037,3.52,3.037
		c0.177,0,0.354-0.014,0.531-0.039c1.946-0.291,3.288-2.104,2.997-4.051c-4.039-27.043-22.894-49.533-48.188-58.602l3.991-1.766
		c1.8-0.796,2.612-2.9,1.816-4.701c-0.795-1.8-2.897-2.613-4.699-1.818l-13.027,5.762c-0.967,0.427-1.691,1.26-1.982,2.273
		c-0.292,1.015-0.119,2.105,0.473,2.98L293.602,216.113z"/>
	<path fill="#FFFFFF" d="M252.621,323.386c-1.102-1.631-3.316-2.059-4.948-0.956c-1.63,1.104-2.06,3.317-0.957,4.947l3.279,4.852
		c-22.681-8.272-39.562-28.51-43.193-52.818c-0.29-1.946-2.106-3.288-4.051-2.998c-1.946,0.291-3.288,2.104-2.998,4.052
		c4.04,27.044,22.894,49.533,48.188,58.604l-3.991,1.765c-1.8,0.796-2.613,2.899-1.818,4.7c0.589,1.332,1.894,2.123,3.261,2.123
		c0.481,0,0.972-0.1,1.439-0.307l13.025-5.761c0.967-0.427,1.691-1.26,1.982-2.272c0.292-1.017,0.119-2.105-0.473-2.98
		L252.621,323.386z"/>
</g>
</svg>
