<?xml version="1.0" encoding="utf-8"?>
<!-- Generator: Adobe Illustrator 16.0.2, SVG Export Plug-In . SVG Version: 6.00 Build 0)  -->
<!DOCTYPE svg PUBLIC "-//W3C//DTD SVG 1.1//EN" "http://www.w3.org/Graphics/SVG/1.1/DTD/svg11.dtd">
<svg version="1.1" id="historyIcon1" xmlns="http://www.w3.org/2000/svg" xmlns:xlink="http://www.w3.org/1999/xlink" x="0px"
	 y="0px" width="349px" height="349px" viewBox="103.615 91.854 349 349" enable-background="new 103.615 91.854 349 349"
	 xml:space="preserve">
<circle fill="#BF0000" cx="278.115" cy="266.354" r="174.5"/>
<g>
	<path fill="#FFFFFF" d="M317.641,275.066c0,1.975,1.603,3.576,3.575,3.576c1.977,0,3.577-1.604,3.577-3.576
		c0-7.455-5.208-13.713-12.177-15.338v-2.48c0-1.975-1.602-3.577-3.576-3.577s-3.577,1.603-3.577,3.577v2.48
		c-6.967,1.625-12.175,7.883-12.175,15.338s5.208,13.713,12.175,15.336v16.832c-2.96-1.359-5.021-4.354-5.021-7.816
		c0-1.977-1.603-3.576-3.577-3.576s-3.575,1.6-3.575,3.576c0,7.455,5.208,13.713,12.175,15.338v2.479
		c0,1.976,1.604,3.576,3.577,3.576s3.576-1.603,3.576-3.576v-2.479c6.969-1.625,12.177-7.883,12.177-15.338
		s-5.208-13.715-12.177-15.338v-16.832C315.577,268.609,317.641,271.6,317.641,275.066z M300.439,275.066
		c0-3.467,2.063-6.457,5.021-7.818v15.635C302.503,281.521,300.439,278.531,300.439,275.066z M317.641,299.418
		c0,3.467-2.063,6.457-5.022,7.816v-15.633C315.577,292.961,317.641,295.951,317.641,299.418z"/>
	<path fill="#FFFFFF" d="M311.891,234.527v-36.485c0-2.962-2.399-5.365-5.362-5.365h-94.515c-2.963,0-5.365,2.403-5.365,5.365
		v136.626c0,2.963,2.402,5.365,5.365,5.365h94.515c0.207,0,0.414-0.018,0.614-0.039c0.632,0.021,1.263,0.039,1.898,0.039
		c29.107,0,52.791-23.684,52.791-52.791C361.832,259.088,339.682,236.014,311.891,234.527z M256.279,285.516h-38.902v-15.584h41.791
		C257.458,274.84,256.456,280.074,256.279,285.516z M217.377,292.67h39.148c0.563,5.486,1.973,10.725,4.091,15.586h-43.239V292.67z
		 M262.27,262.777h-44.892v-15.584h57.306C269.624,251.54,265.396,256.826,262.27,262.777z M285.418,240.04h-68.041v-15.585h83.785
		v10.584C295.582,235.876,290.287,237.593,285.418,240.04z M301.162,203.407v13.895h-83.785v-13.895H301.162z M217.377,329.303
		v-13.895h47.034c3.396,5.357,7.728,10.066,12.766,13.895H217.377z M309.04,329.303c-23.192,0-42.062-18.869-42.062-42.061
		c0-23.193,18.867-42.063,42.062-42.063c23.192,0,42.062,18.868,42.062,42.063C351.102,310.434,332.232,329.303,309.04,329.303z"/>
</g>
</svg>
