<?xml version="1.0" encoding="utf-8"?>
<!-- Generator: Adobe Illustrator 16.0.2, SVG Export Plug-In . SVG Version: 6.00 Build 0)  -->
<!DOCTYPE svg PUBLIC "-//W3C//DTD SVG 1.1//EN" "http://www.w3.org/Graphics/SVG/1.1/DTD/svg11.dtd">
<svg version="1.1" id="historyIcon1" xmlns="http://www.w3.org/2000/svg" xmlns:xlink="http://www.w3.org/1999/xlink" x="0px"
	 y="0px" width="349px" height="349px" viewBox="103.615 91.854 349 349" enable-background="new 103.615 91.854 349 349"
	 xml:space="preserve">
<circle fill="#BF0000" cx="278.115" cy="266.354" r="174.5"/>
<g>
	<g>
		<path fill="#FFFFFF" d="M343.055,203.18c-17.41-17.412-40.569-27.006-65.178-27.006c-25.063,0-48.51,9.885-66.004,27.833
			c-1.902,1.944-1.861,5.087,0.083,7.031c1.944,1.901,5.087,1.86,7.03-0.083c15.633-16.005,36.518-24.813,58.891-24.813
			c45.368-0.041,82.257,36.848,82.257,82.217c0,45.365-36.889,82.257-82.257,82.257c-45.367,0-82.257-36.892-82.257-82.257v-1.034
			l8.188,8.188c0.951,0.949,2.233,1.445,3.516,1.445c1.281,0,2.521-0.496,3.515-1.445c1.944-1.945,1.944-5.089,0-7.031
			l-16.625-16.668c-1.944-1.943-5.087-1.943-7.03,0l-16.667,16.668c-1.944,1.942-1.944,5.086,0,7.031
			c1.943,1.941,5.086,1.941,7.03,0l8.188-8.188v1.034c0,24.604,9.596,47.766,27.006,65.177c17.41,17.409,40.57,27.005,65.177,27.005
			c24.605,0,47.767-9.596,65.177-27.005c17.41-17.411,26.965-40.57,26.965-65.177C370.061,243.75,360.465,220.59,343.055,203.18z"/>
		<path fill="#FFFFFF" d="M304.262,234.816l-60.957,60.918c-1.943,1.942-1.943,5.086,0,7.029c0.95,0.951,2.232,1.447,3.514,1.447
			c1.283,0,2.523-0.496,3.516-1.447l60.959-60.959c1.943-1.943,1.943-5.087,0-7.029C309.35,232.873,306.206,232.873,304.262,234.816
			z"/>
		<path fill="#FFFFFF" d="M288.299,275.843c-6.906,6.906-6.906,18.196,0,25.104c3.352,3.351,7.816,5.211,12.572,5.211
			s9.222-1.86,12.572-5.211c6.905-6.906,6.905-18.196,0-25.104c-3.353-3.35-7.816-5.211-12.572-5.211
			S291.689,272.493,288.299,275.843z M306.413,293.956c-1.489,1.489-3.433,2.274-5.542,2.274c-2.107,0-4.053-0.828-5.542-2.274
			c-3.06-3.062-3.06-8.022,0-11.083c1.489-1.489,3.435-2.273,5.542-2.273c2.109,0,4.053,0.826,5.542,2.273
			C309.473,285.934,309.473,290.896,306.413,293.956z"/>
		<path fill="#FFFFFF" d="M255.049,230.393c-4.756,0-9.222,1.86-12.572,5.211c-3.35,3.35-5.211,7.815-5.211,12.571
			c0,4.757,1.861,9.224,5.211,12.574c3.351,3.351,7.816,5.211,12.572,5.211s9.223-1.86,12.572-5.211
			c3.35-3.353,5.211-7.817,5.211-12.574c0-4.756-1.861-9.222-5.211-12.571C264.23,232.252,259.805,230.393,255.049,230.393z
			 M260.59,253.716c-1.488,1.489-3.432,2.275-5.541,2.275s-4.053-0.827-5.542-2.275c-1.487-1.489-2.274-3.432-2.274-5.541
			c0-2.108,0.828-4.053,2.274-5.542c1.489-1.488,3.433-2.273,5.542-2.273s4.053,0.826,5.541,2.273
			c1.489,1.489,2.275,3.434,2.275,5.542C262.865,250.242,262.079,252.227,260.59,253.716z"/>
	</g>
</g>
</svg>
