<?xml version="1.0" encoding="utf-8"?>
<!-- Generator: Adobe Illustrator 16.0.0, SVG Export Plug-In . SVG Version: 6.00 Build 0)  -->
<!DOCTYPE svg PUBLIC "-//W3C//DTD SVG 1.1//EN" "http://www.w3.org/Graphics/SVG/1.1/DTD/svg11.dtd">
<svg version="1.1" id="historyIcon1" xmlns="http://www.w3.org/2000/svg" xmlns:xlink="http://www.w3.org/1999/xlink" x="0px"
	 y="0px" width="349px" height="349px" viewBox="103.615 91.854 349 349" enable-background="new 103.615 91.854 349 349"
	 xml:space="preserve">
<circle fill="#BF0000" cx="278.115" cy="266.354" r="174.5"/>
<g display="none">
	<path display="inline" fill="#FFFFFF" d="M394.126,184.945c-8.793-8.792-23.097-8.791-31.89,0l-27.594,27.593H182.777
		c-3.898,0-7.059,3.16-7.059,7.059v106.335c0,3.898,3.16,7.06,7.059,7.06H348.15c3.898,0,7.06-3.16,7.06-7.06v-70.184l38.916-38.916
		C402.917,208.041,402.917,193.736,394.126,184.945z M378.182,187.752c3.51,0,6.809,1.366,9.289,3.848
		c4.889,4.889,5.107,12.702,0.662,17.858l-18.521-18.521C371.995,188.878,375.001,187.752,378.182,187.752z M335.232,259.6
		l-15.762-15.763l-1.406-1.407l44.863-44.866l18.578,18.578l-44.865,44.865L335.232,259.6z M314.986,252.663l2.383,2.382
		l-8.494,8.495c-1.838,1.838-1.838,4.817,0,6.655c0.919,0.919,2.123,1.379,3.327,1.379s2.407-0.46,3.327-1.379l8.494-8.495
		l2.383,2.383l-4.949,12.728l-27.373,8.176l8.176-27.373L314.986,252.663z M341.093,318.873H189.836v-92.218h130.689l-12.445,12.447
		c-1.719,1.717-1.828,4.432-0.336,6.28l-11.039,4.293c-1.354,0.526-2.389,1.648-2.805,3.039l-10.987,36.789l-4.698,4.697
		l-5.539-5.539c-1.838-1.837-4.816-1.837-6.654,0c-1.838,1.838-1.838,4.817,0,6.655l5.539,5.539l-5.539,5.538
		c-1.838,1.838-1.838,4.816,0,6.655c0.918,0.918,2.123,1.378,3.328,1.378c1.203,0,2.408-0.46,3.326-1.378l5.539-5.539l5.539,5.539
		c0.92,0.918,2.123,1.378,3.328,1.378c1.204,0,2.409-0.46,3.327-1.378c1.838-1.838,1.838-4.816,0-6.655l-5.538-5.538l4.697-4.697
		l36.789-10.989c1.391-0.416,2.513-1.45,3.039-2.803l4.293-11.039c0.858,0.692,1.904,1.041,2.953,1.041
		c1.205,0,2.407-0.46,3.326-1.378l1.124-1.124V318.873L341.093,318.873z"/>
	<path display="inline" fill="#FFFFFF" d="M206.742,251.226h73.84c2.6,0,4.707-2.107,4.707-4.706s-2.107-4.706-4.707-4.706h-73.84
		c-2.599,0-4.706,2.107-4.706,4.706S204.143,251.226,206.742,251.226z"/>
	<path display="inline" fill="#FFFFFF" d="M275.535,266.023c0-2.598-2.105-4.705-4.705-4.705h-64.088
		c-2.599,0-4.706,2.107-4.706,4.705c0,2.601,2.107,4.707,4.706,4.707h64.088C273.43,270.73,275.535,268.624,275.535,266.023z"/>
</g>
<g display="none">
	<g display="inline">
		<path fill="#FFFFFF" d="M371.301,248.333l-72.32-61.687c-2.109-1.832-5.097-2.23-7.646-1.035
			c-2.548,1.155-4.183,3.704-4.183,6.491v30.106c-18.357,0.956-34.963,4.979-49.418,11.987c-14.137,6.85-26.244,16.527-35.96,28.75
			C184.212,285.009,178,310.973,178,327.898c0,3.266,2.23,6.133,5.376,6.929c0.597,0.159,1.195,0.239,1.792,0.239
			c2.589,0,5.018-1.395,6.292-3.703c14.774-26.921,38.549-41.098,74.787-44.563c3.942-0.359,6.851-3.863,6.451-7.807
			c-0.357-3.943-3.902-6.85-7.806-6.451c-18.159,1.752-33.332,5.854-46.354,12.625c-7.726,3.98-14.695,8.959-20.907,14.854
			c3.266-9.318,8.283-19.114,15.412-28.076c18.478-23.214,45.875-35.161,81.397-35.521c3.942-0.04,7.088-3.226,7.088-7.168v-21.504
			l54.121,46.155l-54.159,46.153v-21.505c0-3.941-3.226-7.166-7.169-7.166c-3.942,0-7.168,3.225-7.168,7.166v37.076
			c0,2.787,1.634,5.336,4.182,6.491c2.549,1.154,5.535,0.757,7.646-1.076l72.318-61.845c1.594-1.354,2.51-3.345,2.51-5.455
			C373.809,251.677,372.893,249.687,371.301,248.333z"/>
	</g>
</g>
<g display="none">
	<path display="inline" fill="#FFFFFF" d="M361.188,234.562l-37.013-37.013c-2.344-2.343-5.458-3.633-8.772-3.633
		c-3.313,0-6.428,1.29-8.771,3.633l-8.697,8.698c-1.338,1.338-2.291,2.913-2.891,4.587l-40.695-7.285
		c-0.003-0.001-0.006-0.001-0.009-0.002c-18.298-3.632-36.164,8.265-39.854,26.564l-1.877,9.313
		c-2.073,10.281,4.606,20.33,14.888,22.403c10.283,2.071,20.333-4.606,22.406-14.886l1.147-5.694l18.249,1.596l47.657,47.657
		l8.639,8.637c1.747,1.749,1.747,4.596,0,6.345c-1.748,1.747-4.595,1.749-6.345,0l-23.137-23.139c-1.611-1.61-4.226-1.61-5.837,0
		c-1.61,1.612-1.61,4.226,0,5.839l23.139,23.136c0.846,0.848,1.313,1.974,1.313,3.172c0,1.197-0.467,2.325-1.313,3.172
		c-1.751,1.75-4.596,1.748-6.346,0l-23.137-23.138c-1.61-1.61-4.225-1.61-5.836,0c-1.611,1.611-1.611,4.226,0,5.837l23.137,23.138
		c1.748,1.747,1.748,4.594,0,6.343c-0.846,0.849-1.973,1.314-3.17,1.314c-1.198,0-2.324-0.468-3.174-1.314l-23.137-23.138
		c-1.611-1.61-4.227-1.61-5.837,0c-1.61,1.612-1.61,4.225,0,5.837l23.14,23.137c1.748,1.749,1.748,4.597,0,6.344
		c-1.75,1.75-4.596,1.75-6.346,0l-81.863-81.861l-10.811-10.81c-1.612-1.611-4.225-1.611-5.836,0c-1.612,1.612-1.612,4.225,0,5.836
		l10.811,10.81l11.765,11.765l-6.486,6.485c-2.123,2.124-3.293,4.946-3.293,7.95c0,3.005,1.17,5.825,3.293,7.949l2.117,2.117
		c1.855,1.855,4.248,2.983,6.826,3.237c0.255,2.578,1.381,4.971,3.238,6.826l2.117,2.116c1.906,1.905,4.331,2.979,6.825,3.229
		c0.253,2.582,1.38,4.976,3.239,6.834l2.116,2.116c1.856,1.855,4.248,2.981,6.826,3.238c0.254,2.577,1.381,4.97,3.238,6.825
		l2.116,2.116c2.192,2.192,5.071,3.287,7.951,3.287c2.879,0,5.757-1.095,7.95-3.287l6.485-6.484l15.539,15.54
		c2.406,2.406,5.604,3.731,9.009,3.731c3.402,0,6.602-1.326,9.008-3.731c2.279-2.278,3.574-5.272,3.705-8.475
		c3.202-0.131,6.195-1.425,8.477-3.705c2.35-2.349,3.572-5.396,3.699-8.479c3.084-0.128,6.131-1.353,8.479-3.699
		c2.351-2.352,3.573-5.397,3.7-8.481c3.085-0.126,6.131-1.35,8.48-3.699c4.967-4.969,4.967-13.05,0-18.017l-5.722-5.72
		l20.927-20.925l14.551-14.549C366.023,247.269,366.023,239.398,361.188,234.562L361.188,234.562z M206.126,294.307
		c-1.166-1.166-1.166-3.063,0-4.228l6.082-6.081l6.344,6.344l-6.082,6.081c-1.165,1.166-3.063,1.165-4.228,0L206.126,294.307z
		 M218.307,306.486c-1.167-1.165-1.167-3.063,0-4.228l6.081-6.082l6.345,6.345l-6.081,6.081c-1.166,1.165-3.063,1.166-4.228,0
		L218.307,306.486z M230.487,318.668c-0.565-0.565-0.876-1.317-0.876-2.114c0-0.799,0.311-1.55,0.876-2.113l6.081-6.082l6.344,6.345
		l-6.082,6.081c-1.165,1.165-3.062,1.165-4.227,0L230.487,318.668L230.487,318.668z M249.011,332.964
		c-1.166,1.166-3.063,1.164-4.228,0l-2.116-2.117c-1.166-1.166-1.166-3.061,0-4.228l6.081-6.081l6.345,6.345L249.011,332.964z
		 M319.874,281.743l-45.804-45.8c-0.686-0.687-1.59-1.108-2.559-1.192l-23.42-2.048c-0.122-0.011-0.243-0.016-0.363-0.016
		c-1.945,0-3.651,1.372-4.042,3.312l-1.877,9.312c-1.174,5.82-6.86,9.599-12.685,8.426c-2.819-0.568-5.249-2.2-6.841-4.597
		c-1.591-2.395-2.155-5.267-1.586-8.087l1.877-9.31c2.797-13.873,16.352-22.885,30.23-20.086c0.029,0.005,0.058,0.012,0.088,0.017
		l40.102,7.18l4.938,4.938l39.948,39.946L319.874,281.743z M355.352,246.269L343.716,257.9l-39.948-39.946
		c-0.783-0.784-1.216-1.828-1.216-2.936c0-1.11,0.433-2.153,1.216-2.938l8.698-8.697c0.785-0.785,1.827-1.216,2.937-1.216
		s2.15,0.431,2.937,1.216l37.013,37.012c0.783,0.784,1.217,1.827,1.217,2.936S356.134,245.485,355.352,246.269z"/>
	<circle display="inline" fill="#FFFFFF" cx="345.359" cy="244.972" r="4.127"/>
</g>
<g display="none">
	<path display="inline" fill="#FFFFFF" d="M229.885,245.188c0-1.968-1.595-3.563-3.563-3.563c-1.968,0-3.563,1.595-3.563,3.563
		c0,6.865,4.738,12.64,11.115,14.238v2.025c0,1.968,1.595,3.563,3.563,3.563c1.968,0,3.563-1.596,3.563-3.563v-2.025
		c6.377-1.598,11.115-7.373,11.115-14.238c0-6.864-4.738-12.642-11.115-14.238v-14.646c2.372,1.275,3.988,3.779,3.988,6.655
		c0,1.968,1.596,3.563,3.563,3.563c1.967,0,3.563-1.595,3.563-3.563c0-6.865-4.738-12.643-11.115-14.239v-2.025
		c0-1.968-1.595-3.563-3.563-3.563c-1.968,0-3.563,1.596-3.563,3.563v2.025c-6.377,1.597-11.115,7.374-11.115,14.239
		c0,6.864,4.738,12.642,11.115,14.238v14.646C231.501,250.568,229.885,248.064,229.885,245.188z M244.987,245.188
		c0,2.876-1.617,5.38-3.988,6.655v-13.31C243.371,239.809,244.987,242.313,244.987,245.188z M229.885,222.959
		c0-2.876,1.617-5.38,3.988-6.655v13.31C231.501,228.338,229.885,225.834,229.885,222.959z"/>
	<path display="inline" fill="#FFFFFF" d="M237.436,282.71c26.817,0,48.634-21.817,48.634-48.636
		c0-26.819-21.817-48.638-48.634-48.638c-26.819,0-48.639,21.819-48.639,48.638C188.797,260.893,210.617,282.71,237.436,282.71z
		 M237.436,196.126c20.921,0,37.946,17.023,37.946,37.948c0,20.924-17.024,37.947-37.946,37.947
		c-20.925,0-37.948-17.022-37.948-37.947C199.488,213.149,216.511,196.126,237.436,196.126z"/>
	<path display="inline" fill="#FFFFFF" d="M308.786,256.788c-26.818,0-48.638,21.817-48.638,48.638s21.818,48.639,48.638,48.639
		s48.639-21.818,48.639-48.639S335.605,256.788,308.786,256.788z M308.786,343.374c-20.925,0-37.947-17.023-37.947-37.948
		s17.022-37.947,37.947-37.947s37.948,17.022,37.948,37.947S329.711,343.374,308.786,343.374z"/>
	<path display="inline" fill="#FFFFFF" d="M325.639,316.381c-1.695-1.001-3.881-0.438-4.881,1.257
		c-2.04,3.457-5.797,5.604-9.804,5.604c-5.698,0-10.431-4.212-11.247-9.688h10.954c1.968,0,3.563-1.595,3.563-3.563
		s-1.597-3.563-3.563-3.563h-11.08v-2.005h11.08c1.968,0,3.563-1.595,3.563-3.563c0-1.97-1.597-3.563-3.563-3.563h-10.954
		c0.816-5.475,5.549-9.688,11.247-9.688c3.442,0,6.662,1.535,8.835,4.213c1.24,1.527,3.484,1.761,5.013,0.521
		c1.527-1.24,1.761-3.484,0.521-5.014c-3.531-4.352-8.77-6.846-14.367-6.846c-9.632,0-17.564,7.399-18.42,16.813h-4.131
		c-1.969,0-3.564,1.596-3.564,3.563c0,1.967,1.598,3.563,3.564,3.563h4.051v2.005h-4.051c-1.969,0-3.564,1.596-3.564,3.563
		s1.598,3.563,3.564,3.563h4.131c0.855,9.412,8.787,16.813,18.42,16.813c6.518,0,12.625-3.49,15.941-9.108
		C327.896,319.565,327.332,317.381,325.639,316.381z"/>
	<path display="inline" fill="#FFFFFF" d="M293.602,216.114c0.688,1.019,1.813,1.567,2.955,1.567c0.688,0,1.381-0.198,1.992-0.611
		c1.631-1.102,2.059-3.317,0.956-4.947l-3.278-4.851c22.68,8.273,39.563,28.509,43.193,52.818c0.264,1.768,1.784,3.037,3.52,3.037
		c0.176,0,0.354-0.014,0.531-0.039c1.946-0.291,3.288-2.104,2.997-4.051c-4.039-27.043-22.894-49.533-48.188-58.602l3.992-1.765
		c1.799-0.796,2.612-2.9,1.816-4.701c-0.795-1.8-2.898-2.613-4.699-1.818l-13.027,5.761c-0.967,0.427-1.692,1.26-1.983,2.274
		c-0.292,1.014-0.119,2.105,0.472,2.98L293.602,216.114z"/>
	<path display="inline" fill="#FFFFFF" d="M252.621,323.386c-1.102-1.631-3.317-2.059-4.948-0.957
		c-1.63,1.104-2.059,3.318-0.957,4.948l3.279,4.851c-22.68-8.272-39.562-28.509-43.193-52.818c-0.291-1.946-2.106-3.288-4.051-2.998
		c-1.946,0.291-3.288,2.104-2.998,4.052c4.04,27.044,22.894,49.533,48.188,58.604l-3.991,1.765c-1.8,0.796-2.613,2.9-1.818,4.7
		c0.589,1.332,1.894,2.123,3.261,2.123c0.481,0,0.971-0.099,1.439-0.306l13.025-5.761c0.967-0.427,1.692-1.26,1.983-2.272
		c0.292-1.017,0.119-2.106-0.473-2.981L252.621,323.386z"/>
</g>
<g display="none">
	<path display="inline" fill="#FFFFFF" d="M317.641,275.066c0,1.975,1.602,3.576,3.575,3.576c1.976,0,3.577-1.603,3.577-3.576
		c0-7.455-5.208-13.713-12.177-15.338v-2.48c0-1.975-1.601-3.577-3.576-3.577s-3.577,1.602-3.577,3.577v2.48
		c-6.967,1.625-12.175,7.883-12.175,15.338s5.208,13.713,12.175,15.336v16.832c-2.96-1.359-5.021-4.353-5.021-7.816
		c0-1.977-1.602-3.576-3.577-3.576s-3.575,1.6-3.575,3.576c0,7.455,5.208,13.713,12.175,15.338v2.479
		c0,1.975,1.603,3.575,3.577,3.575s3.576-1.602,3.576-3.575v-2.479c6.969-1.625,12.177-7.883,12.177-15.338
		s-5.208-13.715-12.177-15.338v-16.832C315.577,268.609,317.641,271.6,317.641,275.066z M300.439,275.066
		c0-3.467,2.063-6.457,5.022-7.818v15.635C302.503,281.521,300.439,278.531,300.439,275.066z M317.641,299.418
		c0,3.467-2.063,6.457-5.023,7.816v-15.633C315.577,292.961,317.641,295.951,317.641,299.418z"/>
	<path display="inline" fill="#FFFFFF" d="M311.891,234.528v-36.486c0-2.962-2.4-5.365-5.363-5.365h-94.514
		c-2.963,0-5.365,2.403-5.365,5.365v136.626c0,2.963,2.402,5.365,5.365,5.365h94.514c0.207,0,0.414-0.017,0.615-0.039
		c0.631,0.022,1.262,0.039,1.898,0.039c29.107,0,52.791-23.683,52.791-52.791C361.832,259.088,339.682,236.014,311.891,234.528z
		 M256.28,285.516h-38.903v-15.584h41.791C257.458,274.84,256.456,280.074,256.28,285.516z M217.377,292.67h39.148
		c0.563,5.486,1.973,10.725,4.091,15.586h-43.239V292.67z M262.27,262.777h-44.892v-15.584h57.306
		C269.624,251.54,265.396,256.826,262.27,262.777z M285.418,240.04h-68.041v-15.585h83.785v10.584
		C295.582,235.876,290.287,237.593,285.418,240.04z M301.162,203.407v13.895h-83.785v-13.895H301.162z M217.377,329.303v-13.895
		h47.034c3.396,5.358,7.728,10.067,12.766,13.895H217.377z M309.04,329.303c-23.192,0-42.062-18.869-42.062-42.061
		c0-23.193,18.867-42.063,42.062-42.063c23.192,0,42.062,18.869,42.062,42.063C351.102,310.434,332.232,329.303,309.04,329.303z"/>
</g>
<g>
	<path fill="#FFFFFF" d="M334.811,195.092H212.472c-8.186,0-14.844,6.659-14.844,14.845v25.494c0,8.186,6.658,14.844,14.844,14.844
		h4.827v92.694c0,2.876,2.332,5.208,5.208,5.208h102.267c2.879,0,5.209-2.332,5.209-5.208v-92.694h4.828
		c8.183,0,14.842-6.658,14.842-14.844v-25.494C349.652,201.751,342.995,195.092,334.811,195.092z M227.716,226.156h91.851v93.891
		c-8.799,1.986-15.739,8.918-17.736,17.713h-56.379c-1.997-8.793-8.936-15.727-17.735-17.713V226.156L227.716,226.156z
		 M227.716,327.243c4.961,1.638,8.89,5.56,10.537,10.517h-10.537V327.243z M309.029,337.76c1.647-4.957,5.574-8.879,10.537-10.517
		v10.517H309.029z M339.236,235.431c0,2.442-1.984,4.428-4.426,4.428h-8.393v-13.703h5.555c1.918,0,3.473-1.555,3.473-3.473
		c0-1.917-1.555-3.471-3.473-3.471H215.309c-1.917,0-3.472,1.554-3.472,3.471c0,1.918,1.555,3.473,3.472,3.473h5.555v13.703h-8.391
		c-2.441,0-4.428-1.986-4.428-4.428v-25.494c0-2.441,1.986-4.428,4.428-4.428h122.337c2.44,0,4.426,1.986,4.426,4.428V235.431
		L339.236,235.431z"/>
	<path fill="#FFFFFF" d="M266.836,272.346c4.666,0,8.602-3.182,9.751-7.49h9.353c-0.865,1.369-2.39,2.281-4.127,2.281
		c-1.437,0-2.604,1.166-2.604,2.604c0,1.437,1.167,2.604,2.604,2.604c4.668,0,8.602-3.182,9.752-7.49h1.209
		c1.439,0,2.604-1.166,2.604-2.604s-1.163-2.604-2.604-2.604h-1.209c-1.15-4.308-5.084-7.49-9.752-7.49
		c-4.662,0-8.598,3.183-9.748,7.49h-9.354c0.867-1.369,2.391-2.281,4.125-2.281c1.438,0,2.604-1.167,2.604-2.603
		c0-1.439-1.166-2.605-2.604-2.605c-4.666,0-8.598,3.183-9.751,7.489h-1.208c-1.44,0-2.606,1.168-2.606,2.604
		s1.166,2.604,2.606,2.604h1.208C258.238,269.164,262.17,272.346,266.836,272.346z M266.836,267.137
		c-1.734,0-3.258-0.912-4.125-2.281h8.25C270.096,266.225,268.572,267.137,266.836,267.137z M281.813,257.366
		c1.737,0,3.262,0.911,4.127,2.282h-8.25C278.557,258.277,280.078,257.366,281.813,257.366z"/>
	<path fill="#FFFFFF" d="M274.324,294.285c17.665,0,32.033-14.37,32.033-32.033c0-17.665-14.368-32.035-32.033-32.035
		c-17.663,0-32.035,14.37-32.035,32.035C242.289,279.915,256.661,294.285,274.324,294.285z M274.324,237.161
		c13.834,0,25.09,11.255,25.09,25.091s-11.256,25.089-25.09,25.089s-25.091-11.253-25.091-25.089
		C249.233,248.417,260.49,237.161,274.324,237.161z"/>
</g>
</svg>
