<?xml version="1.0" encoding="utf-8"?>
<!-- Generator: Adobe Illustrator 16.0.2, SVG Export Plug-In . SVG Version: 6.00 Build 0)  -->
<!DOCTYPE svg PUBLIC "-//W3C//DTD SVG 1.1//EN" "http://www.w3.org/Graphics/SVG/1.1/DTD/svg11.dtd">
<svg version="1.1" id="Layer_1" xmlns="http://www.w3.org/2000/svg" xmlns:xlink="http://www.w3.org/1999/xlink" x="0px" y="0px"
	 width="849.999px" height="431.181px" viewBox="165.012 324.663 849.999 431.181"
	 enable-background="new 165.012 324.663 849.999 431.181" xml:space="preserve">
<g>
	<g>
		<g>
			<defs>
				<path id="SVGID_1_" d="M634.704,494.708c-26.563,0-48.164-21.55-48.164-48.041c0-26.488,21.604-48.041,48.164-48.041
					c26.557,0,48.162,21.553,48.162,48.041C682.866,473.158,661.26,494.708,634.704,494.708L634.704,494.708z M634.704,410.473
					c-20.01,0-36.289,16.237-36.289,36.194c0,19.959,16.279,36.197,36.289,36.197c20.008,0,36.287-16.237,36.287-36.197
					C670.991,426.71,654.711,410.473,634.704,410.473L634.704,410.473z M634.704,467.907c-11.742,0-21.295-9.526-21.295-21.24
					c0-11.711,9.553-21.238,21.295-21.238c11.74,0,21.293,9.527,21.293,21.238C655.997,458.381,646.444,467.907,634.704,467.907
					L634.704,467.907z M634.704,437.274c-5.193,0-9.42,4.214-9.42,9.394s4.227,9.394,9.42,9.394c5.188,0,9.416-4.214,9.416-9.394
					S639.893,437.274,634.704,437.274L634.704,437.274z M716.036,568.672h-5.75v17.918c0,3.271-2.658,5.924-5.939,5.924h-41.17
					c-3.279,0-5.938-2.652-5.938-5.924v-17.918H493.348v17.918c0,3.271-2.656,5.924-5.938,5.924h-41.17
					c-3.281,0-5.938-2.652-5.938-5.924v-17.918h-5.752c-13.741,0-24.92-11.15-24.92-24.855V349.519
					c0-13.704,11.18-24.856,24.92-24.856h281.486c13.742,0,24.922,11.152,24.922,24.856v194.298
					C740.958,557.522,729.778,568.672,716.036,568.672L716.036,568.672z M669.116,580.668h29.293v-11.996h-29.293V580.668
					L669.116,580.668z M452.178,580.668h29.293v-11.996h-29.293V580.668L452.178,580.668z M729.083,349.519
					c0-7.172-5.854-13.009-13.047-13.009H434.55c-7.192,0-13.044,5.837-13.044,13.009v194.298c0,7.172,5.854,13.009,13.044,13.009
					h281.486c7.193,0,13.047-5.837,13.047-13.009V349.519L729.083,349.519z M706.516,540.244H444.07
					c-3.278,0-5.938-2.653-5.938-5.925V359.016c0-3.271,2.66-5.922,5.938-5.922h262.446c3.279,0,5.938,2.651,5.938,5.922v175.303
					C712.454,537.59,709.795,540.244,706.516,540.244L706.516,540.244z M700.577,364.938H450.008v56.544h36.729l14.932-14.893
					c-0.885-1.968-1.386-4.141-1.386-6.431c0-8.708,7.104-15.793,15.833-15.793c8.73,0,15.835,7.085,15.835,15.793
					c0,8.709-7.104,15.794-15.835,15.794c-2.083,0-4.067-0.414-5.891-1.145l-16.831,16.785c-1.111,1.11-2.623,1.736-4.197,1.736
					h-39.188v11.648h94.884c2.354-5.781,8.037-9.871,14.669-9.871c8.731,0,15.834,7.085,15.834,15.794
					c0,8.708-7.104,15.794-15.834,15.794c-6.632,0-12.314-4.09-14.669-9.872h-94.884v11.648h57.496c1.575,0,3.085,0.625,4.198,1.736
					l16.828,16.784c1.822-0.733,3.81-1.147,5.892-1.147c8.731,0,15.835,7.085,15.835,15.793c0,8.711-7.104,15.796-15.835,15.796
					c-8.73,0-15.835-7.085-15.835-15.796c0-2.289,0.503-4.462,1.386-6.43l-14.929-14.891h-55.037v48.079h250.568V364.938H700.577z
					 M512.158,400.162c0,2.177,1.773,3.947,3.957,3.947s3.958-1.77,3.958-3.947c0-2.177-1.774-3.949-3.958-3.949
					S512.158,397.985,512.158,400.162L512.158,400.162z M555.604,450.9c0,2.177,1.774,3.949,3.958,3.949
					c2.183,0,3.958-1.772,3.958-3.949c0-2.178-1.776-3.947-3.958-3.947C557.378,446.953,555.604,448.723,555.604,450.9
					L555.604,450.9z M530.464,501.64c0,2.178,1.777,3.947,3.958,3.947c2.185,0,3.959-1.771,3.959-3.947
					c0-2.178-1.775-3.949-3.959-3.949C532.241,497.69,530.464,499.462,530.464,501.64L530.464,501.64z"/>
			</defs>
			<clipPath id="SVGID_2_">
				<use xlink:href="#SVGID_1_"  overflow="visible"/>
			</clipPath>
			<g transform="matrix(1 0 0 1 -1.525879e-005 0)" clip-path="url(#SVGID_2_)">
				
					<image overflow="visible" enable-background="new    " width="1921" height="1081" xlink:href="8BE824DA.jpeg"  transform="matrix(0.7737 0 0 0.7734 -176.3896 138.0977)">
				</image>
			</g>
		</g>
	</g>
	<g>
		<g>
			<defs>
				<path id="SVGID_3_" d="M233.719,727.528v-52.1l-18.895,37.879h-10.796l-18.896-37.879v52.1h-20.12v-87.035h21.837l22.576,45.479
					l22.698-45.479h21.716v87.035H233.719L233.719,727.528z M328.498,708.096c-1.515,4.045-3.743,7.602-6.688,10.664
					c-2.944,3.064-6.563,5.5-10.857,7.295c-4.294,1.797-9.183,2.697-14.661,2.697c-5.48,0-10.368-0.9-14.663-2.697
					c-4.294-1.795-7.913-4.229-10.858-7.295c-2.945-3.063-5.175-6.619-6.686-10.664c-1.515-4.045-2.271-8.273-2.271-12.688
					c0-4.412,0.756-8.643,2.271-12.688c1.511-4.045,3.741-7.6,6.686-10.664c2.945-3.066,6.563-5.518,10.858-7.355
					s9.182-2.76,14.663-2.76c5.479,0,10.345,0.92,14.601,2.76c4.251,1.838,7.852,4.289,10.796,7.355
					c2.944,3.064,5.193,6.619,6.747,10.664c1.555,4.045,2.331,8.273,2.331,12.688C330.767,699.823,330.01,704.051,328.498,708.096
					L328.498,708.096z M306.474,683.213c-2.698-3.064-6.095-4.6-10.182-4.6c-2.046,0-3.947,0.412-5.706,1.229
					s-3.271,1.961-4.54,3.434c-1.269,1.469-2.27,3.248-3.005,5.33c-0.736,2.086-1.104,4.352-1.104,6.803
					c0,5.068,1.35,9.135,4.048,12.199c2.699,3.063,6.134,4.598,10.306,4.598c2.044,0,3.924-0.41,5.644-1.229
					c1.718-0.816,3.209-1.961,4.479-3.434c1.267-1.469,2.269-3.248,3.004-5.33c0.736-2.086,1.104-4.352,1.104-6.805
					C310.521,690.344,309.173,686.278,306.474,683.213L306.474,683.213z M380.456,727.528v-36.162c0-4.25-0.798-7.334-2.394-9.256
					c-1.596-1.92-3.701-2.881-6.319-2.881c-1.392,0-2.779,0.287-4.17,0.857c-1.392,0.572-2.741,1.369-4.05,2.391
					c-1.31,1.023-2.476,2.229-3.496,3.615c-1.022,1.393-1.821,2.902-2.394,4.537v36.896h-19.631V663.17h17.667v10.787
					c2.373-3.84,5.725-6.803,10.06-8.889c4.336-2.082,9.325-3.127,14.97-3.127c4.173,0,7.523,0.76,10.062,2.27
					c2.534,1.514,4.497,3.475,5.888,5.883c1.392,2.412,2.312,5.049,2.762,7.908c0.449,2.861,0.676,5.639,0.676,8.336v41.189H380.456
					L380.456,727.528z M475.662,698.536c-0.081,1.104-0.205,2.063-0.368,2.881H427.69c0.326,4.334,1.902,7.621,4.725,9.869
					c2.823,2.248,6.032,3.371,9.632,3.371c2.862,0,5.621-0.695,8.281-2.084c2.658-1.389,4.437-3.27,5.336-5.641l16.688,4.658
					c-2.537,5.07-6.462,9.193-11.779,12.383c-5.317,3.188-11.697,4.779-19.14,4.779c-5.399,0-10.247-0.879-14.539-2.635
					c-4.294-1.756-7.936-4.148-10.92-7.174c-2.985-3.021-5.258-6.516-6.81-10.48c-1.554-3.961-2.331-8.107-2.331-12.439
					c0-4.658,0.777-9.053,2.331-13.18c1.552-4.127,3.803-7.742,6.748-10.848c2.945-3.107,6.563-5.557,10.857-7.355
					c4.294-1.799,9.183-2.697,14.663-2.697c5.479,0,10.346,0.898,14.602,2.697c4.25,1.799,7.851,4.229,10.795,7.293
					c2.945,3.064,5.173,6.6,6.688,10.605c1.511,4.004,2.27,8.211,2.27,12.625C475.786,696.309,475.745,697.432,475.662,698.536
					L475.662,698.536z M450.633,679.596c-2.536-2.371-5.685-3.555-9.446-3.555c-3.846,0-7.014,1.205-9.508,3.617
					c-2.497,2.408-3.946,5.617-4.356,9.621h27.729C454.641,685.196,453.169,681.965,450.633,679.596L450.633,679.596z
					 M516.027,737.946c-1.718,5.313-4.784,9.623-9.201,12.934c-4.416,3.313-9.653,4.965-15.704,4.965
					c-1.637,0-3.294-0.143-4.97-0.428c-1.676-0.287-3.373-0.756-5.093-1.41v-16.797c1.638,0.572,3.17,0.982,4.604,1.229
					c1.43,0.242,2.717,0.367,3.865,0.367c2.369,0,4.211-0.816,5.519-2.453c1.309-1.635,2.495-4.576,3.559-8.824l-24.538-64.357
					h20.243l14.97,47.564l12.883-47.564h18.403L516.027,737.946L516.027,737.946z M593.135,671.198
					c1.514,0.779,3.418,1.492,5.707,2.146s4.947,1.391,7.975,2.207c4.172,1.145,7.934,2.393,11.287,3.74s6.197,3.021,8.527,5.025
					c2.332,2.002,4.129,4.434,5.398,7.291c1.268,2.861,1.898,6.295,1.898,10.301c0,4.9-0.918,9.051-2.758,12.439
					c-1.842,3.393-4.275,6.131-7.301,8.213c-3.025,2.086-6.502,3.6-10.43,4.535c-3.926,0.941-7.975,1.412-12.146,1.412
					c-3.188,0-6.461-0.246-9.814-0.736s-6.625-1.205-9.813-2.146c-3.191-0.938-6.279-2.063-9.266-3.369s-5.747-2.818-8.281-4.537
					l8.833-17.529c0.326,0.41,1.391,1.188,3.189,2.33c1.801,1.146,4.027,2.289,6.688,3.434c2.656,1.145,5.621,2.168,8.895,3.063
					c3.27,0.9,6.582,1.35,9.939,1.35c7.115,0,10.674-2.164,10.674-6.496c0-1.635-0.533-2.984-1.594-4.045
					c-1.064-1.061-2.537-2.023-4.418-2.881s-4.109-1.656-6.688-2.393c-2.578-0.734-5.381-1.551-8.404-2.451
					c-4.008-1.225-7.482-2.553-10.43-3.982c-2.943-1.432-5.379-3.086-7.299-4.967c-1.924-1.877-3.355-4.043-4.295-6.496
					c-0.941-2.449-1.41-5.311-1.41-8.578c0-4.578,0.857-8.623,2.576-12.137c1.717-3.514,4.049-6.479,6.992-8.889
					s6.359-4.229,10.246-5.455c3.883-1.227,7.992-1.84,12.328-1.84c3.025,0,6.012,0.287,8.957,0.857
					c2.945,0.572,5.768,1.309,8.467,2.207c2.699,0.9,5.213,1.922,7.545,3.063c2.332,1.146,4.479,2.291,6.441,3.436l-8.836,16.672
					c-0.244-0.328-1.104-0.939-2.576-1.84c-1.471-0.896-3.311-1.84-5.52-2.818c-2.209-0.982-4.623-1.84-7.24-2.576
					c-2.617-0.734-5.232-1.104-7.85-1.104c-7.201,0-10.799,2.412-10.799,7.232c0,1.473,0.389,2.697,1.166,3.678
					C590.475,669.543,591.624,670.424,593.135,671.198L593.135,671.198z M666.2,709.446c1.061,0.939,2.41,1.408,4.047,1.408
					c1.475,0,2.982-0.244,4.541-0.734c1.553-0.49,2.898-1.021,4.049-1.592l3.803,15.566c-2.699,1.146-5.787,2.207-9.264,3.188
					c-3.479,0.98-6.975,1.471-10.49,1.471c-2.451,0-4.766-0.305-6.93-0.918c-2.168-0.613-4.072-1.594-5.707-2.941
					c-1.637-1.35-2.924-3.127-3.863-5.334c-0.941-2.207-1.414-4.861-1.414-7.969v-33.586h-8.217V663.17h8.217v-20.473h19.633v20.473
					h13.129v14.832h-13.129v26.846C664.604,706.973,665.135,708.506,666.2,709.446L666.2,709.446z M749.079,708.096
					c-1.518,4.045-3.742,7.602-6.689,10.664c-2.945,3.064-6.563,5.5-10.855,7.295c-4.297,1.797-9.184,2.697-14.66,2.697
					c-5.484,0-10.369-0.9-14.664-2.697c-4.295-1.795-7.914-4.229-10.857-7.295c-2.945-3.063-5.176-6.619-6.688-10.664
					c-1.514-4.045-2.27-8.273-2.27-12.688c0-4.412,0.756-8.643,2.27-12.688s3.742-7.6,6.688-10.664
					c2.943-3.066,6.563-5.518,10.857-7.355c4.295-1.84,9.18-2.76,14.664-2.76c5.477,0,10.344,0.92,14.598,2.76
					c4.252,1.838,7.854,4.289,10.797,7.355c2.945,3.064,5.193,6.619,6.748,10.664c1.553,4.045,2.332,8.273,2.332,12.688
					S750.59,704.051,749.079,708.096L749.079,708.096z M727.055,683.213c-2.699-3.064-6.096-4.6-10.182-4.6
					c-2.049,0-3.949,0.412-5.707,1.229c-1.762,0.816-3.275,1.961-4.541,3.434c-1.27,1.469-2.27,3.248-3.006,5.33
					c-0.734,2.086-1.105,4.352-1.105,6.803c0,5.068,1.35,9.135,4.053,12.199c2.697,3.063,6.133,4.598,10.307,4.598
					c2.041,0,3.924-0.41,5.641-1.229c1.721-0.816,3.209-1.961,4.48-3.434c1.268-1.469,2.27-3.248,3.006-5.33
					c0.736-2.086,1.104-4.352,1.104-6.805C731.102,690.344,729.752,686.278,727.055,683.213L727.055,683.213z M786.557,682.293
					c-3.846,1.471-6.625,3.678-8.342,6.617v38.615h-19.631V663.17h18.033v12.994c2.211-4.332,5.053-7.723,8.529-10.176
					c3.475-2.451,7.176-3.719,11.104-3.801c0.898,0,1.555,0,1.963,0s0.816,0.041,1.229,0.121v17.654
					C794.696,680.047,790.401,680.823,786.557,682.293L786.557,682.293z M861.522,728.325c-1.391,0.123-2.656,0.186-3.805,0.186
					c-3.68,0-6.461-0.719-8.34-2.148c-1.885-1.428-3.068-3.449-3.561-6.066l-0.367-2.941c-2.865,3.678-6.279,6.496-10.244,8.457
					c-3.969,1.965-8.16,2.943-12.576,2.943c-3.189,0-6.156-0.512-8.895-1.531c-2.74-1.021-5.092-2.453-7.055-4.293
					c-1.963-1.836-3.52-4.002-4.662-6.496c-1.146-2.492-1.717-5.209-1.717-8.152c0-3.186,0.672-6.084,2.021-8.703
					c1.35-2.613,3.252-4.859,5.707-6.74c2.453-1.881,5.355-3.35,8.711-4.414c3.352-1.061,7.072-1.594,11.162-1.594
					c2.703,0,5.316,0.227,7.854,0.674c2.535,0.451,4.744,1.125,6.625,2.023v-2.941c0-7.436-4.293-11.156-12.881-11.156
					c-3.52,0-6.871,0.594-10.061,1.777c-3.193,1.188-6.547,2.963-10.063,5.334l-5.768-12.26c4.252-2.777,8.67-4.861,13.25-6.252
					c4.58-1.389,9.449-2.084,14.602-2.084c9.734,0,17.258,2.289,22.576,6.865c5.314,4.576,7.975,11.277,7.975,20.104v16.549
					c0,1.961,0.307,3.332,0.92,4.107s1.695,1.248,3.25,1.408v16.551C864.465,727.934,862.913,728.202,861.522,728.325
					L861.522,728.325z M842.381,699.823c-1.715-0.652-3.578-1.162-5.58-1.531c-2.008-0.367-3.863-0.551-5.586-0.551
					c-3.6,0-6.563,0.814-8.893,2.449c-2.332,1.637-3.498,3.762-3.498,6.377c0,2.369,0.898,4.311,2.699,5.82
					c1.799,1.514,4.09,2.27,6.873,2.27c2.125,0,4.189-0.369,6.193-1.105c2.002-0.734,3.66-1.713,4.969-2.939
					c1.881-1.471,2.822-3.021,2.822-4.658V699.823L842.381,699.823z M936.059,736.352c-1.842,3.922-4.398,7.254-7.672,9.992
					c-3.27,2.736-7.195,4.842-11.775,6.313c-4.582,1.471-9.611,2.207-15.094,2.207c-6.951,0-12.881-1.104-17.789-3.311
					s-9.201-5.395-12.885-9.563l10.555-10.664c2.369,2.697,5.314,4.842,8.832,6.436c3.518,1.596,7.281,2.391,11.289,2.391
					c2.371,0,4.619-0.326,6.748-0.979c2.125-0.656,4.004-1.656,5.645-3.006c1.635-1.346,2.922-3.104,3.865-5.27
					c0.938-2.166,1.41-4.76,1.41-7.783v-6.252c-1.967,3.598-4.785,6.313-8.467,8.152c-3.682,1.838-7.646,2.758-11.9,2.758
					s-8.141-0.859-11.656-2.574c-3.518-1.717-6.521-4.045-9.016-6.988c-2.498-2.941-4.441-6.373-5.828-10.297
					c-1.395-3.922-2.088-8.129-2.088-12.627c0-4.738,0.738-9.131,2.209-13.178c1.473-4.045,3.516-7.559,6.133-10.543
					c2.619-2.98,5.77-5.33,9.451-7.049c3.68-1.715,7.727-2.574,12.143-2.574c4.908,0,9.184,1.045,12.822,3.127
					c3.639,2.086,6.563,4.967,8.771,8.643V663.17h17.055v59.943C938.817,728.016,937.897,732.43,936.059,736.352L936.059,736.352z
					 M919.188,689.77c-1.311-3.432-3.314-6.148-6.014-8.15s-5.563-3.004-8.586-3.004c-2.129,0-4.072,0.471-5.828,1.412
					c-1.762,0.939-3.273,2.203-4.541,3.799c-1.27,1.594-2.25,3.434-2.945,5.516s-1.043,4.23-1.043,6.436
					c0,2.373,0.389,4.559,1.164,6.559c0.777,2.006,1.861,3.74,3.256,5.209c1.389,1.473,3.004,2.617,4.846,3.434
					c1.838,0.818,3.865,1.229,6.07,1.229c3.025,0,5.725-0.838,8.1-2.514c2.371-1.676,4.211-3.82,5.521-6.438V689.77L919.188,689.77z
					 M1014.885,698.536c-0.082,1.104-0.205,2.063-0.367,2.881h-47.604c0.324,4.334,1.902,7.621,4.723,9.869
					c2.824,2.248,6.031,3.371,9.631,3.371c2.863,0,5.623-0.695,8.281-2.084s4.439-3.27,5.34-5.641l16.686,4.658
					c-2.535,5.07-6.463,9.193-11.779,12.383c-5.316,3.188-11.697,4.779-19.139,4.779c-5.398,0-10.244-0.879-14.539-2.635
					c-4.293-1.756-7.938-4.148-10.918-7.174c-2.988-3.021-5.26-6.516-6.813-10.48c-1.553-3.961-2.33-8.107-2.33-12.439
					c0-4.658,0.777-9.053,2.33-13.18s3.805-7.742,6.748-10.848c2.945-3.107,6.563-5.557,10.857-7.355s9.184-2.697,14.662-2.697
					s10.348,0.898,14.602,2.697c4.25,1.799,7.852,4.229,10.795,7.293c2.945,3.064,5.174,6.6,6.689,10.605
					c1.514,4.004,2.27,8.211,2.27,12.625C1015.008,696.309,1014.967,697.432,1014.885,698.536L1014.885,698.536z M989.858,679.596
					c-2.539-2.371-5.689-3.555-9.449-3.555c-3.846,0-7.014,1.205-9.508,3.617c-2.496,2.408-3.949,5.617-4.355,9.621h27.73
					C993.864,685.196,992.391,681.965,989.858,679.596L989.858,679.596z"/>
			</defs>
			<clipPath id="SVGID_4_">
				<use xlink:href="#SVGID_3_"  overflow="visible"/>
			</clipPath>
			<g transform="matrix(1 0 0 1 -1.525879e-005 0)" clip-path="url(#SVGID_4_)">
				
					<image overflow="visible" enable-background="new    " width="1921" height="1081" xlink:href="8BE824DE.jpeg"  transform="matrix(0.7737 0 0 0.7734 -176.3896 138.0977)">
				</image>
			</g>
		</g>
	</g>
</g>
</svg>
