<?xml version="1.0" encoding="utf-8"?>
<!-- Generator: Adobe Illustrator 16.0.0, SVG Export Plug-In . SVG Version: 6.00 Build 0)  -->
<!DOCTYPE svg PUBLIC "-//W3C//DTD SVG 1.1//EN" "http://www.w3.org/Graphics/SVG/1.1/DTD/svg11.dtd">
<svg version="1.1" id="Layer_1" xmlns="http://www.w3.org/2000/svg" xmlns:xlink="http://www.w3.org/1999/xlink" x="0px" y="0px"
	 width="500px" height="500px" viewBox="0 0 500 500" enable-background="new 0 0 500 500" xml:space="preserve">
<g>
	<path fill="#E80000" d="M262.825,360.894H142.41c8.261-9.557,15.694-19.016,22.081-27.326l100.616-130.737
		c0.706-0.913,1.078-2.026,1.078-3.174v-25.5c0-2.88-2.34-5.21-5.215-5.21H89.883c-2.88,0-5.206,2.33-5.206,5.21v32.452
		c0,2.88,2.326,5.21,5.206,5.21h111.29c-7.491,8.683-14.502,17.166-23.151,27.777L76.49,371.73
		c-0.692,0.918-1.075,2.031-1.075,3.186v23.646c0,2.879,2.326,5.205,5.205,5.205h182.209c2.881,0,5.215-2.326,5.215-5.205v-32.469
		C268.034,363.219,265.704,360.894,262.825,360.894z"/>
	<path fill="#E80000" d="M402.304,157.805l-34.822,26.065V69.376c0-2.875-2.324-5.21-5.205-5.21H321.47
		c-2.87,0-5.195,2.33-5.195,5.21v152.863l-56.59,42.378c-6.152,4.605-7.408,13.344-2.796,19.5c2.742,3.645,6.927,5.572,11.161,5.572
		c2.904,0,5.828-0.906,8.345-2.785l39.88-29.857v141.51c0,2.881,2.325,5.211,5.195,5.211h40.807c2.881,0,5.205-2.33,5.205-5.211
		V218.677l51.518-38.585c6.166-4.611,7.418-13.344,2.801-19.491C417.189,154.454,408.466,153.203,402.304,157.805z"/>
</g>
</svg>
