<?xml version="1.0" encoding="utf-8"?>
<!-- Generator: Adobe Illustrator 16.0.2, SVG Export Plug-In . SVG Version: 6.00 Build 0)  -->
<!DOCTYPE svg PUBLIC "-//W3C//DTD SVG 1.1//EN" "http://www.w3.org/Graphics/SVG/1.1/DTD/svg11.dtd">
<svg version="1.1" id="historyIcon1" xmlns="http://www.w3.org/2000/svg" xmlns:xlink="http://www.w3.org/1999/xlink" x="0px"
	 y="0px" width="349px" height="349px" viewBox="103.615 91.854 349 349" enable-background="new 103.615 91.854 349 349"
	 xml:space="preserve">
<circle fill="#BF0000" cx="278.115" cy="266.354" r="174.5"/>
<g>
	<g>
		<path fill="#FFFFFF" d="M370.059,268.355c0-24.606-9.555-47.768-26.965-65.178s-40.569-27.005-65.177-27.005
			c-24.606,0-47.767,9.595-65.177,27.005c-17.411,17.411-27.006,40.57-27.006,65.178v1.033l-8.188-8.188
			c-1.942-1.943-5.087-1.943-7.03,0c-1.943,1.942-1.943,5.087,0,7.03l16.666,16.666c1.943,1.943,5.088,1.943,7.031,0l16.625-16.666
			c1.943-1.943,1.943-5.088,0-7.03c-0.992-0.951-2.234-1.447-3.516-1.447c-1.282,0-2.564,0.496-3.516,1.447l-8.188,8.188v-1.033
			c0-45.369,36.89-82.258,82.257-82.258c45.368,0,82.257,36.891,82.257,82.258s-36.889,82.258-82.257,82.217
			c-22.373,0-43.258-8.811-58.891-24.813c-1.943-1.942-5.086-1.983-7.03-0.083c-1.944,1.943-1.985,5.088-0.083,7.031
			c17.494,17.947,40.941,27.832,66.004,27.832c24.607,0,47.768-9.596,65.177-27.006
			C360.463,316.123,370.059,292.963,370.059,268.355z"/>
		<path fill="#FFFFFF" d="M251.625,301.896l60.958-60.918c1.942-1.944,1.942-5.088,0-7.031c-0.951-0.951-2.233-1.447-3.515-1.447
			c-1.283,0-2.523,0.496-3.518,1.447l-60.959,60.96c-1.943,1.944-1.943,5.087,0,7.028
			C246.538,303.84,249.682,303.84,251.625,301.896z"/>
		<path fill="#FFFFFF" d="M267.588,260.87c6.906-6.906,6.906-18.196,0-25.103c-3.352-3.352-7.816-5.211-12.572-5.211
			s-9.222,1.859-12.572,5.211c-6.905,6.905-6.905,18.195,0,25.103c3.352,3.351,7.816,5.211,12.572,5.211
			S264.195,264.221,267.588,260.87z M249.475,242.757c1.488-1.489,3.433-2.274,5.541-2.274s4.053,0.828,5.543,2.274
			c3.06,3.062,3.06,8.022,0,11.083c-1.49,1.489-3.436,2.273-5.543,2.273c-2.108,0-4.053-0.826-5.541-2.273
			C246.414,250.779,246.414,245.816,249.475,242.757z"/>
		<path fill="#FFFFFF" d="M300.838,306.32c4.756,0,9.223-1.859,12.572-5.211c3.349-3.351,5.211-7.814,5.211-12.57
			s-1.861-9.225-5.211-12.574c-3.351-3.349-7.816-5.211-12.572-5.211s-9.223,1.861-12.572,5.211
			c-3.35,3.352-5.211,7.818-5.211,12.574s1.861,9.222,5.211,12.57C291.656,304.461,296.082,306.32,300.838,306.32z M295.297,282.997
			c1.488-1.489,3.432-2.274,5.541-2.274s4.053,0.826,5.542,2.274c1.488,1.489,2.274,3.433,2.274,5.541s-0.827,4.054-2.274,5.542
			c-1.489,1.488-3.433,2.273-5.542,2.273s-4.053-0.826-5.541-2.273c-1.488-1.488-2.275-3.434-2.275-5.542
			C293.021,286.471,293.809,284.486,295.297,282.997z"/>
	</g>
</g>
</svg>
