<?xml version="1.0" encoding="utf-8"?>
<!-- Generator: Adobe Illustrator 16.0.0, SVG Export Plug-In . SVG Version: 6.00 Build 0)  -->
<!DOCTYPE svg PUBLIC "-//W3C//DTD SVG 1.1//EN" "http://www.w3.org/Graphics/SVG/1.1/DTD/svg11.dtd">
<svg version="1.1" id="historyIcon1" xmlns="http://www.w3.org/2000/svg" xmlns:xlink="http://www.w3.org/1999/xlink" x="0px"
	 y="0px" width="349px" height="349px" viewBox="103.615 91.854 349 349" enable-background="new 103.615 91.854 349 349"
	 xml:space="preserve">
<circle fill="#BF0000" cx="278.115" cy="266.354" r="174.5"/>
<g>
	<path fill="#FFFFFF" d="M394.126,184.945c-8.793-8.792-23.097-8.791-31.89,0l-27.594,27.593H182.777
		c-3.898,0-7.059,3.16-7.059,7.059v106.335c0,3.898,3.16,7.06,7.059,7.06H348.15c3.898,0,7.06-3.16,7.06-7.06v-70.184l38.916-38.916
		C402.917,208.041,402.917,193.736,394.126,184.945z M378.182,187.752c3.51,0,6.809,1.366,9.289,3.848
		c4.889,4.889,5.107,12.702,0.662,17.858l-18.521-18.521C371.995,188.878,375.001,187.752,378.182,187.752z M335.232,259.6
		l-15.762-15.763l-1.406-1.407l44.863-44.866l18.578,18.578l-44.865,44.865L335.232,259.6z M314.986,252.663l2.383,2.382
		l-8.494,8.495c-1.838,1.838-1.838,4.817,0,6.655c0.919,0.919,2.123,1.379,3.327,1.379s2.407-0.46,3.327-1.379l8.494-8.495
		l2.383,2.383l-4.949,12.728l-27.373,8.176l8.176-27.373L314.986,252.663z M341.093,318.873H189.836v-92.218h130.689l-12.445,12.447
		c-1.719,1.717-1.828,4.432-0.336,6.28l-11.039,4.293c-1.354,0.526-2.389,1.648-2.805,3.039l-10.987,36.789l-4.698,4.697
		l-5.539-5.539c-1.838-1.837-4.816-1.837-6.654,0c-1.838,1.838-1.838,4.817,0,6.655l5.539,5.539l-5.539,5.538
		c-1.838,1.838-1.838,4.816,0,6.655c0.918,0.918,2.123,1.378,3.328,1.378c1.203,0,2.408-0.46,3.326-1.378l5.539-5.539l5.539,5.539
		c0.92,0.918,2.123,1.378,3.328,1.378c1.204,0,2.409-0.46,3.327-1.378c1.838-1.838,1.838-4.816,0-6.655l-5.538-5.538l4.697-4.697
		l36.789-10.989c1.391-0.416,2.513-1.45,3.039-2.803l4.293-11.039c0.858,0.692,1.904,1.041,2.953,1.041
		c1.205,0,2.407-0.46,3.326-1.378l1.124-1.124V318.873L341.093,318.873z"/>
	<path fill="#FFFFFF" d="M206.742,251.226h73.84c2.6,0,4.707-2.107,4.707-4.706s-2.107-4.706-4.707-4.706h-73.84
		c-2.599,0-4.706,2.107-4.706,4.706S204.143,251.226,206.742,251.226z"/>
	<path fill="#FFFFFF" d="M275.535,266.023c0-2.598-2.105-4.705-4.705-4.705h-64.088c-2.599,0-4.706,2.107-4.706,4.705
		c0,2.601,2.107,4.707,4.706,4.707h64.088C273.43,270.73,275.535,268.624,275.535,266.023z"/>
</g>
</svg>
