<?xml version="1.0" encoding="utf-8"?>
<!-- Generator: Adobe Illustrator 16.0.2, SVG Export Plug-In . SVG Version: 6.00 Build 0)  -->
<!DOCTYPE svg PUBLIC "-//W3C//DTD SVG 1.1//EN" "http://www.w3.org/Graphics/SVG/1.1/DTD/svg11.dtd">
<svg version="1.1" id="historyIcon1" xmlns="http://www.w3.org/2000/svg" xmlns:xlink="http://www.w3.org/1999/xlink" x="0px"
	 y="0px" width="349px" height="349px" viewBox="103.615 91.854 349 349" enable-background="new 103.615 91.854 349 349"
	 xml:space="preserve">
<circle fill="#BF0000" cx="278.115" cy="266.354" r="174.5"/>
<g>
	<path fill="#FFFFFF" d="M361.188,234.563l-37.013-37.014c-2.344-2.343-5.458-3.633-8.771-3.633s-6.429,1.29-8.771,3.633
		l-8.697,8.698c-1.337,1.338-2.29,2.913-2.891,4.587l-40.694-7.285c-0.004-0.001-0.007-0.001-0.01-0.002
		c-18.298-3.632-36.164,8.266-39.854,26.564l-1.877,9.313c-2.073,10.281,4.605,20.33,14.888,22.403
		c10.282,2.071,20.333-4.606,22.405-14.886l1.147-5.694l18.249,1.596l47.657,47.657l8.639,8.637c1.747,1.749,1.747,4.596,0,6.346
		c-1.748,1.746-4.595,1.748-6.345,0l-23.137-23.14c-1.611-1.61-4.227-1.61-5.838,0c-1.609,1.612-1.609,4.226,0,5.839l23.14,23.137
		c0.846,0.848,1.313,1.974,1.313,3.172c0,1.197-0.468,2.324-1.313,3.172c-1.751,1.75-4.596,1.748-6.346,0l-23.138-23.139
		c-1.609-1.609-4.225-1.609-5.836,0c-1.611,1.611-1.611,4.227,0,5.838l23.138,23.138c1.748,1.747,1.748,4.594,0,6.343
		c-0.847,0.85-1.974,1.314-3.17,1.314c-1.198,0-2.324-0.469-3.175-1.314l-23.137-23.138c-1.611-1.61-4.227-1.61-5.837,0
		c-1.61,1.612-1.61,4.225,0,5.837l23.14,23.137c1.748,1.749,1.748,4.598,0,6.344c-1.75,1.75-4.596,1.75-6.346,0l-81.863-81.86
		l-10.811-10.81c-1.612-1.611-4.225-1.611-5.836,0c-1.612,1.611-1.612,4.225,0,5.836l10.811,10.81l11.766,11.765l-6.486,6.485
		c-2.123,2.124-3.293,4.946-3.293,7.95c0,3.005,1.17,5.824,3.293,7.949l2.117,2.117c1.854,1.854,4.248,2.982,6.826,3.236
		c0.254,2.578,1.381,4.971,3.238,6.826l2.116,2.115c1.906,1.906,4.331,2.979,6.825,3.229c0.253,2.582,1.38,4.976,3.238,6.834
		l2.117,2.116c1.855,1.855,4.248,2.98,6.825,3.238c0.255,2.576,1.382,4.97,3.238,6.824l2.116,2.116
		c2.191,2.192,5.07,3.287,7.951,3.287c2.879,0,5.756-1.095,7.949-3.287l6.485-6.483l15.539,15.539
		c2.405,2.406,5.604,3.731,9.009,3.731c3.402,0,6.602-1.326,9.008-3.731c2.279-2.277,3.574-5.271,3.705-8.475
		c3.202-0.131,6.195-1.425,8.478-3.705c2.35-2.349,3.571-5.396,3.698-8.479c3.084-0.129,6.132-1.354,8.479-3.699
		c2.351-2.352,3.573-5.396,3.7-8.48c3.085-0.127,6.131-1.351,8.479-3.699c4.968-4.969,4.968-13.051,0-18.018l-5.722-5.72
		l20.927-20.925l14.551-14.549C366.023,247.27,366.023,239.398,361.188,234.563L361.188,234.563z M206.126,294.307
		c-1.166-1.166-1.166-3.063,0-4.228l6.082-6.081l6.344,6.344l-6.081,6.081c-1.166,1.166-3.063,1.165-4.229,0L206.126,294.307z
		 M218.307,306.486c-1.166-1.166-1.166-3.063,0-4.229l6.082-6.082l6.344,6.346l-6.08,6.08c-1.166,1.166-3.063,1.166-4.229,0
		L218.307,306.486z M230.486,318.668c-0.564-0.564-0.875-1.316-0.875-2.113c0-0.8,0.311-1.551,0.875-2.113l6.082-6.082l6.344,6.345
		l-6.082,6.081c-1.165,1.165-3.063,1.165-4.227,0L230.486,318.668L230.486,318.668z M249.012,332.964
		c-1.166,1.166-3.063,1.164-4.229,0l-2.116-2.116c-1.166-1.166-1.166-3.062,0-4.229l6.081-6.081l6.345,6.345L249.012,332.964z
		 M319.874,281.743l-45.804-45.8c-0.687-0.688-1.59-1.108-2.559-1.192l-23.421-2.048c-0.122-0.012-0.243-0.016-0.362-0.016
		c-1.945,0-3.651,1.371-4.043,3.312l-1.877,9.312c-1.174,5.82-6.859,9.6-12.685,8.426c-2.819-0.567-5.249-2.199-6.841-4.596
		c-1.592-2.396-2.155-5.268-1.586-8.088l1.877-9.31c2.797-13.873,16.352-22.886,30.23-20.086c0.028,0.005,0.057,0.012,0.088,0.017
		l40.102,7.18l4.938,4.938l39.948,39.946L319.874,281.743z M355.352,246.27L343.716,257.9l-39.948-39.946
		c-0.782-0.784-1.216-1.828-1.216-2.937c0-1.109,0.434-2.152,1.216-2.938l8.698-8.697c0.785-0.785,1.827-1.216,2.938-1.216
		c1.109,0,2.149,0.431,2.937,1.216l37.014,37.012c0.782,0.785,1.217,1.828,1.217,2.937S356.134,245.484,355.352,246.27z"/>
	<circle fill="#FFFFFF" cx="345.359" cy="244.973" r="4.127"/>
</g>
</svg>
