<?xml version="1.0" encoding="utf-8"?>
<!-- Generator: Adobe Illustrator 16.0.2, SVG Export Plug-In . SVG Version: 6.00 Build 0)  -->
<!DOCTYPE svg PUBLIC "-//W3C//DTD SVG 1.1//EN" "http://www.w3.org/Graphics/SVG/1.1/DTD/svg11.dtd">
<svg version="1.1" id="historyIcon1" xmlns="http://www.w3.org/2000/svg" xmlns:xlink="http://www.w3.org/1999/xlink" x="0px"
	 y="0px" width="349px" height="349px" viewBox="103.615 91.854 349 349" enable-background="new 103.615 91.854 349 349"
	 xml:space="preserve">
<circle fill="#BF0000" cx="278.115" cy="266.354" r="174.5"/>
<g>
	<path fill="#FFFFFF" d="M334.811,195.092H212.473c-8.187,0-14.845,6.659-14.845,14.846v25.494c0,8.186,6.658,14.844,14.845,14.844
		h4.826v92.693c0,2.877,2.332,5.208,5.208,5.208h102.268c2.879,0,5.209-2.331,5.209-5.208v-92.693h4.827
		c8.184,0,14.843-6.658,14.843-14.844v-25.494C349.652,201.751,342.995,195.092,334.811,195.092z M227.716,226.156h91.852v93.891
		c-8.8,1.986-15.739,8.918-17.736,17.713h-56.379c-1.997-8.793-8.937-15.727-17.735-17.713L227.716,226.156L227.716,226.156z
		 M227.716,327.243c4.961,1.638,8.89,5.56,10.537,10.517h-10.537V327.243z M309.029,337.76c1.646-4.957,5.573-8.879,10.537-10.517
		v10.517H309.029z M339.236,235.432c0,2.441-1.984,4.428-4.427,4.428h-8.393v-13.703h5.555c1.918,0,3.474-1.555,3.474-3.473
		s-1.556-3.472-3.474-3.472H215.309c-1.916,0-3.472,1.554-3.472,3.472s1.556,3.473,3.472,3.473h5.555v13.703h-8.391
		c-2.44,0-4.428-1.986-4.428-4.428v-25.494c0-2.441,1.986-4.429,4.428-4.429H334.81c2.44,0,4.427,1.986,4.427,4.429V235.432
		L339.236,235.432z"/>
	<path fill="#FFFFFF" d="M266.836,272.346c4.666,0,8.602-3.182,9.751-7.49h9.353c-0.864,1.369-2.39,2.281-4.127,2.281
		c-1.437,0-2.604,1.166-2.604,2.604c0,1.437,1.167,2.604,2.604,2.604c4.668,0,8.603-3.183,9.752-7.49h1.209
		c1.439,0,2.604-1.166,2.604-2.604s-1.163-2.604-2.604-2.604h-1.209c-1.149-4.308-5.084-7.489-9.752-7.489
		c-4.662,0-8.598,3.183-9.748,7.489h-9.354c0.867-1.369,2.391-2.28,4.125-2.28c1.438,0,2.604-1.167,2.604-2.603
		c0-1.439-1.166-2.605-2.604-2.605c-4.666,0-8.598,3.183-9.751,7.488h-1.208c-1.439,0-2.605,1.168-2.605,2.604
		s1.166,2.604,2.605,2.604h1.208C258.238,269.164,262.17,272.346,266.836,272.346z M266.836,267.137
		c-1.734,0-3.258-0.912-4.125-2.281h8.25C270.096,266.225,268.572,267.137,266.836,267.137z M281.813,257.366
		c1.737,0,3.263,0.911,4.127,2.282h-8.25C278.557,258.277,280.078,257.366,281.813,257.366z"/>
	<path fill="#FFFFFF" d="M274.324,294.285c17.665,0,32.033-14.37,32.033-32.033c0-17.665-14.369-32.035-32.033-32.035
		c-17.663,0-32.035,14.37-32.035,32.035C242.289,279.915,256.661,294.285,274.324,294.285z M274.324,237.161
		c13.834,0,25.09,11.255,25.09,25.091s-11.256,25.089-25.09,25.089s-25.092-11.253-25.092-25.089
		C249.232,248.417,260.49,237.161,274.324,237.161z"/>
</g>
</svg>
