<?xml version="1.0" encoding="utf-8"?>
<!-- Generator: Adobe Illustrator 16.0.0, SVG Export Plug-In . SVG Version: 6.00 Build 0)  -->
<!DOCTYPE svg PUBLIC "-//W3C//DTD SVG 1.1//EN" "http://www.w3.org/Graphics/SVG/1.1/DTD/svg11.dtd">
<svg version="1.1" id="historyIcon1" xmlns="http://www.w3.org/2000/svg" xmlns:xlink="http://www.w3.org/1999/xlink" x="0px"
	 y="0px" width="349px" height="349px" viewBox="103.615 91.854 349 349" enable-background="new 103.615 91.854 349 349"
	 xml:space="preserve">
<circle fill="#BF0000" cx="278.115" cy="266.354" r="174.5"/>
<g display="none">
	<path display="inline" fill="#FFFFFF" d="M394.126,184.945c-8.793-8.792-23.097-8.791-31.89,0l-27.594,27.593H182.777
		c-3.898,0-7.059,3.16-7.059,7.059v106.334c0,3.898,3.16,7.061,7.059,7.061H348.15c3.897,0,7.06-3.16,7.06-7.061v-70.184
		l38.916-38.916C402.917,208.041,402.917,193.736,394.126,184.945z M378.182,187.752c3.51,0,6.81,1.366,9.289,3.848
		c4.889,4.889,5.107,12.702,0.662,17.858l-18.521-18.521C371.995,188.878,375.001,187.752,378.182,187.752z M335.232,259.6
		l-15.764-15.763l-1.404-1.407l44.862-44.866l18.578,18.578l-44.864,44.865L335.232,259.6z M314.986,252.663l2.383,2.382
		l-8.494,8.495c-1.838,1.838-1.838,4.817,0,6.655c0.919,0.919,2.123,1.379,3.327,1.379s2.407-0.46,3.327-1.379l8.494-8.495
		l2.383,2.383l-4.949,12.728l-27.373,8.176l8.176-27.372L314.986,252.663z M341.093,318.873H189.836v-92.218h130.689l-12.445,12.447
		c-1.719,1.717-1.828,4.432-0.336,6.28l-11.039,4.293c-1.354,0.526-2.389,1.648-2.805,3.039l-10.987,36.789l-4.698,4.697
		l-5.539-5.539c-1.838-1.837-4.816-1.837-6.654,0c-1.838,1.838-1.838,4.817,0,6.655l5.539,5.539l-5.539,5.537
		c-1.838,1.838-1.838,4.816,0,6.655c0.918,0.918,2.123,1.378,3.328,1.378c1.203,0,2.408-0.46,3.326-1.378l5.539-5.539l5.539,5.539
		c0.92,0.918,2.123,1.378,3.328,1.378c1.204,0,2.409-0.46,3.327-1.378c1.838-1.838,1.838-4.815,0-6.655l-5.538-5.537l4.697-4.697
		l36.789-10.989c1.391-0.416,2.513-1.45,3.039-2.803l4.293-11.039c0.857,0.692,1.903,1.041,2.953,1.041
		c1.205,0,2.406-0.46,3.325-1.378l1.124-1.124L341.093,318.873L341.093,318.873z"/>
	<path display="inline" fill="#FFFFFF" d="M206.742,251.226h73.84c2.6,0,4.707-2.107,4.707-4.706s-2.107-4.706-4.707-4.706h-73.84
		c-2.599,0-4.706,2.107-4.706,4.706S204.143,251.226,206.742,251.226z"/>
	<path display="inline" fill="#FFFFFF" d="M275.535,266.023c0-2.599-2.105-4.705-4.705-4.705h-64.088
		c-2.599,0-4.706,2.106-4.706,4.705c0,2.601,2.107,4.707,4.706,4.707h64.088C273.43,270.73,275.535,268.624,275.535,266.023z"/>
</g>
<g display="none">
	<g display="inline">
		<path fill="#FFFFFF" d="M371.301,248.333l-72.32-61.687c-2.108-1.832-5.097-2.23-7.646-1.035
			c-2.548,1.155-4.183,3.704-4.183,6.491v30.106c-18.357,0.956-34.963,4.979-49.418,11.987c-14.137,6.85-26.244,16.527-35.96,28.75
			C184.212,285.009,178,310.973,178,327.898c0,3.266,2.23,6.133,5.376,6.929c0.597,0.159,1.195,0.239,1.792,0.239
			c2.589,0,5.018-1.396,6.292-3.703c14.774-26.921,38.549-41.098,74.787-44.563c3.942-0.358,6.851-3.862,6.451-7.807
			c-0.357-3.943-3.902-6.851-7.806-6.451c-18.16,1.752-33.333,5.854-46.354,12.625c-7.726,3.979-14.695,8.959-20.907,14.854
			c3.266-9.318,8.283-19.114,15.412-28.076c18.478-23.214,45.875-35.161,81.396-35.521c3.942-0.04,7.09-3.226,7.09-7.168v-21.504
			l54.119,46.155l-54.158,46.153v-21.506c0-3.94-3.227-7.166-7.17-7.166c-3.941,0-7.168,3.226-7.168,7.166v37.076
			c0,2.787,1.635,5.336,4.183,6.491c2.549,1.154,5.535,0.757,7.646-1.076l72.318-61.845c1.594-1.354,2.51-3.345,2.51-5.455
			C373.809,251.677,372.893,249.687,371.301,248.333z"/>
	</g>
</g>
<g display="none">
	<path display="inline" fill="#FFFFFF" d="M361.188,234.562l-37.013-37.013c-2.344-2.343-5.458-3.633-8.772-3.633
		c-3.313,0-6.428,1.29-8.771,3.633l-8.696,8.698c-1.338,1.338-2.291,2.913-2.892,4.587l-40.695-7.285
		c-0.003-0.001-0.006-0.001-0.009-0.002c-18.298-3.632-36.164,8.265-39.854,26.564l-1.877,9.313
		c-2.073,10.281,4.606,20.33,14.888,22.403c10.283,2.071,20.333-4.606,22.406-14.886l1.147-5.694l18.249,1.596l47.657,47.657
		l8.638,8.637c1.748,1.749,1.748,4.597,0,6.345c-1.746,1.747-4.594,1.75-6.344,0l-23.137-23.139c-1.611-1.61-4.227-1.61-5.838,0
		c-1.609,1.612-1.609,4.226,0,5.839l23.14,23.137c0.847,0.848,1.313,1.974,1.313,3.172c0,1.197-0.467,2.325-1.313,3.172
		c-1.751,1.75-4.597,1.748-6.345,0l-23.139-23.139c-1.609-1.609-4.225-1.609-5.836,0c-1.609,1.611-1.609,4.227,0,5.838
		l23.137,23.138c1.748,1.747,1.748,4.594,0,6.343c-0.846,0.85-1.974,1.314-3.17,1.314c-1.197,0-2.323-0.469-3.174-1.314
		l-23.137-23.138c-1.611-1.61-4.227-1.61-5.837,0s-1.61,4.225,0,5.837l23.14,23.137c1.748,1.749,1.748,4.598,0,6.344
		c-1.75,1.75-4.596,1.75-6.346,0l-81.863-81.86l-10.811-10.81c-1.612-1.611-4.225-1.611-5.836,0c-1.612,1.612-1.612,4.225,0,5.836
		l10.811,10.81l11.765,11.765l-6.486,6.485c-2.123,2.124-3.293,4.946-3.293,7.95c0,3.005,1.17,5.826,3.293,7.948l2.117,2.117
		c1.855,1.855,4.248,2.983,6.826,3.237c0.255,2.578,1.381,4.971,3.238,6.826l2.117,2.116c1.906,1.904,4.331,2.979,6.825,3.229
		c0.253,2.582,1.38,4.978,3.239,6.834l2.116,2.116c1.856,1.854,4.248,2.98,6.826,3.238c0.254,2.576,1.381,4.97,3.238,6.824
		l2.116,2.116c2.192,2.192,5.071,3.287,7.951,3.287c2.879,0,5.757-1.095,7.95-3.287l6.485-6.483l15.539,15.54
		c2.405,2.405,5.604,3.73,9.009,3.73c3.402,0,6.602-1.326,9.008-3.73c2.279-2.278,3.574-5.272,3.705-8.476
		c3.202-0.131,6.195-1.425,8.477-3.705c2.351-2.349,3.572-5.396,3.699-8.479c3.084-0.128,6.133-1.354,8.479-3.699
		c2.351-2.352,3.573-5.397,3.7-8.481c3.085-0.126,6.131-1.35,8.48-3.698c4.967-4.97,4.967-13.051,0-18.018l-5.723-5.72
		l20.927-20.925l14.552-14.549C366.023,247.269,366.023,239.398,361.188,234.562L361.188,234.562z M206.126,294.307
		c-1.166-1.166-1.166-3.063,0-4.228l6.082-6.081l6.344,6.344l-6.082,6.081c-1.165,1.166-3.063,1.165-4.228,0L206.126,294.307z
		 M218.307,306.486c-1.167-1.165-1.167-3.063,0-4.229l6.081-6.082l6.345,6.346l-6.081,6.081c-1.166,1.164-3.063,1.165-4.228,0
		L218.307,306.486z M230.487,318.668c-0.565-0.564-0.876-1.317-0.876-2.114c0-0.799,0.311-1.55,0.876-2.113l6.081-6.081l6.344,6.345
		l-6.082,6.081c-1.165,1.165-3.062,1.165-4.227,0L230.487,318.668L230.487,318.668z M249.011,332.964
		c-1.166,1.166-3.063,1.164-4.228,0l-2.116-2.117c-1.166-1.166-1.166-3.061,0-4.228l6.081-6.081l6.345,6.345L249.011,332.964z
		 M319.874,281.743l-45.804-45.8c-0.687-0.687-1.59-1.108-2.559-1.192l-23.421-2.048c-0.122-0.011-0.243-0.016-0.363-0.016
		c-1.945,0-3.651,1.372-4.042,3.312l-1.877,9.312c-1.174,5.82-6.86,9.599-12.685,8.426c-2.819-0.568-5.249-2.2-6.841-4.597
		c-1.591-2.395-2.155-5.267-1.586-8.087l1.877-9.31c2.797-13.873,16.352-22.885,30.23-20.086c0.029,0.005,0.058,0.012,0.088,0.017
		l40.102,7.18l4.938,4.938l39.948,39.946L319.874,281.743z M355.352,246.269L343.716,257.9l-39.948-39.946
		c-0.783-0.784-1.216-1.828-1.216-2.936c0-1.11,0.433-2.153,1.216-2.938l8.698-8.697c0.785-0.785,1.827-1.216,2.937-1.216
		s2.15,0.431,2.938,1.216l37.014,37.012c0.783,0.784,1.217,1.827,1.217,2.936S356.134,245.485,355.352,246.269z"/>
	<circle display="inline" fill="#FFFFFF" cx="345.359" cy="244.972" r="4.127"/>
</g>
<g display="none">
	<path display="inline" fill="#FFFFFF" d="M229.885,245.188c0-1.968-1.595-3.563-3.563-3.563c-1.968,0-3.563,1.595-3.563,3.563
		c0,6.865,4.738,12.64,11.115,14.238v2.025c0,1.968,1.595,3.563,3.563,3.563c1.968,0,3.563-1.596,3.563-3.563v-2.025
		c6.377-1.598,11.115-7.373,11.115-14.238c0-6.864-4.738-12.642-11.115-14.238v-14.646c2.372,1.275,3.988,3.779,3.988,6.655
		c0,1.968,1.596,3.563,3.563,3.563c1.967,0,3.563-1.595,3.563-3.563c0-6.865-4.738-12.643-11.115-14.239v-2.025
		c0-1.968-1.595-3.563-3.563-3.563c-1.968,0-3.563,1.596-3.563,3.563v2.025c-6.377,1.597-11.115,7.374-11.115,14.239
		c0,6.864,4.738,12.642,11.115,14.238v14.646C231.501,250.568,229.885,248.064,229.885,245.188z M244.987,245.188
		c0,2.876-1.617,5.38-3.988,6.655v-13.31C243.371,239.809,244.987,242.313,244.987,245.188z M229.885,222.959
		c0-2.876,1.617-5.38,3.988-6.655v13.31C231.501,228.338,229.885,225.834,229.885,222.959z"/>
	<path display="inline" fill="#FFFFFF" d="M237.436,282.71c26.817,0,48.634-21.817,48.634-48.636
		c0-26.819-21.817-48.638-48.634-48.638c-26.819,0-48.639,21.819-48.639,48.638C188.797,260.893,210.617,282.71,237.436,282.71z
		 M237.436,196.126c20.921,0,37.946,17.023,37.946,37.948c0,20.924-17.024,37.947-37.946,37.947
		c-20.925,0-37.948-17.022-37.948-37.947C199.488,213.149,216.511,196.126,237.436,196.126z"/>
	<path display="inline" fill="#FFFFFF" d="M308.786,256.788c-26.818,0-48.638,21.817-48.638,48.638
		c0,26.821,21.817,48.64,48.638,48.64c26.819,0,48.639-21.818,48.639-48.64C357.425,278.605,335.605,256.788,308.786,256.788z
		 M308.786,343.374c-20.925,0-37.947-17.023-37.947-37.948s17.022-37.947,37.947-37.947s37.948,17.022,37.948,37.947
		S329.711,343.374,308.786,343.374z"/>
	<path display="inline" fill="#FFFFFF" d="M325.639,316.381c-1.695-1.001-3.881-0.438-4.881,1.257
		c-2.04,3.457-5.797,5.604-9.804,5.604c-5.698,0-10.431-4.212-11.247-9.688h10.954c1.968,0,3.563-1.595,3.563-3.563
		s-1.598-3.563-3.563-3.563h-11.08v-2.005h11.08c1.968,0,3.563-1.595,3.563-3.563c0-1.971-1.598-3.563-3.563-3.563h-10.954
		c0.816-5.475,5.549-9.688,11.247-9.688c3.442,0,6.662,1.535,8.835,4.213c1.24,1.527,3.484,1.761,5.013,0.521
		c1.527-1.24,1.761-3.484,0.521-5.014c-3.531-4.352-8.771-6.846-14.367-6.846c-9.632,0-17.563,7.398-18.42,16.813h-4.132
		c-1.969,0-3.563,1.596-3.563,3.563c0,1.967,1.599,3.563,3.563,3.563h4.052v2.005h-4.052c-1.969,0-3.563,1.597-3.563,3.563
		s1.599,3.563,3.563,3.563h4.132c0.854,9.412,8.788,16.813,18.42,16.813c6.519,0,12.625-3.49,15.94-9.108
		C327.896,319.565,327.332,317.381,325.639,316.381z"/>
	<path display="inline" fill="#FFFFFF" d="M293.602,216.114c0.688,1.019,1.813,1.567,2.955,1.567c0.688,0,1.381-0.198,1.992-0.611
		c1.631-1.102,2.059-3.317,0.956-4.947l-3.278-4.851c22.682,8.273,39.563,28.509,43.193,52.818c0.264,1.768,1.784,3.037,3.52,3.037
		c0.176,0,0.354-0.014,0.531-0.039c1.946-0.291,3.288-2.104,2.997-4.051c-4.039-27.043-22.894-49.533-48.188-58.602l3.992-1.765
		c1.799-0.796,2.612-2.9,1.816-4.701c-0.795-1.8-2.898-2.613-4.699-1.818l-13.027,5.761c-0.967,0.427-1.691,1.26-1.982,2.274
		c-0.292,1.014-0.119,2.105,0.473,2.98L293.602,216.114z"/>
	<path display="inline" fill="#FFFFFF" d="M252.621,323.386c-1.102-1.631-3.317-2.059-4.948-0.957
		c-1.63,1.104-2.059,3.318-0.957,4.948l3.279,4.851c-22.68-8.271-39.562-28.509-43.193-52.817c-0.291-1.946-2.106-3.288-4.051-2.998
		c-1.946,0.291-3.288,2.104-2.998,4.052c4.04,27.044,22.894,49.533,48.188,58.604l-3.991,1.765c-1.8,0.796-2.613,2.9-1.818,4.7
		c0.589,1.332,1.894,2.123,3.261,2.123c0.481,0,0.971-0.1,1.439-0.307l13.025-5.761c0.967-0.427,1.691-1.26,1.982-2.271
		c0.292-1.018,0.119-2.106-0.473-2.981L252.621,323.386z"/>
</g>
<g display="none">
	<path display="inline" fill="#FFFFFF" d="M317.641,275.066c0,1.975,1.603,3.576,3.575,3.576c1.976,0,3.577-1.604,3.577-3.576
		c0-7.455-5.208-13.713-12.177-15.338v-2.48c0-1.975-1.601-3.577-3.576-3.577s-3.577,1.602-3.577,3.577v2.48
		c-6.967,1.625-12.175,7.883-12.175,15.338s5.208,13.713,12.175,15.336v16.832c-2.96-1.359-5.021-4.354-5.021-7.816
		c0-1.977-1.602-3.576-3.576-3.576s-3.575,1.6-3.575,3.576c0,7.455,5.208,13.713,12.175,15.338v2.479
		c0,1.975,1.604,3.574,3.577,3.574s3.576-1.602,3.576-3.574v-2.479c6.969-1.625,12.177-7.883,12.177-15.338
		s-5.208-13.715-12.177-15.338v-16.832C315.577,268.609,317.641,271.6,317.641,275.066z M300.439,275.066
		c0-3.467,2.063-6.457,5.021-7.818v15.635C302.503,281.521,300.439,278.531,300.439,275.066z M317.641,299.418
		c0,3.467-2.063,6.457-5.022,7.816v-15.633C315.577,292.961,317.641,295.951,317.641,299.418z"/>
	<path display="inline" fill="#FFFFFF" d="M311.891,234.528v-36.486c0-2.962-2.399-5.365-5.363-5.365h-94.514
		c-2.963,0-5.365,2.403-5.365,5.365v136.626c0,2.963,2.402,5.365,5.365,5.365h94.514c0.207,0,0.414-0.018,0.615-0.039
		c0.631,0.021,1.262,0.039,1.898,0.039c29.107,0,52.791-23.684,52.791-52.791C361.832,259.088,339.682,236.014,311.891,234.528z
		 M256.28,285.516h-38.903v-15.584h41.791C257.458,274.84,256.456,280.074,256.28,285.516z M217.377,292.67h39.148
		c0.563,5.486,1.973,10.725,4.091,15.586h-43.239V292.67z M262.27,262.777h-44.892v-15.584h57.306
		C269.624,251.54,265.396,256.826,262.27,262.777z M285.418,240.04h-68.041v-15.585h83.785v10.584
		C295.582,235.876,290.287,237.593,285.418,240.04z M301.162,203.407v13.895h-83.785v-13.895H301.162z M217.377,329.303v-13.895
		h47.034c3.396,5.357,7.728,10.066,12.766,13.895H217.377z M309.04,329.303c-23.192,0-42.062-18.869-42.062-42.061
		c0-23.193,18.867-42.063,42.062-42.063c23.192,0,42.062,18.869,42.062,42.063C351.102,310.434,332.232,329.303,309.04,329.303z"/>
</g>
<g>
	<g>
		<path fill="#FFFFFF" d="M343.055,203.179c-17.41-17.411-40.57-27.005-65.178-27.005c-25.062,0-48.51,9.884-66.004,27.833
			c-1.902,1.944-1.861,5.087,0.083,7.031c1.944,1.902,5.087,1.861,7.03-0.083c15.633-16.005,36.518-24.813,58.891-24.813
			c45.368-0.041,82.257,36.848,82.257,82.217c0,45.366-36.889,82.257-82.257,82.257c-45.367,0-82.257-36.891-82.257-82.257v-1.034
			l8.189,8.188c0.951,0.95,2.233,1.446,3.515,1.446c1.282,0,2.522-0.496,3.515-1.446c1.944-1.945,1.944-5.088,0-7.031
			l-16.625-16.667c-1.944-1.944-5.087-1.944-7.031,0l-16.666,16.667c-1.944,1.943-1.944,5.086,0,7.031
			c1.943,1.942,5.087,1.942,7.03,0l8.188-8.188v1.034c0,24.605,9.595,47.766,27.005,65.177c17.411,17.41,40.57,27.005,65.177,27.005
			c24.606,0,47.767-9.595,65.177-27.005c17.41-17.411,26.965-40.57,26.965-65.177C370.061,243.75,360.465,220.59,343.055,203.179z"
			/>
		<path fill="#FFFFFF" d="M304.262,234.816l-60.958,60.918c-1.943,1.943-1.943,5.087,0,7.03c0.951,0.951,2.233,1.447,3.515,1.447
			c1.282,0,2.523-0.496,3.515-1.447l60.959-60.959c1.943-1.944,1.943-5.087,0-7.03C309.35,232.873,306.206,232.873,304.262,234.816z
			"/>
		<path fill="#FFFFFF" d="M288.299,275.843c-6.906,6.906-6.906,18.196,0,25.104c3.352,3.351,7.816,5.211,12.572,5.211
			s9.222-1.86,12.572-5.211c6.906-6.906,6.906-18.196,0-25.104c-3.352-3.35-7.816-5.211-12.572-5.211
			S291.689,272.493,288.299,275.843z M306.413,293.956c-1.489,1.489-3.433,2.274-5.542,2.274c-2.107,0-4.053-0.828-5.542-2.274
			c-3.06-3.062-3.06-8.022,0-11.083c1.489-1.489,3.435-2.273,5.542-2.273c2.109,0,4.053,0.826,5.542,2.273
			C309.473,285.934,309.473,290.896,306.413,293.956z"/>
		<path fill="#FFFFFF" d="M255.049,230.392c-4.756,0-9.222,1.861-12.572,5.211s-5.211,7.816-5.211,12.572
			c0,4.756,1.861,9.224,5.211,12.574s7.816,5.211,12.572,5.211s9.223-1.86,12.572-5.211c3.35-3.353,5.211-7.818,5.211-12.574
			c0-4.756-1.861-9.222-5.211-12.572C264.23,232.252,259.805,230.392,255.049,230.392z M260.59,253.716
			c-1.488,1.489-3.432,2.275-5.541,2.275c-2.109,0-4.053-0.827-5.542-2.275c-1.488-1.489-2.274-3.432-2.274-5.541
			c0-2.109,0.827-4.053,2.274-5.542c1.489-1.489,3.433-2.274,5.542-2.274c2.109,0,4.053,0.827,5.541,2.274
			c1.489,1.489,2.275,3.433,2.275,5.542C262.865,250.242,262.079,252.227,260.59,253.716z"/>
	</g>
</g>
</svg>
