<?xml version="1.0" encoding="utf-8"?>
<!-- Generator: Adobe Illustrator 16.0.2, SVG Export Plug-In . SVG Version: 6.00 Build 0)  -->
<!DOCTYPE svg PUBLIC "-//W3C//DTD SVG 1.1//EN" "http://www.w3.org/Graphics/SVG/1.1/DTD/svg11.dtd">
<svg version="1.1" id="Слой_1" xmlns="http://www.w3.org/2000/svg" xmlns:xlink="http://www.w3.org/1999/xlink" x="0px" y="0px"
	 width="323.472px" height="164.089px" viewBox="0 0 323.472 164.089" enable-background="new 0 0 323.472 164.089"
	 xml:space="preserve">
<g id="Logo_MS">
	<path fill="#283837" d="M178.744,64.712c-10.109,0-18.329-8.201-18.329-18.283c0-10.08,8.221-18.282,18.329-18.282
		c10.106,0,18.329,8.202,18.329,18.282C197.073,56.511,188.851,64.712,178.744,64.712L178.744,64.712z M178.744,32.655
		c-7.615,0-13.811,6.18-13.811,13.774c0,7.596,6.195,13.775,13.811,13.775c7.614,0,13.809-6.179,13.809-13.775
		C192.553,38.834,186.358,32.655,178.744,32.655L178.744,32.655z M178.744,54.512c-4.469,0-8.104-3.625-8.104-8.083
		c0-4.457,3.636-8.082,8.104-8.082c4.467,0,8.104,3.625,8.104,8.082C186.848,50.887,183.211,54.512,178.744,54.512L178.744,54.512z
		 M178.744,42.854c-1.977,0-3.585,1.604-3.585,3.576c0,1.971,1.608,3.574,3.585,3.574c1.974,0,3.584-1.604,3.584-3.574
		C182.328,44.458,180.719,42.854,178.744,42.854L178.744,42.854z M209.695,92.859h-2.188v6.818c0,1.245-1.013,2.255-2.261,2.255
		h-15.668c-1.248,0-2.26-1.01-2.26-2.255v-6.818H124.95v6.818c0,1.245-1.012,2.255-2.26,2.255h-15.667
		c-1.249,0-2.26-1.01-2.26-2.255v-6.818h-2.189c-5.229,0-9.483-4.243-9.483-9.459V9.459c0-5.215,4.254-9.459,9.483-9.459h107.121
		c5.229,0,9.484,4.244,9.484,9.459V83.4C219.18,88.616,214.925,92.859,209.695,92.859L209.695,92.859z M191.839,97.424h11.149
		v-4.564h-11.149V97.424L191.839,97.424z M109.283,97.424h11.148v-4.564h-11.148V97.424L109.283,97.424z M214.659,9.459
		c0-2.729-2.226-4.951-4.964-4.951H102.574c-2.737,0-4.964,2.222-4.964,4.951V83.4c0,2.729,2.228,4.95,4.964,4.95h107.121
		c2.738,0,4.964-2.221,4.964-4.95V9.459L214.659,9.459z M206.072,82.041h-99.875c-1.248,0-2.26-1.01-2.26-2.254V13.073
		c0-1.245,1.012-2.254,2.26-2.254h99.875c1.247,0,2.26,1.009,2.26,2.254v66.713C208.332,81.03,207.319,82.041,206.072,82.041
		L206.072,82.041z M203.813,15.327h-95.355v21.518h13.978l5.682-5.667c-0.337-0.749-0.527-1.576-0.527-2.448
		c0-3.313,2.703-6.01,6.025-6.01c3.323,0,6.026,2.696,6.026,6.01c0,3.315-2.703,6.011-6.026,6.011c-0.792,0-1.548-0.157-2.241-0.436
		l-6.405,6.388c-0.423,0.422-0.998,0.661-1.598,0.661h-14.913v4.433h36.108c0.896-2.201,3.059-3.757,5.583-3.757
		c3.321,0,6.025,2.696,6.025,6.011c0,3.314-2.704,6.011-6.025,6.011c-2.524,0-4.687-1.557-5.583-3.758h-36.108v4.433h21.88
		c0.6,0,1.175,0.238,1.598,0.661l6.404,6.388c0.693-0.279,1.449-0.437,2.242-0.437c3.322,0,6.026,2.696,6.026,6.01
		c0,3.315-2.704,6.011-6.026,6.011s-6.026-2.696-6.026-6.011c0-0.871,0.192-1.698,0.528-2.447l-5.682-5.667h-20.945v18.297h95.354
		V15.327H203.813z M132.108,28.731c0,0.828,0.675,1.502,1.506,1.502s1.507-0.674,1.507-1.502s-0.676-1.503-1.507-1.503
		S132.108,27.903,132.108,28.731L132.108,28.731z M148.643,48.041c0,0.828,0.675,1.503,1.506,1.503s1.507-0.675,1.507-1.503
		c0-0.829-0.677-1.502-1.507-1.502C149.317,46.538,148.643,47.212,148.643,48.041L148.643,48.041z M139.075,67.35
		c0,0.829,0.676,1.502,1.506,1.502c0.832,0,1.506-0.674,1.506-1.502c0-0.829-0.674-1.503-1.506-1.503
		C139.751,65.847,139.075,66.521,139.075,67.35L139.075,67.35z"/>
	<g>
		<g>
			<defs>
				<path id="SVGID_1_" d="M26.147,153.313v-19.828l-7.19,14.415h-4.109l-7.191-14.415v19.828H0V120.19h8.31l8.592,17.308
					l8.638-17.308h8.264v33.123H26.147L26.147,153.313z M62.215,145.917c-0.576,1.539-1.424,2.894-2.545,4.059
					c-1.121,1.166-2.498,2.094-4.132,2.777s-3.495,1.025-5.58,1.025s-3.946-0.342-5.58-1.025c-1.634-0.684-3.011-1.609-4.132-2.777
					c-1.121-1.165-1.969-2.52-2.545-4.059c-0.576-1.539-0.864-3.148-0.864-4.828c0-1.679,0.288-3.289,0.864-4.828
					c0.576-1.539,1.424-2.892,2.545-4.058c1.121-1.167,2.497-2.101,4.132-2.8c1.634-0.699,3.494-1.05,5.58-1.05
					c2.085,0,3.937,0.351,5.557,1.05c1.618,0.699,2.988,1.633,4.108,2.8c1.121,1.166,1.977,2.519,2.568,4.058
					s0.887,3.148,0.887,4.828C63.079,142.769,62.791,144.378,62.215,145.917L62.215,145.917z M53.835,136.448
					c-1.028-1.166-2.32-1.75-3.875-1.75c-0.778,0-1.502,0.156-2.172,0.467c-0.668,0.311-1.245,0.746-1.727,1.307
					c-0.483,0.56-0.864,1.236-1.144,2.029c-0.28,0.793-0.42,1.655-0.42,2.588c0,1.93,0.513,3.477,1.541,4.643
					c1.027,1.166,2.333,1.75,3.921,1.75c0.778,0,1.494-0.156,2.148-0.468c0.653-0.311,1.221-0.746,1.704-1.307
					c0.482-0.559,0.863-1.235,1.143-2.028c0.28-0.793,0.42-1.656,0.42-2.59C55.375,139.162,54.862,137.614,53.835,136.448
					L53.835,136.448z M81.989,153.313v-13.763c0-1.617-0.304-2.791-0.911-3.522c-0.608-0.73-1.409-1.096-2.405-1.096
					c-0.529,0-1.058,0.109-1.587,0.326s-1.043,0.521-1.541,0.91c-0.499,0.389-0.942,0.848-1.331,1.375
					c-0.389,0.529-0.693,1.104-0.911,1.727v14.041h-7.471v-24.49h6.723v4.104c0.903-1.461,2.178-2.589,3.829-3.382
					c1.649-0.793,3.548-1.19,5.696-1.19c1.588,0,2.863,0.289,3.829,0.864c0.965,0.576,1.711,1.322,2.24,2.238
					c0.53,0.918,0.88,1.922,1.052,3.01c0.17,1.088,0.257,2.146,0.257,3.172v15.676H81.989L81.989,153.313z M118.22,142.28
					c-0.031,0.419-0.078,0.783-0.14,1.096H99.964c0.124,1.648,0.724,2.9,1.798,3.756s2.295,1.283,3.666,1.283
					c1.089,0,2.139-0.266,3.151-0.793c1.012-0.529,1.689-1.244,2.031-2.147l6.351,1.772c-0.966,1.93-2.459,3.498-4.482,4.713
					c-2.024,1.213-4.452,1.818-7.284,1.818c-2.055,0-3.899-0.334-5.533-1.002c-1.635-0.669-3.021-1.579-4.155-2.73
					c-1.137-1.15-2.002-2.479-2.592-3.988c-0.591-1.508-0.887-3.086-0.887-4.734c0-1.772,0.296-3.445,0.887-5.016
					c0.59-1.57,1.447-2.946,2.568-4.128c1.121-1.183,2.498-2.114,4.132-2.8c1.634-0.684,3.495-1.025,5.581-1.025
					c2.085,0,3.937,0.342,5.557,1.025c1.617,0.686,2.987,1.609,4.108,2.776c1.121,1.166,1.969,2.511,2.545,4.036
					c0.575,1.523,0.863,3.125,0.863,4.805C118.267,141.433,118.251,141.859,118.22,142.28L118.22,142.28z M108.695,135.071
					c-0.965-0.902-2.164-1.353-3.595-1.353c-1.464,0-2.669,0.459-3.618,1.376c-0.951,0.918-1.502,2.139-1.658,3.662h10.552
					C110.22,137.202,109.66,135.974,108.695,135.071L108.695,135.071z M133.581,157.277c-0.654,2.021-1.821,3.662-3.501,4.921
					c-1.68,1.262-3.674,1.891-5.976,1.891c-0.623,0-1.254-0.055-1.892-0.163c-0.638-0.109-1.283-0.288-1.938-0.537v-6.392
					c0.623,0.218,1.206,0.373,1.751,0.467c0.545,0.094,1.034,0.141,1.471,0.141c0.902,0,1.603-0.311,2.101-0.933
					c0.498-0.624,0.95-1.743,1.354-3.358l-9.338-24.492h7.704l5.697,18.101l4.902-18.101h7.003L133.581,157.277L133.581,157.277z
					 M162.925,131.876c0.576,0.297,1.301,0.568,2.172,0.816c0.871,0.25,1.883,0.529,3.035,0.84c1.588,0.436,3.019,0.91,4.295,1.424
					c1.275,0.512,2.358,1.15,3.245,1.912c0.888,0.762,1.571,1.688,2.055,2.774c0.482,1.089,0.723,2.396,0.723,3.921
					c0,1.865-0.35,3.443-1.05,4.733c-0.701,1.292-1.627,2.333-2.778,3.126s-2.475,1.369-3.97,1.725
					c-1.493,0.359-3.035,0.539-4.622,0.539c-1.213,0-2.458-0.095-3.735-0.281c-1.276-0.187-2.521-0.457-3.733-0.816
					c-1.215-0.357-2.39-0.785-3.526-1.283c-1.137-0.496-2.187-1.072-3.151-1.727l3.362-6.67c0.123,0.156,0.528,0.451,1.214,0.887
					c0.684,0.436,1.532,0.871,2.544,1.307s2.14,0.825,3.385,1.165c1.244,0.343,2.506,0.514,3.782,0.514
					c2.708,0,4.063-0.823,4.063-2.472c0-0.623-0.203-1.136-0.607-1.54c-0.404-0.403-0.965-0.77-1.682-1.097
					c-0.716-0.326-1.563-0.629-2.545-0.91c-0.98-0.279-2.047-0.59-3.198-0.933c-1.524-0.466-2.847-0.972-3.969-1.516
					c-1.12-0.544-2.047-1.175-2.777-1.89c-0.732-0.715-1.277-1.539-1.635-2.473c-0.358-0.932-0.536-2.021-0.536-3.264
					c0-1.742,0.326-3.282,0.979-4.619c0.653-1.338,1.542-2.465,2.661-3.383c1.12-0.916,2.42-1.609,3.899-2.076
					c1.478-0.467,3.042-0.7,4.691-0.7c1.151,0,2.288,0.11,3.409,0.327c1.12,0.217,2.194,0.498,3.222,0.84s1.983,0.73,2.871,1.165
					c0.888,0.437,1.704,0.872,2.451,1.308l-3.362,6.344c-0.093-0.125-0.42-0.357-0.98-0.699c-0.56-0.342-1.26-0.7-2.1-1.072
					c-0.841-0.374-1.76-0.701-2.756-0.98c-0.996-0.28-1.991-0.42-2.987-0.42c-2.741,0-4.11,0.918-4.11,2.752
					c0,0.561,0.148,1.026,0.444,1.399S162.35,131.581,162.925,131.876L162.925,131.876z M190.73,146.431
					c0.403,0.357,0.917,0.537,1.539,0.537c0.562,0,1.136-0.094,1.729-0.279c0.591-0.188,1.103-0.389,1.541-0.606l1.448,5.924
					c-1.029,0.437-2.204,0.84-3.526,1.213c-1.324,0.373-2.655,0.56-3.991,0.56c-0.934,0-1.815-0.116-2.639-0.35
					c-0.825-0.232-1.55-0.605-2.172-1.119c-0.623-0.514-1.113-1.189-1.471-2.029s-0.538-1.85-0.538-3.033v-12.781h-3.126v-5.645
					h3.126v-7.791h7.472v7.791h4.996v5.645h-4.996v10.215C190.122,145.489,190.324,146.073,190.73,146.431L190.73,146.431z
					 M222.271,145.917c-0.578,1.539-1.424,2.894-2.547,4.059c-1.119,1.166-2.496,2.094-4.131,2.777s-3.495,1.025-5.579,1.025
					c-2.087,0-3.945-0.342-5.58-1.025c-1.634-0.684-3.012-1.609-4.132-2.777c-1.121-1.165-1.971-2.52-2.546-4.059
					s-0.863-3.148-0.863-4.828c0-1.679,0.288-3.289,0.863-4.828c0.577-1.539,1.425-2.892,2.546-4.058
					c1.12-1.167,2.498-2.101,4.132-2.8c1.635-0.699,3.493-1.05,5.58-1.05c2.084,0,3.937,0.351,5.555,1.05
					c1.619,0.699,2.99,1.633,4.11,2.8c1.119,1.166,1.976,2.519,2.567,4.058c0.59,1.539,0.887,3.148,0.887,4.828
					S222.846,144.378,222.271,145.917L222.271,145.917z M213.888,136.448c-1.026-1.166-2.318-1.75-3.874-1.75
					c-0.78,0-1.503,0.156-2.171,0.467c-0.671,0.311-1.246,0.746-1.728,1.307c-0.484,0.56-0.864,1.236-1.146,2.029
					c-0.279,0.793-0.42,1.655-0.42,2.588c0,1.93,0.514,3.477,1.542,4.643c1.026,1.166,2.334,1.75,3.922,1.75
					c0.777,0,1.493-0.156,2.146-0.468c0.655-0.311,1.223-0.746,1.706-1.307c0.481-0.559,0.863-1.235,1.143-2.028
					c0.28-0.793,0.42-1.656,0.42-2.59C215.429,139.162,214.915,137.614,213.888,136.448L213.888,136.448z M236.532,136.099
					c-1.463,0.56-2.521,1.399-3.174,2.518v14.695h-7.471v-24.49h6.861v4.945c0.842-1.649,1.924-2.939,3.246-3.873
					s2.731-1.415,4.227-1.447c0.341,0,0.591,0,0.747,0s0.311,0.017,0.468,0.047v6.719
					C239.63,135.243,237.995,135.538,236.532,136.099L236.532,136.099z M265.06,153.616c-0.527,0.046-1.01,0.07-1.446,0.07
					c-1.401,0-2.459-0.273-3.175-0.818c-0.716-0.543-1.168-1.313-1.354-2.309l-0.14-1.119c-1.091,1.4-2.389,2.473-3.897,3.22
					c-1.511,0.747-3.105,1.119-4.786,1.119c-1.215,0-2.345-0.194-3.385-0.583c-1.043-0.389-1.938-0.934-2.687-1.633
					c-0.746-0.699-1.339-1.523-1.772-2.473c-0.438-0.948-0.654-1.982-0.654-3.103c0-1.212,0.256-2.315,0.77-3.312
					c0.514-0.995,1.238-1.85,2.171-2.565c0.934-0.716,2.038-1.274,3.315-1.68c1.275-0.404,2.691-0.606,4.248-0.606
					c1.028,0,2.023,0.086,2.99,0.256c0.964,0.172,1.804,0.428,2.52,0.771v-1.12c0-2.829-1.633-4.245-4.902-4.245
					c-1.339,0-2.613,0.226-3.828,0.677c-1.216,0.451-2.491,1.127-3.829,2.029l-2.194-4.666c1.617-1.057,3.3-1.85,5.042-2.379
					c1.742-0.527,3.596-0.793,5.558-0.793c3.703,0,6.566,0.871,8.59,2.613s3.036,4.291,3.036,7.65v6.298
					c0,0.746,0.115,1.268,0.35,1.563c0.233,0.295,0.645,0.475,1.236,0.535v6.299C266.181,153.468,265.589,153.569,265.06,153.616
					L265.06,153.616z M257.776,142.769c-0.652-0.248-1.361-0.441-2.123-0.582c-0.764-0.141-1.471-0.21-2.126-0.21
					c-1.37,0-2.497,0.311-3.385,0.933c-0.888,0.623-1.331,1.432-1.331,2.426c0,0.902,0.342,1.641,1.027,2.216
					c0.686,0.576,1.557,0.864,2.616,0.864c0.81,0,1.595-0.141,2.356-0.422c0.762-0.279,1.395-0.651,1.892-1.119
					c0.715-0.559,1.073-1.148,1.073-1.771V142.769L257.776,142.769z M293.427,156.672c-0.7,1.491-1.674,2.759-2.92,3.802
					c-1.243,1.041-2.738,1.842-4.48,2.401c-1.745,0.56-3.658,0.841-5.745,0.841c-2.646,0-4.902-0.42-6.77-1.26
					s-3.502-2.053-4.903-3.64l4.016-4.059c0.902,1.026,2.023,1.843,3.362,2.45c1.339,0.606,2.771,0.908,4.295,0.908
					c0.903,0,1.759-0.123,2.569-0.371c0.809-0.25,1.523-0.631,2.148-1.145c0.621-0.512,1.11-1.182,1.471-2.006
					c0.356-0.824,0.535-1.811,0.535-2.961v-2.379c-0.748,1.369-1.82,2.402-3.221,3.102c-1.401,0.699-2.91,1.05-4.528,1.05
					c-1.62,0-3.099-0.327-4.437-0.979c-1.339-0.653-2.481-1.54-3.431-2.66c-0.952-1.118-1.691-2.425-2.218-3.918
					c-0.531-1.492-0.795-3.094-0.795-4.805c0-1.804,0.281-3.476,0.84-5.016c0.561-1.539,1.34-2.876,2.334-4.012
					c0.998-1.135,2.197-2.029,3.598-2.684c1.399-0.652,2.94-0.979,4.621-0.979c1.867,0,3.493,0.396,4.878,1.189
					c1.385,0.794,2.498,1.891,3.34,3.289v-4.012h6.49v22.811C294.476,153.499,294.124,155.179,293.427,156.672L293.427,156.672z
					 M287.005,138.944c-0.498-1.307-1.261-2.34-2.288-3.103c-1.027-0.762-2.116-1.144-3.267-1.144c-0.81,0-1.549,0.18-2.219,0.537
					c-0.669,0.358-1.244,0.84-1.728,1.446c-0.482,0.606-0.856,1.307-1.121,2.099c-0.265,0.793-0.396,1.611-0.396,2.449
					c0,0.904,0.147,1.735,0.443,2.496c0.296,0.764,0.708,1.424,1.237,1.982c0.529,0.561,1.146,0.996,1.846,1.307
					c0.699,0.312,1.471,0.468,2.31,0.468c1.152,0,2.179-0.319,3.083-0.956c0.901-0.639,1.602-1.455,2.101-2.451L287.005,138.944
					L287.005,138.944z M323.423,142.28c-0.029,0.419-0.077,0.783-0.14,1.096h-18.115c0.124,1.648,0.724,2.9,1.798,3.756
					c1.075,0.855,2.296,1.283,3.665,1.283c1.09,0,2.14-0.266,3.15-0.793c1.013-0.529,1.69-1.244,2.033-2.147l6.351,1.772
					c-0.965,1.93-2.46,3.498-4.483,4.713c-2.023,1.213-4.451,1.818-7.284,1.818c-2.054,0-3.896-0.334-5.531-1.002
					c-1.635-0.669-3.022-1.579-4.156-2.73c-1.137-1.15-2.001-2.479-2.593-3.988c-0.59-1.508-0.886-3.086-0.886-4.734
					c0-1.772,0.296-3.445,0.886-5.016c0.592-1.57,1.448-2.946,2.569-4.128c1.119-1.183,2.496-2.114,4.131-2.8
					c1.635-0.684,3.495-1.025,5.58-1.025c2.086,0,3.938,0.342,5.557,1.025c1.617,0.686,2.987,1.609,4.108,2.776
					c1.121,1.166,1.968,2.511,2.546,4.036c0.575,1.523,0.863,3.125,0.863,4.805C323.472,141.433,323.456,141.859,323.423,142.28
					L323.423,142.28z M313.899,135.071c-0.966-0.902-2.164-1.353-3.596-1.353c-1.464,0-2.668,0.459-3.617,1.376
					c-0.951,0.918-1.504,2.139-1.659,3.662h10.553C315.425,137.202,314.864,135.974,313.899,135.071L313.899,135.071z"/>
			</defs>
			<use xlink:href="#SVGID_1_"  overflow="visible" fill="#283837"/>
			<clipPath id="SVGID_2_">
				<use xlink:href="#SVGID_1_"  overflow="visible"/>
			</clipPath>
		</g>
	</g>
</g>
</svg>
