<?xml version="1.0" encoding="utf-8"?>
<!-- Generator: Adobe Illustrator 16.0.2, SVG Export Plug-In . SVG Version: 6.00 Build 0)  -->
<!DOCTYPE svg PUBLIC "-//W3C//DTD SVG 1.1//EN" "http://www.w3.org/Graphics/SVG/1.1/DTD/svg11.dtd">
<svg version="1.1" id="Слой_1" xmlns="http://www.w3.org/2000/svg" xmlns:xlink="http://www.w3.org/1999/xlink" x="0px" y="0px"
	 width="1097.994px" height="556.985px" viewBox="0 0 1097.994 556.985" enable-background="new 0 0 1097.994 556.985"
	 xml:space="preserve">
<path fill="#9DB0AD" d="M606.729,219.659c-34.309,0-62.218-27.838-62.218-62.057c0-34.217,27.909-62.058,62.218-62.058
	c34.307,0,62.216,27.841,62.216,62.058C668.945,191.821,641.036,219.659,606.729,219.659 M606.729,110.847
	c-25.848,0-46.877,20.975-46.877,46.755c0,25.781,21.029,46.758,46.877,46.758c25.846,0,46.874-20.977,46.874-46.758
	C653.603,131.822,632.575,110.847,606.729,110.847 M606.729,185.04c-15.169,0-27.508-12.307-27.508-27.438
	c0-15.127,12.339-27.434,27.508-27.434c15.166,0,27.506,12.307,27.506,27.434C634.235,172.733,621.895,185.04,606.729,185.04
	 M606.729,145.467c-6.709,0-12.167,5.443-12.167,12.135c0,6.689,5.458,12.135,12.167,12.135c6.705,0,12.164-5.445,12.164-12.135
	C618.893,150.911,613.434,145.467,606.729,145.467 M711.794,315.204h-7.43v23.146c0,4.225-3.434,7.652-7.671,7.652h-53.182
	c-4.237,0-7.671-3.428-7.671-7.652v-23.146h-211.71v23.146c0,4.225-3.433,7.652-7.671,7.652h-53.181
	c-4.238,0-7.671-3.428-7.671-7.652v-23.146h-7.43c-17.75,0-32.191-14.404-32.191-32.107V32.108C315.987,14.406,330.428,0,348.178,0
	h363.616c17.75,0,32.191,14.406,32.191,32.108v250.988C743.986,300.799,729.544,315.204,711.794,315.204 M651.182,330.7h37.84
	v-15.496h-37.84V330.7z M370.951,330.7h37.84v-15.496h-37.84V330.7z M728.644,32.108c0-9.265-7.558-16.805-16.85-16.805H348.178
	c-9.292,0-16.85,7.54-16.85,16.805v250.988c0,9.264,7.561,16.805,16.85,16.805h363.616c9.292,0,16.85-7.541,16.85-16.805V32.108z
	 M699.494,278.481H360.477c-4.235,0-7.671-3.428-7.671-7.654V44.376c0-4.226,3.436-7.65,7.671-7.65h339.017
	c4.238,0,7.671,3.424,7.671,7.65v226.451C707.165,275.053,703.732,278.481,699.494,278.481 M691.824,52.026H368.146v73.043h47.444
	l19.289-19.238c-1.144-2.542-1.791-5.348-1.791-8.306c0-11.25,9.176-20.402,20.452-20.402c11.279,0,20.455,9.152,20.455,20.402
	c0,11.249-9.176,20.401-20.455,20.401c-2.69,0-5.253-0.534-7.608-1.478l-21.741,21.681c-1.438,1.436-3.389,2.242-5.423,2.242
	h-50.622v15.047h122.569c3.041-7.469,10.382-12.752,18.95-12.752c11.278,0,20.455,9.154,20.455,20.402
	c0,11.25-9.177,20.402-20.455,20.402c-8.568,0-15.909-5.283-18.95-12.752H368.146v15.047h74.273c2.034,0,3.985,0.809,5.422,2.242
	l21.739,21.682c2.354-0.947,4.92-1.482,7.611-1.482c11.279,0,20.455,9.154,20.455,20.402c0,11.252-9.176,20.406-20.455,20.406
	s-20.455-9.154-20.455-20.406c0-2.957,0.65-5.764,1.79-8.305l-19.285-19.236h-71.095v62.107h323.677V52.026z M448.429,97.528
	c0,2.812,2.293,5.099,5.111,5.099c2.821,0,5.114-2.287,5.114-5.099c0-2.813-2.293-5.102-5.114-5.102
	C450.723,92.426,448.429,94.715,448.429,97.528 M504.551,163.069c0,2.813,2.292,5.102,5.114,5.102c2.818,0,5.113-2.289,5.113-5.102
	s-2.295-5.098-5.113-5.098C506.843,157.971,504.551,160.256,504.551,163.069 M472.078,228.614c0,2.811,2.296,5.098,5.114,5.098
	c2.821,0,5.113-2.287,5.113-5.098c0-2.813-2.292-5.104-5.113-5.104C474.374,223.51,472.078,225.801,472.078,228.614"/>
<path fill="#9DB0AD" d="M88.752,520.407v-67.299L64.344,502.04H50.398L25.99,453.108v67.299H0v-112.43h28.209l29.162,58.75
	l29.32-58.75h28.052v112.43H88.752z M211.184,495.307c-1.957,5.227-4.835,9.816-8.639,13.775c-3.805,3.959-8.479,7.104-14.026,9.424
	c-5.548,2.322-11.861,3.482-18.938,3.482c-7.08,0-13.393-1.16-18.941-3.482c-5.547-2.32-10.221-5.465-14.025-9.424
	c-3.805-3.959-6.685-8.549-8.636-13.775c-1.957-5.225-2.934-10.689-2.934-16.391c0-5.697,0.977-11.164,2.934-16.387
	c1.951-5.227,4.831-9.818,8.636-13.777c3.804-3.961,8.478-7.127,14.025-9.502c5.548-2.375,11.861-3.563,18.941-3.563
	c7.077,0,13.364,1.188,18.861,3.563c5.491,2.375,10.141,5.541,13.945,9.502c3.804,3.959,6.709,8.551,8.716,13.777
	c2.008,5.223,3.012,10.689,3.012,16.387C214.115,484.618,213.138,490.083,211.184,495.307 M182.734,463.163
	c-3.486-3.959-7.873-5.939-13.153-5.939c-2.643,0-5.099,0.533-7.371,1.586c-2.272,1.055-4.225,2.533-5.865,4.434
	c-1.639,1.898-2.931,4.197-3.881,6.887c-0.951,2.693-1.426,5.621-1.426,8.787c0,6.549,1.743,11.799,5.23,15.758
	c3.486,3.959,7.923,5.939,13.313,5.939c2.64,0,5.069-0.529,7.291-1.586c2.218-1.055,4.145-2.533,5.785-4.434
	c1.636-1.898,2.931-4.197,3.881-6.887c0.95-2.693,1.426-5.623,1.426-8.791C187.964,472.374,186.22,467.122,182.734,463.163
	 M278.302,520.407v-46.713c0-5.488-1.031-9.473-3.092-11.957c-2.061-2.479-4.781-3.721-8.163-3.721
	c-1.797,0-3.591,0.371-5.388,1.107c-1.796,0.74-3.539,1.771-5.229,3.088c-1.693,1.322-3.199,2.879-4.517,4.672
	c-1.322,1.797-2.352,3.748-3.091,5.859v47.664h-25.359v-83.133h22.822v13.932c3.065-4.959,7.396-8.787,12.996-11.479
	c5.601-2.691,12.045-4.039,19.336-4.039c5.39,0,9.719,0.979,12.998,2.93c3.272,1.955,5.809,4.488,7.605,7.6
	c1.797,3.115,2.985,6.521,3.567,10.217c0.579,3.693,0.873,7.285,0.873,10.768v53.205H278.302z M401.286,482.956
	c-0.104,1.426-0.264,2.666-0.475,3.721h-61.494c0.422,5.598,2.459,9.846,6.103,12.75c3.646,2.904,7.792,4.354,12.443,4.354
	c3.697,0,7.261-0.896,10.697-2.691c3.433-1.793,5.731-4.223,6.892-7.283l21.557,6.016c-3.278,6.547-8.347,11.875-15.216,15.994
	c-6.869,4.117-15.11,6.174-24.723,6.174c-6.976,0-13.236-1.133-18.78-3.402c-5.548-2.27-10.252-5.357-14.107-9.266
	c-3.857-3.902-6.791-8.416-8.796-13.539c-2.007-5.117-3.011-10.475-3.011-16.072c0-6.016,1.004-11.691,3.011-17.021
	c2.005-5.33,4.912-10.002,8.716-14.014c3.805-4.014,8.479-7.18,14.026-9.5c5.547-2.322,11.861-3.486,18.941-3.486
	c7.077,0,13.364,1.164,18.86,3.486c5.491,2.32,10.142,5.461,13.946,9.42s6.682,8.525,8.639,13.697
	c1.951,5.174,2.931,10.609,2.931,16.311C401.446,480.081,401.393,481.53,401.286,482.956 M368.955,458.491
	c-3.276-3.061-7.344-4.59-12.203-4.59c-4.968,0-9.06,1.555-12.283,4.67c-3.225,3.113-5.098,7.258-5.627,12.428h35.82
	C374.131,465.723,372.23,461.553,368.955,458.491 M453.428,533.866c-2.219,6.863-6.18,12.43-11.885,16.707
	s-12.47,6.412-20.286,6.412c-2.115,0-4.256-0.184-6.42-0.553c-2.165-0.371-4.357-0.977-6.578-1.82v-21.697
	c2.114,0.74,4.095,1.27,5.945,1.586c1.847,0.314,3.51,0.477,4.992,0.477c3.062,0,5.44-1.059,7.13-3.17
	c1.69-2.111,3.222-5.912,4.597-11.4l-31.698-83.133h26.151l19.336,61.439l16.642-61.439h23.772L453.428,533.866z M553.034,447.643
	c1.954,1.008,4.413,1.928,7.371,2.77c2.958,0.848,6.392,1.797,10.302,2.852c5.391,1.479,10.248,3.09,14.581,4.832
	c4.33,1.74,8.004,3.904,11.016,6.492c3.011,2.586,5.333,5.729,6.973,9.42c1.636,3.697,2.456,8.131,2.456,13.305
	c0,6.33-1.188,11.691-3.564,16.072c-2.379,4.379-5.523,7.916-9.432,10.607c-3.908,2.693-8.397,4.646-13.47,5.859
	c-5.073,1.215-10.302,1.822-15.692,1.822c-4.119,0-8.348-0.318-12.678-0.949c-4.333-0.637-8.559-1.557-12.678-2.775
	c-4.121-1.211-8.11-2.664-11.967-4.352c-3.858-1.688-7.425-3.643-10.697-5.861l11.409-22.643c0.422,0.527,1.797,1.531,4.122,3.008
	c2.323,1.479,5.203,2.959,8.639,4.434c3.43,1.48,7.261,2.801,11.49,3.959c4.223,1.164,8.502,1.742,12.838,1.742
	c9.19,0,13.788-2.797,13.788-8.391c0-2.111-0.689-3.855-2.062-5.229c-1.375-1.369-3.275-2.611-5.704-3.721
	c-2.433-1.107-5.311-2.137-8.639-3.088c-3.329-0.949-6.949-2.004-10.858-3.166c-5.176-1.582-9.666-3.299-13.47-5.146
	c-3.804-1.846-6.949-3.984-9.429-6.414c-2.486-2.426-4.336-5.225-5.547-8.393c-1.218-3.166-1.824-6.859-1.824-11.082
	c0-5.914,1.108-11.137,3.329-15.678c2.219-4.537,5.23-8.365,9.034-11.48c3.801-3.113,8.214-5.465,13.233-7.047
	c5.016-1.584,10.326-2.377,15.927-2.377c3.908,0,7.766,0.371,11.57,1.109c3.803,0.738,7.45,1.689,10.938,2.85
	c3.485,1.164,6.734,2.482,9.745,3.959c3.013,1.479,5.786,2.957,8.322,4.434l-11.413,21.535c-0.317-0.42-1.425-1.211-3.329-2.375
	c-1.9-1.158-4.276-2.375-7.13-3.641c-2.854-1.268-5.972-2.375-9.352-3.326c-3.382-0.951-6.763-1.426-10.142-1.426
	c-9.302,0-13.949,3.115-13.949,9.344c0,1.9,0.502,3.482,1.505,4.75C549.601,445.504,551.08,446.643,553.034,447.643
	 M647.414,497.051c1.372,1.213,3.115,1.818,5.23,1.818c1.903,0,3.854-0.316,5.865-0.949c2.005-0.633,3.748-1.318,5.229-2.059
	l4.911,20.111c-3.486,1.479-7.474,2.85-11.964,4.115c-4.493,1.268-9.01,1.9-13.551,1.9c-3.169,0-6.156-0.395-8.954-1.188
	c-2.8-0.789-5.259-2.059-7.371-3.799c-2.114-1.742-3.777-4.037-4.991-6.889c-1.215-2.852-1.824-6.281-1.824-10.293v-43.387h-10.616
	v-19.16h10.616v-26.447h25.358v26.447h16.96v19.16h-16.96v34.676C645.353,493.858,646.039,495.838,647.414,497.051 M754.475,495.307
	c-1.957,5.227-4.835,9.816-8.64,13.775c-3.804,3.959-8.479,7.104-14.025,9.424c-5.547,2.322-11.861,3.482-18.938,3.482
	c-7.082,0-13.393-1.16-18.939-3.482c-5.548-2.32-10.223-5.465-14.026-9.424c-3.805-3.959-6.685-8.549-8.639-13.775
	c-1.954-5.225-2.932-10.689-2.932-16.391c0-5.697,0.978-11.164,2.932-16.387c1.954-5.227,4.834-9.818,8.639-13.777
	c3.804-3.961,8.479-7.127,14.026-9.502c5.547-2.375,11.857-3.563,18.939-3.563c7.077,0,13.364,1.188,18.858,3.563
	s10.144,5.541,13.949,9.502c3.804,3.959,6.708,8.551,8.716,13.777c2.004,5.223,3.011,10.689,3.011,16.387
	C757.406,484.618,756.429,490.083,754.475,495.307 M726.025,463.163c-3.486-3.959-7.873-5.939-13.153-5.939
	c-2.643,0-5.099,0.533-7.371,1.586c-2.273,1.055-4.228,2.533-5.864,4.434c-1.64,1.898-2.932,4.197-3.881,6.887
	c-0.95,2.693-1.43,5.621-1.43,8.787c0,6.549,1.744,11.799,5.233,15.758c3.487,3.959,7.923,5.939,13.313,5.939
	c2.639,0,5.07-0.529,7.288-1.586c2.222-1.055,4.146-2.533,5.785-4.434c1.639-1.898,2.934-4.197,3.884-6.887
	c0.951-2.693,1.427-5.623,1.427-8.791C731.255,472.374,729.511,467.122,726.025,463.163 M802.89,461.975
	c-4.969,1.9-8.56,4.752-10.777,8.549v49.883h-25.357v-83.133h23.297v16.783c2.854-5.596,6.523-9.975,11.014-13.145
	c4.491-3.164,9.271-4.801,14.344-4.906h2.536c0.529,0,1.054,0.053,1.586,0.156v22.805
	C813.402,459.073,807.855,460.075,802.89,461.975 M899.726,521.438c-1.797,0.156-3.434,0.236-4.912,0.236
	c-4.755,0-8.348-0.926-10.777-2.773c-2.433-1.844-3.962-4.457-4.597-7.836l-0.476-3.803c-3.7,4.752-8.11,8.393-13.233,10.926
	c-5.125,2.537-10.539,3.801-16.244,3.801c-4.122,0-7.953-0.658-11.492-1.977c-3.54-1.318-6.575-3.168-9.111-5.545
	c-2.536-2.373-4.546-5.17-6.022-8.393c-1.482-3.219-2.219-6.729-2.219-10.531c0-4.115,0.871-7.859,2.614-11.242
	c1.742-3.377,4.198-6.277,7.37-8.707c3.168-2.43,6.92-4.326,11.252-5.701c4.33-1.369,9.139-2.059,14.422-2.059
	c3.488,0,6.868,0.291,10.144,0.869c3.273,0.582,6.127,1.453,8.559,2.613v-3.801c0-9.604-5.548-14.408-16.642-14.408
	c-4.544,0-8.874,0.766-12.996,2.295c-4.122,1.533-8.454,3.828-12.995,6.889l-7.451-15.836c5.494-3.588,11.199-6.277,17.117-8.074
	c5.916-1.795,12.206-2.693,18.861-2.693c12.574,0,22.293,2.957,29.162,8.869c6.866,5.914,10.302,14.566,10.302,25.967v21.379
	c0,2.533,0.396,4.303,1.188,5.305c0.793,1.004,2.191,1.611,4.198,1.82v21.379C903.53,520.932,901.522,521.276,899.726,521.438
	 M875.002,484.618c-2.218-0.842-4.624-1.502-7.21-1.977c-2.593-0.477-4.992-0.713-7.214-0.713c-4.65,0-8.478,1.055-11.489,3.166
	c-3.012,2.113-4.518,4.857-4.518,8.234c0,3.063,1.162,5.568,3.487,7.523c2.322,1.953,5.283,2.928,8.876,2.928
	c2.747,0,5.414-0.475,8.004-1.426c2.586-0.951,4.727-2.215,6.417-3.801c2.429-1.898,3.646-3.902,3.646-6.018V484.618z
	 M996.009,531.807c-2.378,5.066-5.682,9.369-9.907,12.906c-4.227,3.537-9.298,6.254-15.213,8.154
	c-5.919,1.902-12.417,2.852-19.497,2.852c-8.98,0-16.64-1.426-22.979-4.277c-6.34-2.85-11.888-6.965-16.642-12.35l13.631-13.777
	c3.061,3.484,6.865,6.254,11.409,8.313c4.544,2.061,9.405,3.09,14.581,3.09c3.064,0,5.969-0.424,8.719-1.266
	c2.744-0.848,5.173-2.139,7.291-3.883c2.112-1.74,3.774-4.012,4.992-6.809c1.212-2.799,1.82-6.146,1.82-10.057v-8.072
	c-2.536,4.646-6.18,8.154-10.935,10.529c-4.754,2.375-9.88,3.564-15.374,3.564s-10.513-1.111-15.056-3.326
	c-4.544-2.219-8.425-5.229-11.647-9.029c-3.226-3.797-5.734-8.23-7.528-13.301c-1.8-5.066-2.696-10.5-2.696-16.309
	c0-6.121,0.953-11.795,2.854-17.023c1.9-5.227,4.54-9.764,7.924-13.619c3.382-3.852,7.45-6.887,12.204-9.104
	c4.756-2.217,9.984-3.326,15.689-3.326c6.34,0,11.861,1.348,16.562,4.039c4.701,2.691,8.479,6.414,11.333,11.162v-13.615h22.029
	v77.43C999.573,521.04,998.385,526.741,996.009,531.807 M974.214,471.635c-1.689-4.434-4.279-7.943-7.766-10.531
	c-3.486-2.586-7.187-3.881-11.092-3.881c-2.75,0-5.259,0.609-7.528,1.822c-2.274,1.217-4.229,2.85-5.864,4.91
	c-1.641,2.059-2.908,4.434-3.806,7.125c-0.898,2.689-1.348,5.463-1.348,8.313c0,3.064,0.502,5.889,1.506,8.471
	c1.004,2.59,2.402,4.832,4.202,6.73c1.794,1.9,3.881,3.379,6.26,4.434c2.376,1.057,4.992,1.586,7.843,1.586
	c3.908,0,7.395-1.082,10.462-3.246c3.063-2.166,5.441-4.936,7.131-8.314V471.635z M1097.837,482.956
	c-0.107,1.426-0.268,2.666-0.476,3.721h-61.494c0.419,5.598,2.456,9.846,6.101,12.75c3.646,2.904,7.793,4.354,12.442,4.354
	c3.698,0,7.265-0.896,10.697-2.691c3.433-1.793,5.732-4.223,6.896-7.283l21.555,6.016c-3.276,6.547-8.349,11.875-15.217,15.994
	c-6.869,4.117-15.11,6.174-24.724,6.174c-6.972,0-13.232-1.133-18.78-3.402s-10.252-5.357-14.105-9.266
	c-3.858-3.902-6.792-8.416-8.796-13.539c-2.008-5.117-3.012-10.475-3.012-16.072c0-6.016,1.004-11.691,3.012-17.021
	c2.004-5.33,4.911-10.002,8.716-14.014c3.804-4.014,8.479-7.18,14.026-9.5c5.547-2.322,11.86-3.486,18.939-3.486
	c7.077,0,13.364,1.164,18.861,3.486c5.491,2.32,10.141,5.461,13.945,9.42s6.682,8.525,8.639,13.697
	c1.954,5.174,2.931,10.609,2.931,16.311C1097.994,480.081,1097.941,481.53,1097.837,482.956 M1065.506,458.491
	c-3.279-3.061-7.348-4.59-12.206-4.59c-4.969,0-9.061,1.555-12.282,4.67c-3.226,3.113-5.1,7.258-5.625,12.428h35.817
	C1070.679,465.723,1068.778,461.553,1065.506,458.491"/>
<polyline fill="none" points="846.637,-284.906 846.637,556.985 251.357,556.985 251.357,-284.906 "/>
</svg>
