<?xml version="1.0" encoding="utf-8"?>
<!-- Generator: Adobe Illustrator 16.0.2, SVG Export Plug-In . SVG Version: 6.00 Build 0)  -->
<!DOCTYPE svg PUBLIC "-//W3C//DTD SVG 1.1//EN" "http://www.w3.org/Graphics/SVG/1.1/DTD/svg11.dtd">
<svg version="1.1" id="historyIcon1" xmlns="http://www.w3.org/2000/svg" xmlns:xlink="http://www.w3.org/1999/xlink" x="0px"
	 y="0px" width="349px" height="349px" viewBox="103.615 91.854 349 349" enable-background="new 103.615 91.854 349 349"
	 xml:space="preserve">
<circle fill="#BF0000" cx="278.115" cy="266.354" r="174.5"/>
<g>
	<g>
		<path fill="#FFFFFF" d="M371.301,248.333l-72.319-61.687c-2.109-1.832-5.098-2.23-7.646-1.035
			c-2.548,1.154-4.183,3.703-4.183,6.49v30.106c-18.357,0.956-34.963,4.979-49.418,11.987c-14.137,6.85-26.244,16.527-35.961,28.75
			C184.212,285.009,178,310.973,178,327.898c0,3.266,2.23,6.133,5.376,6.929c0.597,0.159,1.194,0.239,1.792,0.239
			c2.589,0,5.018-1.396,6.292-3.703c14.774-26.922,38.549-41.098,74.787-44.563c3.942-0.358,6.851-3.862,6.451-7.807
			c-0.357-3.943-3.902-6.851-7.806-6.451c-18.16,1.752-33.332,5.854-46.354,12.625c-7.726,3.979-14.695,8.959-20.907,14.854
			c3.266-9.318,8.283-19.114,15.412-28.076c18.479-23.215,45.875-35.161,81.396-35.521c3.942-0.039,7.089-3.226,7.089-7.168v-21.504
			l54.121,46.155l-54.159,46.153v-21.506c0-3.94-3.227-7.166-7.17-7.166c-3.941,0-7.168,3.226-7.168,7.166v37.076
			c0,2.787,1.635,5.336,4.183,6.491c2.549,1.153,5.535,0.757,7.646-1.076l72.317-61.845c1.594-1.354,2.51-3.346,2.51-5.455
			C373.809,251.677,372.893,249.688,371.301,248.333z"/>
	</g>
</g>
</svg>
