<?xml version="1.0" encoding="utf-8"?>
<!-- Generator: Adobe Illustrator 16.0.2, SVG Export Plug-In . SVG Version: 6.00 Build 0)  -->
<!DOCTYPE svg PUBLIC "-//W3C//DTD SVG 1.1//EN" "http://www.w3.org/Graphics/SVG/1.1/DTD/svg11.dtd">
<svg version="1.1" id="historyIcon1" xmlns="http://www.w3.org/2000/svg" xmlns:xlink="http://www.w3.org/1999/xlink" x="0px"
	 y="0px" width="349px" height="349px" viewBox="103.615 91.854 349 349" enable-background="new 103.615 91.854 349 349"
	 xml:space="preserve">
<circle fill="#BF0000" cx="278.115" cy="266.354" r="174.5"/>
<g>
	<g>
		<path fill="#FFFFFF" d="M178,253.748c0,2.109,0.916,4.102,2.51,5.455l72.318,61.845c2.111,1.833,5.098,2.229,7.646,1.076
			c2.547-1.155,4.182-3.704,4.182-6.491v-37.076c0-3.939-3.227-7.166-7.168-7.166c-3.943,0-7.17,3.227-7.17,7.166v21.508
			L196.16,253.91l54.119-46.155v21.504c0,3.942,3.146,7.128,7.09,7.168c35.521,0.359,62.92,12.306,81.396,35.521
			c7.129,8.962,12.146,18.758,15.412,28.075c-6.212-5.896-13.181-10.873-20.906-14.854c-13.021-6.771-28.194-10.873-46.354-12.625
			c-3.903-0.396-7.448,2.508-7.806,6.451c-0.399,3.941,2.509,7.445,6.451,7.807c36.236,3.467,60.013,17.643,74.786,44.563
			c1.273,2.309,3.702,3.702,6.291,3.702c0.599,0,1.195-0.08,1.793-0.238c3.146-0.796,5.375-3.663,5.375-6.93
			c0-16.926-6.212-42.891-23.771-64.953c-9.718-12.223-21.824-21.899-35.962-28.75c-14.454-7.008-31.062-11.03-49.418-11.986
			v-30.105c0-2.787-1.635-5.336-4.182-6.492c-2.551-1.194-5.537-0.797-7.646,1.035l-72.32,61.688
			C178.918,249.688,178.002,251.677,178,253.748z"/>
	</g>
</g>
</svg>
