<?xml version="1.0" encoding="utf-8"?>
<!-- Generator: Adobe Illustrator 16.0.0, SVG Export Plug-In . SVG Version: 6.00 Build 0)  -->
<!DOCTYPE svg PUBLIC "-//W3C//DTD SVG 1.1//EN" "http://www.w3.org/Graphics/SVG/1.1/DTD/svg11.dtd">
<svg version="1.1" id="historyIcon1" xmlns="http://www.w3.org/2000/svg" xmlns:xlink="http://www.w3.org/1999/xlink" x="0px"
	 y="0px" width="349px" height="349px" viewBox="103.615 91.854 349 349" enable-background="new 103.615 91.854 349 349"
	 xml:space="preserve">
<circle fill="#BF0000" cx="278.115" cy="266.354" r="174.5"/>
<g display="none">
	<path display="inline" fill="#FFFFFF" d="M394.126,184.945c-8.793-8.792-23.097-8.791-31.89,0l-27.594,27.593H182.777
		c-3.898,0-7.059,3.16-7.059,7.059v106.334c0,3.898,3.16,7.061,7.059,7.061H348.15c3.897,0,7.06-3.16,7.06-7.061v-70.184
		l38.916-38.916C402.917,208.041,402.917,193.736,394.126,184.945z M378.182,187.752c3.51,0,6.81,1.366,9.289,3.848
		c4.889,4.889,5.107,12.702,0.662,17.858l-18.521-18.521C371.995,188.878,375.001,187.752,378.182,187.752z M335.232,259.6
		l-15.764-15.763l-1.404-1.407l44.862-44.866l18.578,18.578l-44.864,44.865L335.232,259.6z M314.986,252.663l2.383,2.382
		l-8.494,8.495c-1.838,1.838-1.838,4.817,0,6.655c0.919,0.919,2.123,1.379,3.327,1.379s2.407-0.46,3.327-1.379l8.494-8.495
		l2.383,2.383l-4.949,12.728l-27.373,8.176l8.176-27.372L314.986,252.663z M341.093,318.873H189.836v-92.218h130.689l-12.445,12.447
		c-1.719,1.717-1.828,4.432-0.336,6.28l-11.039,4.293c-1.354,0.526-2.389,1.648-2.805,3.039l-10.987,36.789l-4.698,4.697
		l-5.539-5.539c-1.838-1.837-4.816-1.837-6.654,0c-1.838,1.838-1.838,4.817,0,6.655l5.539,5.539l-5.539,5.537
		c-1.838,1.838-1.838,4.816,0,6.655c0.918,0.918,2.123,1.378,3.328,1.378c1.203,0,2.408-0.46,3.326-1.378l5.539-5.539l5.539,5.539
		c0.92,0.918,2.123,1.378,3.328,1.378c1.204,0,2.409-0.46,3.327-1.378c1.838-1.838,1.838-4.815,0-6.655l-5.538-5.537l4.697-4.697
		l36.789-10.989c1.391-0.416,2.513-1.45,3.039-2.803l4.293-11.039c0.857,0.692,1.903,1.041,2.953,1.041
		c1.205,0,2.406-0.46,3.325-1.378l1.124-1.124L341.093,318.873L341.093,318.873z"/>
	<path display="inline" fill="#FFFFFF" d="M206.742,251.226h73.84c2.6,0,4.707-2.107,4.707-4.706s-2.107-4.706-4.707-4.706h-73.84
		c-2.599,0-4.706,2.107-4.706,4.706S204.143,251.226,206.742,251.226z"/>
	<path display="inline" fill="#FFFFFF" d="M275.535,266.023c0-2.599-2.105-4.705-4.705-4.705h-64.088
		c-2.599,0-4.706,2.106-4.706,4.705c0,2.601,2.107,4.707,4.706,4.707h64.088C273.43,270.73,275.535,268.624,275.535,266.023z"/>
</g>
<g>
	<g>
		<path fill="#FFFFFF" d="M178,253.748c0,2.11,0.916,4.102,2.51,5.455l72.318,61.845c2.111,1.833,5.098,2.23,7.646,1.076
			c2.547-1.155,4.182-3.704,4.182-6.491v-37.076c0-3.94-3.227-7.166-7.168-7.166c-3.943,0-7.169,3.226-7.169,7.166v21.507
			l-54.159-46.154l54.12-46.155v21.504c0,3.942,3.146,7.128,7.089,7.168c35.521,0.359,62.92,12.306,81.396,35.521
			c7.129,8.962,12.146,18.758,15.412,28.076c-6.212-5.896-13.181-10.873-20.906-14.854c-13.021-6.771-28.195-10.873-46.354-12.625
			c-3.903-0.397-7.448,2.508-7.806,6.451c-0.399,3.942,2.509,7.446,6.451,7.807c36.237,3.466,60.013,17.643,74.787,44.563
			c1.273,2.309,3.702,3.703,6.291,3.703c0.598,0,1.195-0.08,1.793-0.239c3.146-0.796,5.375-3.663,5.375-6.929
			c0-16.927-6.212-42.891-23.772-64.953c-9.718-12.223-21.824-21.9-35.962-28.75c-14.454-7.008-31.061-11.031-49.418-11.987v-30.106
			c0-2.787-1.635-5.336-4.182-6.491c-2.55-1.195-5.537-0.797-7.646,1.035l-72.32,61.687
			C178.918,249.687,178.002,251.677,178,253.748z"/>
	</g>
</g>
</svg>
