<?xml version="1.0" encoding="utf-8"?>
<!-- Generator: Adobe Illustrator 16.0.2, SVG Export Plug-In . SVG Version: 6.00 Build 0)  -->
<!DOCTYPE svg PUBLIC "-//W3C//DTD SVG 1.1//EN" "http://www.w3.org/Graphics/SVG/1.1/DTD/svg11.dtd">
<svg version="1.1" id="Слой_1" xmlns="http://www.w3.org/2000/svg" xmlns:xlink="http://www.w3.org/1999/xlink" x="0px" y="0px"
	 width="96.957px" height="97.428px" viewBox="0 0 96.957 97.428" enable-background="new 0 0 96.957 97.428" xml:space="preserve">
<g>
	<path fill="#9E0000" d="M93.356,0H13.921C6.244,0,0,6.245,0,13.921v69.093c0,7.948,6.466,14.414,14.415,14.414h78.942
		c1.987,0,3.601-1.611,3.601-3.601V3.601C96.957,1.612,95.346,0,93.356,0z M13.921,7.201h75.835v13.44H84.16v-6.72
		c0-1.326-1.075-2.4-2.401-2.4H7.646C8.615,8.998,11.062,7.201,13.921,7.201z M79.357,20.641H13.92
		c-2.859,0-5.306-1.797-6.274-4.319h71.711V20.641L79.357,20.641z M14.415,90.227c-3.978,0-7.213-3.236-7.213-7.213V26.108
		c1.994,1.104,4.284,1.734,6.719,1.734h75.835v17.951H74.447c-7.303,0-13.242,5.94-13.242,13.243
		c0,7.301,5.939,13.241,13.242,13.241h15.309v17.95H14.415z M89.756,67.476H74.447c-4.655,0-8.441-3.787-8.441-8.44
		c0-4.655,3.786-8.441,8.441-8.441h15.309V67.476z"/>
	<path fill="#9E0000" d="M71.099,59.033c0,0.948,0.385,1.877,1.055,2.547c0.669,0.67,1.598,1.054,2.548,1.054
		c0.947,0,1.874-0.384,2.543-1.054c0.673-0.67,1.057-1.599,1.057-2.547c0-0.947-0.384-1.875-1.057-2.545
		c-0.669-0.672-1.596-1.056-2.543-1.056c-0.95,0-1.879,0.384-2.548,1.056C71.483,57.158,71.099,58.087,71.099,59.033z"/>
</g>
</svg>
