<?xml version="1.0" encoding="utf-8"?>
<!-- Generator: Adobe Illustrator 16.0.2, SVG Export Plug-In . SVG Version: 6.00 Build 0)  -->
<!DOCTYPE svg PUBLIC "-//W3C//DTD SVG 1.1//EN" "http://www.w3.org/Graphics/SVG/1.1/DTD/svg11.dtd">
<svg version="1.1" id="Capa_1" xmlns="http://www.w3.org/2000/svg" xmlns:xlink="http://www.w3.org/1999/xlink" x="0px" y="0px"
	 width="512px" height="512px" viewBox="0 0 512 512" enable-background="new 0 0 512 512" xml:space="preserve">
<g>
	<path fill="#D80027" d="M460.584,0H51.416C24.042,0,1.771,22.27,1.771,49.645v85.273c0,27.375,22.271,49.645,49.645,49.645h16.147
		v310.018c0,9.62,7.799,17.419,17.419,17.419h342.035c9.62,0,17.419-7.799,17.419-17.419V184.563h16.146
		c27.374,0,49.645-22.27,49.645-49.645V49.645C510.229,22.27,487.958,0,460.584,0z M102.403,103.896h307.195v314.022
		c-29.427,6.646-52.637,29.83-59.32,59.243H161.722c-6.683-29.411-29.893-52.597-59.319-59.243L102.403,103.896L102.403,103.896z
		 M102.403,441.987c16.592,5.478,29.731,18.596,35.24,35.174h-35.24V441.987z M374.356,477.161
		c5.509-16.579,18.647-29.696,35.241-35.175v35.175H374.356z M475.391,134.918c0,8.164-6.643,14.807-14.807,14.807h-28.068v-45.829
		h18.581c6.412,0,11.612-5.199,11.612-11.613s-5.2-11.613-11.612-11.613H60.905c-6.414,0-11.613,5.199-11.613,11.613
		s5.199,11.613,11.613,11.613h18.581v45.829H51.416c-8.164,0-14.807-6.643-14.807-14.807V49.645c0-8.165,6.643-14.807,14.807-14.807
		h409.167c8.164,0,14.807,6.642,14.807,14.807L475.391,134.918L475.391,134.918z"/>
	<path fill="#D80027" d="M233.237,258.375c15.602,0,28.761-10.642,32.61-25.047h31.282c-2.898,4.576-7.993,7.628-13.798,7.628
		c-4.813,0-8.711,3.9-8.711,8.71c0,4.81,3.898,8.709,8.711,8.709c15.603,0,28.761-10.642,32.611-25.047h4.041
		c4.811,0,8.709-3.899,8.709-8.709s-3.898-8.71-8.709-8.71h-4.041c-3.851-14.404-17.009-25.047-32.611-25.047
		s-28.761,10.642-32.612,25.047h-31.282c2.899-4.575,7.993-7.628,13.799-7.628c4.81,0,8.709-3.899,8.709-8.709
		s-3.9-8.709-8.709-8.709c-15.603,0-28.762,10.642-32.613,25.047h-4.04c-4.81,0-8.709,3.9-8.709,8.71s3.899,8.709,8.709,8.709h4.04
		C204.477,247.733,217.634,258.375,233.237,258.375z M233.237,240.956c-5.806,0-10.9-3.053-13.799-7.628h27.597
		C244.137,237.903,239.042,240.956,233.237,240.956z M283.332,208.281c5.805,0,10.899,3.053,13.798,7.628h-27.597
		C272.432,211.334,277.526,208.281,283.332,208.281z"/>
	<path fill="#D80027" d="M258.283,331.758c59.077,0,107.141-48.062,107.141-107.14s-48.063-107.14-107.141-107.14
		c-59.077,0-107.14,48.062-107.14,107.14S199.207,331.758,258.283,331.758z M258.283,140.705c46.271,0,83.915,37.645,83.915,83.915
		c0,46.271-37.645,83.914-83.915,83.914c-46.27,0-83.914-37.644-83.914-83.914C174.369,178.349,212.014,140.705,258.283,140.705z"/>
</g>
</svg>
