<?xml version="1.0" encoding="utf-8"?>
<!-- Generator: Adobe Illustrator 16.0.0, SVG Export Plug-In . SVG Version: 6.00 Build 0)  -->
<!DOCTYPE svg PUBLIC "-//W3C//DTD SVG 1.1//EN" "http://www.w3.org/Graphics/SVG/1.1/DTD/svg11.dtd">
<svg version="1.1" id="Capa_1" xmlns="http://www.w3.org/2000/svg" xmlns:xlink="http://www.w3.org/1999/xlink" x="0px" y="0px"
	 width="512px" height="512px" viewBox="0 0 512 512" enable-background="new 0 0 512 512" xml:space="preserve">
<g>
	<path fill="#D71F27" d="M383.439,260.027c-8.53-4.956-20.861-9.458-36.993-13.599c15.024-5.113,27.106-11.54,36.292-19.345
		c9.14-7.829,16.177-16.811,21.064-26.993c4.864-10.204,7.264-20.974,7.264-32.332c0-15.611-4.571-29.979-13.779-43.056
		c-9.188-13.078-22.332-23.102-39.438-30.093c-6.605-2.715-14.503-4.729-23.077-6.402V27.502h-58.286v56.587h-37.467V27.502h-58.284
		v56.587H91.839v47.604h13.575c9.028,0,15.159,0.814,18.372,2.467c3.214,1.651,5.476,3.869,6.789,6.651
		c1.312,2.806,1.968,9.299,1.968,19.481v191.889c0,10.023-0.656,16.494-1.968,19.367c-1.335,2.874-3.575,5.113-6.789,6.652
		c-3.212,1.561-9.344,2.354-18.372,2.354H91.839v47.604h88.896v56.609h58.284v-56.609h33.17c1.471,0,2.85-0.046,4.274-0.046v56.655
		h58.263v-61.52c9.819-1.9,18.394-4.254,25.747-7.195c20.138-8.009,35.683-19.774,46.654-35.138
		c10.975-15.386,16.494-32.219,16.494-50.455c0-15.296-3.619-29.144-10.837-41.563C405.546,276.589,395.771,266.905,383.439,260.027
		z M217.66,139.635h37.718c22.06,0,37.332,1.358,45.885,4.073c8.576,2.715,15.092,7.285,19.616,13.688
		c4.526,6.426,6.788,14.141,6.788,23.169c0,8.733-2.353,16.427-7.128,23.101c-4.773,6.675-11.855,11.652-21.313,14.911
		c-9.435,3.303-24.027,4.955-43.804,4.955h-37.717L217.66,139.635L217.66,139.635z M324.206,352.25
		c-6.721,8.574-14.867,14.231-24.482,16.901c-9.615,2.715-21.697,4.096-36.29,4.096h-25.116c-8.372,0-13.508-0.476-15.408-1.404
		c-1.878-0.905-3.235-2.442-4.05-4.796c-0.656-1.811-1.063-7.987-1.221-18.462v-74.554h44.55c19.503,0,34.052,1.834,43.577,5.432
		c9.502,3.62,16.63,8.958,21.382,16.041c4.795,7.082,7.147,15.703,7.147,25.93C334.341,333.425,330.948,343.697,324.206,352.25z"/>
</g>
</svg>
