<?xml version="1.0" encoding="utf-8"?>
<!-- Generator: Adobe Illustrator 16.0.0, SVG Export Plug-In . SVG Version: 6.00 Build 0)  -->
<!DOCTYPE svg PUBLIC "-//W3C//DTD SVG 1.1//EN" "http://www.w3.org/Graphics/SVG/1.1/DTD/svg11.dtd">
<svg version="1.1" id="Layer_1" xmlns="http://www.w3.org/2000/svg" xmlns:xlink="http://www.w3.org/1999/xlink" x="0px" y="0px"
	 width="512px" height="512px" viewBox="0 0 512 512" enable-background="new 0 0 512 512" xml:space="preserve">
<path fill="#D80027" d="M286.816,261.758c-2.148-2.148-2.148-5.368,0-7.515l80.515-80.513c2.146-2.147,3.22-5.367,3.22-7.515
	c0-2.147-1.073-5.368-3.22-7.516L352.3,143.67c-2.146-2.147-5.368-3.22-7.515-3.22c-3.221,0-5.368,1.073-7.515,3.22l-80.513,80.514
	c-2.148,2.146-5.367,2.146-7.515,0L168.73,143.67c-2.147-2.147-5.368-3.22-7.515-3.22c-2.147,0-5.368,1.073-7.514,3.22
	l-15.03,15.029c-2.146,2.147-3.22,5.369-3.22,7.516c0,2.147,1.074,5.368,3.22,7.515l80.514,80.513c2.147,2.147,2.147,5.367,0,7.515
	l-80.514,80.514c-2.146,2.146-3.22,5.367-3.22,7.515c0,2.146,1.074,5.368,3.22,7.514l15.03,15.028
	c2.146,2.148,5.367,3.222,7.514,3.222c2.147,0,5.368-1.073,7.515-3.222l80.513-80.512c2.148-2.146,5.367-2.146,7.515,0
	l80.513,80.512c2.146,2.148,5.368,3.222,7.515,3.222s5.368-1.073,7.515-3.222l15.03-15.028c2.146-2.146,3.22-5.368,3.22-7.514
	c0-2.147-1.073-5.368-3.22-7.515L286.816,261.758z"/>
<g>
	<g>
		<path fill="#D80027" d="M255,19.5C124.593,19.5,18.5,125.594,18.5,256c0,130.406,106.092,236.5,236.5,236.5
			c130.408,0,236.5-106.094,236.5-236.5C491.5,125.594,385.408,19.5,255,19.5z M255,457.89C143.678,457.89,53.11,367.323,53.11,256
			C53.11,144.677,143.678,54.109,255,54.109S456.89,144.677,456.89,256C456.89,367.323,366.323,457.89,255,457.89z"/>
	</g>
</g>
</svg>
