<?xml version="1.0" encoding="utf-8"?>
<!-- Generator: Adobe Illustrator 16.0.2, SVG Export Plug-In . SVG Version: 6.00 Build 0)  -->
<!DOCTYPE svg PUBLIC "-//W3C//DTD SVG 1.1//EN" "http://www.w3.org/Graphics/SVG/1.1/DTD/svg11.dtd">
<svg version="1.1" id="Layer_1" xmlns="http://www.w3.org/2000/svg" xmlns:xlink="http://www.w3.org/1999/xlink" x="0px" y="0px"
	 width="302.916px" height="329.542px" viewBox="349.623 321.228 302.916 329.542"
	 enable-background="new 349.623 321.228 302.916 329.542" xml:space="preserve">
<path fill="#D81616" d="M551.257,476.666c-0.845-33.933-4.091-63.875-10.898-79.157c-7.783-17.458-20.701-26.19-38.759-26.19
	s-30.978,8.733-38.757,26.19c-7.782,17.458-11.69,43.362-11.69,88.057c0,43.547,3.982,69.873,11.911,87.712
	c7.927,17.84,20.771,26.759,38.536,26.759c17.762,0,30.609-8.919,38.536-26.759c6.813-15.328,10.181-44.481,11.137-79.201
	l101.266,0.015l-14.95,33.348l-28.682,0.198c-0.869,7.296-2.562,22.97-3.839,29.693c-4.005,21.048-10.246,38.305-18.726,51.77
	c-8.717,13.751-19.902,24.133-33.563,31.146c-13.662,7.016-30.503,10.523-50.521,10.523c-19.668,0-36.45-3.546-50.345-10.63
	c-13.897-7.085-25.146-17.574-33.74-31.465c-8.716-13.891-15.015-31.146-18.9-51.771c-1.227-6.508-3.229-18.014-3.729-29.469
	l-45.921,0.038l14.748-33.068h29.056c-0.032-1.782-0.206-11.875-0.001-17.811l-43.802,0.084l14.898-34.202l31.022-0.028
	c0.496-11.729,2.552-21.256,3.904-28.099c4.002-20.268,10.361-37.418,19.078-51.45c8.714-13.891,20.019-24.308,33.917-31.254
	c13.894-6.944,30.499-10.417,49.814-10.417c20.139,0,37.035,3.579,50.697,10.736c13.66,7.157,24.848,17.824,33.563,31.996
	c8.595,13.891,14.839,31.008,18.725,51.345c1.256,6.573,2.905,20.346,3.22,27.854l44.075-0.069l-15.014,33.573h-86.269V476.666z"/>
</svg>
