<?xml version="1.0" encoding="utf-8"?>
<!-- Generator: Adobe Illustrator 16.0.2, SVG Export Plug-In . SVG Version: 6.00 Build 0)  -->
<!DOCTYPE svg PUBLIC "-//W3C//DTD SVG 1.1//EN" "http://www.w3.org/Graphics/SVG/1.1/DTD/svg11.dtd">
<svg version="1.1" id="Capa_1" xmlns="http://www.w3.org/2000/svg" xmlns:xlink="http://www.w3.org/1999/xlink" x="0px" y="0px"
	 width="512px" height="512px" viewBox="0 0 512 512" enable-background="new 0 0 512 512" xml:space="preserve">
<g>
	<path fill="#D80027" d="M366.196,284.74c0,6.517,5.283,11.8,11.8,11.8c6.518,0,11.801-5.283,11.801-11.8
		c0-24.598-17.183-45.245-40.172-50.605v-8.18c0-6.517-5.283-11.8-11.801-11.8c-6.517,0-11.8,5.283-11.8,11.8v8.18
		c-22.989,5.359-40.172,26.007-40.172,50.605s17.183,45.244,40.172,50.604v55.53c-9.769-4.486-16.571-14.356-16.571-25.79
		c0-6.518-5.283-11.801-11.801-11.801s-11.8,5.283-11.8,11.801c0,24.598,17.183,45.244,40.172,50.604v8.181
		c0,6.518,5.283,11.8,11.8,11.8c6.518,0,11.801-5.282,11.801-11.8v-8.181c22.989-5.359,40.172-26.006,40.172-50.604
		s-17.183-45.245-40.172-50.605v-55.529C359.394,263.437,366.196,273.305,366.196,284.74z M309.453,284.74
		c0-11.436,6.803-21.304,16.571-25.791v51.581C316.257,306.044,309.453,296.174,309.453,284.74z M366.196,365.084
		c0,11.436-6.803,21.304-16.571,25.791v-51.581C359.394,343.78,366.196,353.648,366.196,365.084z"/>
	<path fill="#D80027" d="M347.233,150.992V30.614c0-9.775-7.926-17.701-17.701-17.701H17.701C7.925,12.913,0,20.838,0,30.614
		v450.773c0,9.775,7.925,17.7,17.701,17.7h311.832c0.688,0,1.362-0.049,2.029-0.125c2.08,0.074,4.166,0.125,6.265,0.125
		c96.04,0,174.175-78.135,174.175-174.175C512,232.028,438.916,155.896,347.233,150.992z M163.752,319.222H35.401v-51.421h137.876
		C167.64,283.995,164.332,301.269,163.752,319.222z M35.401,342.822h129.164c1.857,18.1,6.507,35.382,13.495,51.421H35.401V342.822z
		 M183.518,244.2H35.401v-51.421h189.072C207.78,207.12,193.833,224.561,183.518,244.2z M259.887,169.178H35.401v-51.42h276.431
		v34.919C293.422,155.443,275.951,161.106,259.887,169.178z M311.832,48.314v45.843H35.401V48.314H311.832z M35.401,463.686v-45.843
		h155.177c11.201,17.684,25.495,33.218,42.119,45.843H35.401z M337.824,463.686c-76.52,0-138.774-62.254-138.774-138.773
		c0-76.521,62.254-138.775,138.774-138.775c76.521,0,138.774,62.254,138.774,138.775
		C476.599,401.432,414.345,463.686,337.824,463.686z"/>
</g>
</svg>
