<?xml version="1.0" encoding="utf-8"?>
<!-- Generator: Adobe Illustrator 16.0.2, SVG Export Plug-In . SVG Version: 6.00 Build 0)  -->
<!DOCTYPE svg PUBLIC "-//W3C//DTD SVG 1.1//EN" "http://www.w3.org/Graphics/SVG/1.1/DTD/svg11.dtd">
<svg version="1.1" id="Слой_1" xmlns="http://www.w3.org/2000/svg" xmlns:xlink="http://www.w3.org/1999/xlink" x="0px" y="0px"
	 width="16.98px" height="16.98px" viewBox="0 0 16.98 16.98" enable-background="new 0 0 16.98 16.98" xml:space="preserve">
<path fill="#383838" d="M14.281,0.102c-0.137-0.136-0.359-0.136-0.495,0L8.738,5.15c-0.136,0.136-0.359,0.136-0.495,0L3.194,0.102
	c-0.136-0.136-0.358-0.136-0.494,0L0.102,2.699c-0.136,0.137-0.136,0.359,0,0.495L5.15,8.242c0.136,0.137,0.136,0.359,0,0.495
	l-5.048,5.049c-0.136,0.136-0.136,0.358,0,0.495L2.7,16.879c0.136,0.135,0.358,0.135,0.494,0l5.049-5.049
	c0.136-0.136,0.358-0.136,0.495,0l5.048,5.048c0.136,0.136,0.358,0.136,0.495,0l2.598-2.597c0.135-0.137,0.135-0.359,0-0.496
	L11.83,8.737c-0.136-0.136-0.136-0.358,0-0.495l5.049-5.047c0.135-0.137,0.135-0.359,0-0.496L14.281,0.102z"/>
</svg>
