<?xml version="1.0" encoding="utf-8"?>
<!-- Generator: Adobe Illustrator 16.0.0, SVG Export Plug-In . SVG Version: 6.00 Build 0)  -->
<!DOCTYPE svg PUBLIC "-//W3C//DTD SVG 1.1//EN" "http://www.w3.org/Graphics/SVG/1.1/DTD/svg11.dtd">
<svg version="1.1" id="Layer_1" xmlns="http://www.w3.org/2000/svg" xmlns:xlink="http://www.w3.org/1999/xlink" x="0px" y="0px"
	 width="500px" height="500px" viewBox="0 0 500 500" enable-background="new 0 0 500 500" xml:space="preserve">
<path fill="#D71F27" d="M249.979,60.049c-104.579,0-189.662,85.075-189.662,189.647c0,104.575,85.083,189.652,189.662,189.652
	c73.704,0,137.715-42.256,169.092-103.808h-81.127c-22.22,22.762-53.217,36.919-87.464,36.919
	c-67.423,0-122.274-54.846-122.274-122.262c0-67.418,54.851-122.264,122.274-122.264c55.466,0,102.418,37.125,117.325,87.827
	h-72.132c-10.371-13.936-26.969-22.966-45.678-22.966c-31.424,0-56.897,25.473-56.897,56.895c0,31.419,25.474,56.893,56.897,56.893
	c19.141,0,36.057-9.46,46.371-23.944h72.004h61.29h7.114c1.881-10.704,2.868-21.707,2.868-32.941
	C439.644,145.125,354.562,60.049,249.979,60.049z M238.219,272.641c2.057,4.627,5.389,6.941,9.998,6.941
	c4.607,0,7.941-2.314,9.997-6.941c1.768-3.977,2.641-11.539,2.89-20.547l26.27,0.004l-3.878,8.65l-7.44,0.053
	c-0.227,1.893-0.664,5.958-0.997,7.702c-1.038,5.46-2.657,9.937-4.856,13.43c-2.262,3.567-5.164,6.261-8.707,8.081
	c-3.545,1.82-7.913,2.729-13.106,2.729c-5.102,0-9.456-0.92-13.061-2.758c-3.605-1.837-6.522-4.56-8.752-8.162
	c-2.261-3.604-3.896-8.081-4.903-13.431c-0.318-1.688-0.837-4.673-0.967-7.645l-11.913,0.01l3.826-8.579h7.538
	c-0.009-0.462-0.053-3.08,0-4.62l-11.363,0.022l3.864-8.873l8.048-0.007c0.129-3.042,0.662-5.515,1.013-7.29
	c1.038-5.258,2.688-9.707,4.949-13.347c2.26-3.604,5.193-6.306,8.798-8.108c3.605-1.801,7.912-2.702,12.923-2.702
	c5.224,0,9.608,0.928,13.152,2.785s6.445,4.624,8.706,8.3c2.23,3.604,3.851,8.044,4.858,13.32c0.326,1.705,0.753,5.278,0.835,7.226
	l11.434-0.018l-3.895,8.709h-22.38v0c-0.219-8.803-1.061-16.57-2.827-20.535c-2.019-4.529-5.37-6.794-10.054-6.794
	c-4.685,0-8.037,2.266-10.054,6.794c-2.02,4.529-3.033,11.249-3.033,22.844C235.129,261.183,236.163,268.013,238.219,272.641z"/>
</svg>
