<?xml version="1.0" encoding="utf-8"?>
<!-- Generator: Adobe Illustrator 16.0.0, SVG Export Plug-In . SVG Version: 6.00 Build 0)  -->
<!DOCTYPE svg PUBLIC "-//W3C//DTD SVG 1.1//EN" "http://www.w3.org/Graphics/SVG/1.1/DTD/svg11.dtd">
<svg version="1.1" id="Layer_1" xmlns="http://www.w3.org/2000/svg" xmlns:xlink="http://www.w3.org/1999/xlink" x="0px" y="0px"
	 width="500px" height="500px" viewBox="0 0 500 500" enable-background="new 0 0 500 500" xml:space="preserve">
<g>
	<path fill="#D71F27" d="M249.979,60.049c-104.579,0-189.662,85.075-189.662,189.647c0,104.575,85.083,189.652,189.662,189.652
		c73.704,0,137.715-42.256,169.092-103.808h-81.127c-22.22,22.762-53.217,36.919-87.464,36.919
		c-67.423,0-122.274-54.846-122.274-122.262c0-67.418,54.851-122.264,122.274-122.264c55.466,0,102.418,37.125,117.325,87.827
		h-72.132c-10.371-13.936-26.969-22.966-45.678-22.966c-31.424,0-56.897,25.473-56.897,56.895c0,31.419,25.474,56.893,56.897,56.893
		c19.141,0,36.057-9.46,46.371-23.944h72.004h61.29h7.114c1.881-10.704,2.868-21.707,2.868-32.941
		C439.644,145.125,354.562,60.049,249.979,60.049z M268.845,290.337c-0.245,0.431-0.592,0.729-1.044,0.891l-0.308,0.063
		c-0.162,0.08-0.378,0.153-0.644,0.216c-0.269,0.06-0.594,0.152-0.983,0.274c-0.389,0.123-0.831,0.234-1.322,0.338
		c-0.491,0.103-1.014,0.203-1.565,0.306c-0.554,0.104-1.168,0.205-1.844,0.309s-1.362,0.194-2.059,0.275
		c-0.695,0.08-1.441,0.142-2.242,0.184c-0.799,0.043-1.587,0.062-2.366,0.062c-9.584,0-17.961-2.673-25.129-8.02
		c-7.168-5.344-12.043-12.543-14.623-21.596h-5.837c-0.533,0-0.993-0.192-1.382-0.581c-0.389-0.391-0.584-0.851-0.584-1.385v-6.943
		c0-0.531,0.195-0.991,0.584-1.381c0.389-0.389,0.849-0.583,1.382-0.583h4.055c-0.081-2.336-0.062-4.485,0.063-6.452h-4.117
		c-0.573,0-1.044-0.184-1.413-0.553c-0.369-0.368-0.553-0.839-0.553-1.413v-7.005c0-0.573,0.185-1.044,0.553-1.413
		c0.369-0.369,0.839-0.553,1.413-0.553h6.021c2.745-8.601,7.732-15.524,14.961-20.767s15.431-7.864,24.608-7.864
		c4.177,0,8.151,0.472,11.92,1.413c0.45,0.123,0.859,0.43,1.229,0.922c0.245,0.451,0.307,0.942,0.184,1.475l-2.642,9.769
		c-0.124,0.533-0.41,0.932-0.862,1.199c-0.451,0.266-0.941,0.318-1.473,0.153l-0.247-0.062c-0.163-0.041-0.399-0.091-0.706-0.154
		l-1.075-0.214c0,0-0.462-0.072-1.385-0.215c-0.921-0.142-1.454-0.204-1.597-0.184c-0.141,0.021-0.736-0.031-1.781-0.153
		c-1.044-0.123-1.646-0.143-1.812-0.061c-5.161,0-9.79,1.31-13.886,3.932c-4.096,2.622-7.168,6.226-9.216,10.813h28.755
		c0.655,0,1.168,0.247,1.534,0.739c0.412,0.491,0.553,1.023,0.431,1.597l-1.475,7.005c-0.204,1.064-0.859,1.596-1.967,1.596h-29.982
		c-0.123,1.517-0.123,3.667,0,6.452h28.199c0.615,0,1.128,0.246,1.536,0.738c0.369,0.49,0.491,1.044,0.369,1.657l-1.476,6.883
		c-0.08,0.45-0.305,0.831-0.675,1.137c-0.368,0.308-0.778,0.461-1.229,0.461h-23.777c1.966,4.792,5.027,8.591,9.185,11.397
		c4.157,2.806,8.837,4.208,14.039,4.208c0.738,0,1.476-0.031,2.214-0.093c0.737-0.06,1.422-0.134,2.057-0.213
		c0.634-0.084,1.24-0.176,1.812-0.277c0.575-0.104,1.075-0.204,1.506-0.308c0.43-0.103,0.809-0.195,1.138-0.276l0.737-0.185
		l0.308-0.122c0.531-0.204,1.064-0.164,1.597,0.122c0.493,0.287,0.8,0.718,0.922,1.291l2.15,9.768
		C269.152,289.446,269.091,289.909,268.845,290.337z"/>
</g>
</svg>
