<?xml version="1.0" encoding="utf-8"?>
<!-- Generator: Adobe Illustrator 16.0.0, SVG Export Plug-In . SVG Version: 6.00 Build 0)  -->
<!DOCTYPE svg PUBLIC "-//W3C//DTD SVG 1.1//EN" "http://www.w3.org/Graphics/SVG/1.1/DTD/svg11.dtd">
<svg version="1.1" id="Layer_1" xmlns="http://www.w3.org/2000/svg" xmlns:xlink="http://www.w3.org/1999/xlink" x="0px" y="0px"
	 width="500px" height="500px" viewBox="0 0 500 500" enable-background="new 0 0 500 500" xml:space="preserve">
<path fill="#ED1C24" d="M249.979,60.049c-104.579,0-189.662,85.075-189.662,189.647c0,104.575,85.083,189.652,189.662,189.652
	c73.704,0,137.715-42.256,169.092-103.808h-81.127c-22.22,22.762-53.217,36.919-87.464,36.919
	c-67.423,0-122.274-54.846-122.274-122.262c0-67.418,54.851-122.264,122.274-122.264c55.466,0,102.418,37.125,117.325,87.827
	h-72.132c-10.371-13.936-26.969-22.966-45.678-22.966c-31.424,0-56.897,25.473-56.897,56.895c0,31.419,25.474,56.893,56.897,56.893
	c19.141,0,36.057-9.46,46.371-23.944h72.004h61.29h7.114c1.881-10.704,2.868-21.707,2.868-32.941
	C439.644,145.125,354.562,60.049,249.979,60.049z M252.146,278.564c0,0.573-0.465,1.036-1.038,1.036h-36.271
	c-0.573,0-1.036-0.463-1.036-1.036v-4.707c0-0.229,0.076-0.451,0.214-0.634l20.211-26.302c1.722-2.113,3.117-3.801,4.608-5.53
	h-22.153c-0.573,0-1.036-0.464-1.036-1.037v-6.46c0-0.573,0.463-1.037,1.036-1.037h34.057c0.572,0,1.038,0.464,1.038,1.037v5.076
	c0,0.229-0.075,0.451-0.215,0.632l-20.028,26.025c-1.272,1.654-2.751,3.537-4.396,5.439h23.97c0.573,0,1.037,0.463,1.039,1.035
	V278.564z M282.195,235.076l-10.255,7.681v35.806c0,0.573-0.463,1.037-1.036,1.037h-8.123c-0.572,0-1.035-0.464-1.035-1.037v-28.169
	l-7.938,5.944c-0.501,0.374-1.083,0.554-1.661,0.554c-0.843,0-1.676-0.383-2.222-1.109c-0.918-1.226-0.668-2.965,0.557-3.882
	l11.264-8.435v-30.429c0-0.573,0.463-1.037,1.035-1.037h8.123c0.573,0,1.036,0.465,1.036,1.037v22.791l6.931-5.189
	c1.227-0.916,2.963-0.667,3.881,0.557C283.671,232.42,283.422,234.158,282.195,235.076z"/>
</svg>
