<?xml version="1.0" encoding="utf-8"?>
<!-- Generator: Adobe Illustrator 16.0.0, SVG Export Plug-In . SVG Version: 6.00 Build 0)  -->
<!DOCTYPE svg PUBLIC "-//W3C//DTD SVG 1.1//EN" "http://www.w3.org/Graphics/SVG/1.1/DTD/svg11.dtd">
<svg version="1.1" id="Layer_1" xmlns="http://www.w3.org/2000/svg" xmlns:xlink="http://www.w3.org/1999/xlink" x="0px" y="0px"
	 width="500px" height="500px" viewBox="0 0 500 500" enable-background="new 0 0 500 500" xml:space="preserve">
<g>
	<path fill="#D81F2A" d="M256.573,226.494h-15.988v22.383h15.988c3.53,0,6.379-1.032,8.545-3.099
		c2.164-2.063,3.247-4.762,3.247-8.094c0-3.33-1.083-6.028-3.247-8.094C262.952,227.526,260.104,226.494,256.573,226.494z"/>
	<path fill="#D81F2A" d="M249.979,60.049c-104.579,0-189.662,85.075-189.662,189.647c0,104.575,85.083,189.652,189.662,189.652
		c73.704,0,137.715-42.256,169.092-103.808h-81.127c-22.22,22.762-53.217,36.919-87.464,36.919
		c-67.423,0-122.274-54.846-122.274-122.262c0-67.418,54.851-122.264,122.274-122.264c55.466,0,102.418,37.125,117.325,87.827
		h-72.132c-10.371-13.936-26.969-22.966-45.678-22.966c-31.424,0-56.897,25.473-56.897,56.895c0,31.419,25.474,56.893,56.897,56.893
		c19.141,0,36.057-9.46,46.371-23.944h72.004h61.29h7.114c1.881-10.704,2.868-21.707,2.868-32.941
		C439.644,145.125,354.562,60.049,249.979,60.049z M273.887,253.422c-4.215,4.065-9.651,6.096-16.313,6.096h-16.988v5.896h25.232
		c0.466,0,0.851,0.15,1.149,0.452c0.301,0.298,0.449,0.684,0.449,1.147v6.395c0,0.467-0.148,0.851-0.449,1.15
		c-0.301,0.301-0.684,0.449-1.149,0.449h-25.231v9.594c0,0.467-0.158,0.849-0.474,1.148s-0.691,0.45-1.125,0.45h-8.343
		c-0.466,0-0.85-0.15-1.149-0.45c-0.3-0.3-0.45-0.681-0.45-1.148v-9.594h-11.192c-0.466,0-0.849-0.148-1.149-0.45
		c-0.301-0.3-0.45-0.683-0.45-1.149v-6.395c0-0.465,0.15-0.85,0.45-1.148c0.3-0.301,0.683-0.451,1.149-0.451h11.192v-5.896h-11.192
		c-0.467,0-0.849-0.148-1.149-0.449c-0.301-0.3-0.45-0.683-0.45-1.149v-7.443c0-0.434,0.15-0.808,0.45-1.124
		c0.3-0.316,0.683-0.475,1.149-0.475h11.191v-31.428c0-0.464,0.15-0.849,0.45-1.149c0.3-0.298,0.683-0.449,1.15-0.449h26.929
		c6.662,0,12.099,2.034,16.313,6.095c4.213,4.065,6.32,9.312,6.32,15.738C280.207,244.115,278.1,249.361,273.887,253.422z"/>
</g>
</svg>
