<?xml version="1.0" encoding="utf-8"?>
<!-- Generator: Adobe Illustrator 16.0.0, SVG Export Plug-In . SVG Version: 6.00 Build 0)  -->
<!DOCTYPE svg PUBLIC "-//W3C//DTD SVG 1.1//EN" "http://www.w3.org/Graphics/SVG/1.1/DTD/svg11.dtd">
<svg version="1.1" id="Layer_1" xmlns="http://www.w3.org/2000/svg" xmlns:xlink="http://www.w3.org/1999/xlink" x="0px" y="0px"
	 width="500px" height="500px" viewBox="0 0 500 500" enable-background="new 0 0 500 500" xml:space="preserve">
<g>
	<path fill="#D71F27" d="M249.979,60.049c-104.579,0-189.662,85.075-189.662,189.647c0,104.575,85.083,189.652,189.662,189.652
		c73.704,0,137.715-42.256,169.092-103.808h-81.127c-22.22,22.762-53.217,36.919-87.464,36.919
		c-67.423,0-122.274-54.846-122.274-122.262c0-67.418,54.851-122.264,122.274-122.264c55.466,0,102.418,37.125,117.325,87.827
		h-72.132c-10.371-13.936-26.969-22.966-45.678-22.966c-31.424,0-56.897,25.473-56.897,56.895c0,31.419,25.474,56.893,56.897,56.893
		c19.141,0,36.057-9.46,46.371-23.944h72.004h61.29h7.114c1.881-10.704,2.868-21.707,2.868-32.941
		C439.644,145.125,354.562,60.049,249.979,60.049z M268.205,276.101c-2.916,3.558-6.703,5.944-11.151,7.155
		c-1.931,0.53-2.803,1.553-2.707,3.56c0.075,1.969-0.019,3.957-0.019,5.926c0,1.76-0.891,2.707-2.633,2.745
		c-2.12,0.058-4.259,0.058-6.38,0.02c-1.874-0.039-2.745-1.099-2.764-2.916c-0.02-1.439-0.02-2.896-0.039-4.335
		c-0.038-3.181-0.132-3.314-3.199-3.806c-3.919-0.625-7.762-1.516-11.359-3.257c-2.821-1.382-3.124-2.082-2.31-5.035
		c0.606-2.197,1.211-4.394,1.893-6.57c0.795-2.518,1.477-2.84,3.806-1.628c3.976,2.063,8.197,3.219,12.608,3.768
		c2.859,0.359,5.642,0.076,8.273-1.079c4.922-2.158,5.68-7.857,1.534-11.284c-1.401-1.174-3.011-2.024-4.696-2.765
		c-4.316-1.91-8.822-3.351-12.893-5.792c-6.607-3.957-10.811-9.391-10.318-17.437c0.549-9.087,5.699-14.768,14.029-17.796
		c3.446-1.25,3.464-1.193,3.484-4.79c0.019-1.231-0.02-2.442,0.019-3.654c0.076-2.708,0.53-3.181,3.218-3.256
		c0.833-0.019,1.666,0,2.499,0c5.755,0,5.755,0,5.774,5.736c0.02,4.071,0.02,4.09,4.071,4.714c3.104,0.493,6.059,1.401,8.937,2.67
		c1.57,0.701,2.176,1.799,1.685,3.465c-0.738,2.48-1.402,4.979-2.197,7.44c-0.756,2.329-1.495,2.669-3.729,1.59
		c-4.487-2.158-9.201-3.067-14.162-2.802c-1.287,0.076-2.556,0.247-3.767,0.776c-4.279,1.874-4.979,6.607-1.326,9.523
		c1.855,1.477,3.957,2.537,6.153,3.446c3.788,1.571,7.611,3.086,11.208,5.074C273.222,251.848,276.308,266.255,268.205,276.101z"/>
</g>
</svg>
