<?xml version="1.0" encoding="utf-8"?>
<!-- Generator: Adobe Illustrator 16.0.0, SVG Export Plug-In . SVG Version: 6.00 Build 0)  -->
<!DOCTYPE svg PUBLIC "-//W3C//DTD SVG 1.1//EN" "http://www.w3.org/Graphics/SVG/1.1/DTD/svg11.dtd">
<svg version="1.1" id="Layer_1" xmlns="http://www.w3.org/2000/svg" xmlns:xlink="http://www.w3.org/1999/xlink" x="0px" y="0px"
	 width="500px" height="500px" viewBox="0 0 500 500" enable-background="new 0 0 500 500" xml:space="preserve">
<path fill="#DD1F26" d="M249.979,60.049c-104.579,0-189.662,85.075-189.662,189.647c0,104.575,85.083,189.652,189.662,189.652
	c73.704,0,137.715-42.256,169.092-103.808h-81.127c-22.22,22.762-53.217,36.919-87.464,36.919
	c-67.423,0-122.274-54.846-122.274-122.262c0-67.418,54.851-122.264,122.274-122.264c55.466,0,102.418,37.125,117.325,87.827
	h-72.132c-10.371-13.936-26.969-22.966-45.678-22.966c-31.424,0-56.897,25.473-56.897,56.895c0,31.419,25.474,56.893,56.897,56.893
	c19.141,0,36.057-9.46,46.371-23.944h72.004h61.29h7.114c1.881-10.704,2.868-21.707,2.868-32.941
	C439.644,145.125,354.562,60.049,249.979,60.049z M271.648,252.607c1.657,0,3.216,0.648,4.386,1.82
	c1.171,1.172,1.815,2.73,1.815,4.387c0,3.418-2.783,6.199-6.202,6.199h-32.018c-1.646,3.076-1.843,6.141-0.63,9.563
	c1.412,3.979,4.881,5.996,10.312,5.996c3.724,0,8.06-1.027,11.595-2.754c0.912-0.443,1.859-0.666,2.815-0.666
	c2.907,0,5.611,2.219,6.291,5.162c0.619,2.682-0.577,5.121-3.122,6.363c-5.714,2.781-12.03,4.314-17.788,4.314
	c-6.944,0-12.798-2.252-16.929-6.514c-5.474-5.646-7.441-13.51-5.496-21.465h-5.654c-3.419,0-6.2-2.781-6.2-6.201
	c0-3.418,2.781-6.203,6.2-6.203h12.322c0.555-0.604,1.126-1.18,1.706-1.711c0.328-0.302,0.658-0.596,0.989-0.883h-15.016
	c-3.419,0-6.202-2.781-6.202-6.2c0-3.419,2.782-6.2,6.202-6.2h30.744c3.578-3.575,5.188-6.957,4.916-10.32
	c-0.275-3.393-2.963-6.583-6.537-7.758c-1.719-0.565-3.519-0.852-5.353-0.852c-3.446,0-7.085,0.994-10.815,2.953
	c-0.95,0.5-1.939,0.752-2.944,0.752c-2.846,0-5.432-2.112-6.149-5.021c-0.667-2.705,0.481-5.208,2.999-6.53
	c5.442-2.858,11.624-4.433,17.406-4.433c8.778,0,16.007,3.624,20.356,10.206c3.5,5.293,4.42,12.208,2.401,18.043
	c-0.347,1.003-0.755,1.985-1.231,2.957h4.829c3.419,0,6.202,2.783,6.202,6.2c0,3.42-2.783,6.202-6.202,6.202h-15.284
	c-0.402,0.325-0.766,0.611-1.113,0.879c-0.744,0.568-1.512,1.135-2.312,1.715H271.648z"/>
</svg>
