<?xml version="1.0" encoding="utf-8"?>
<!-- Generator: Adobe Illustrator 16.0.2, SVG Export Plug-In . SVG Version: 6.00 Build 0)  -->
<!DOCTYPE svg PUBLIC "-//W3C//DTD SVG 1.1//EN" "http://www.w3.org/Graphics/SVG/1.1/DTD/svg11.dtd">
<svg version="1.1" id="Capa_1" xmlns="http://www.w3.org/2000/svg" xmlns:xlink="http://www.w3.org/1999/xlink" x="0px" y="0px"
	 width="512px" height="512px" viewBox="0 0 512 512" enable-background="new 0 0 512 512" xml:space="preserve">
<g>
	<path fill="#D80027" d="M439.642,486.563l-12.731-57.814c-0.723-3.399-2.541-5.945-5.457-7.636c-3.152-1.7-6.302-1.936-9.45-0.724
		l-1.821,0.724l-4.369,1.089c-1.942,0.479-4.184,1.029-6.729,1.634c-2.546,0.606-5.51,1.208-8.909,1.818
		c-3.382,0.605-6.975,1.155-10.724,1.639c-3.756,0.476-7.81,0.907-12.178,1.272c-4.368,0.358-8.727,0.541-13.095,0.541
		c-30.789,0-58.489-8.3-83.093-24.906c-24.607-16.611-42.729-39.097-54.364-67.455h140.724c2.672,0,5.096-0.907,7.27-2.729
		c2.189-1.813,3.523-4.055,3.998-6.73l8.728-40.729c0.73-3.625,0-6.902-2.176-9.814c-2.424-2.912-5.461-4.369-9.093-4.369H199.27
		c-0.728-16.483-0.728-29.21,0-38.182h177.455c6.552,0,10.426-3.148,11.638-9.452l8.727-41.456c0.723-3.393-0.113-6.542-2.546-9.453
		c-2.174-2.909-5.204-4.37-9.084-4.37H215.271c12.122-27.151,30.302-48.484,54.547-64c24.244-15.52,51.638-23.275,82.183-23.275
		c0.974-0.484,4.546-0.362,10.724,0.364c6.181,0.723,9.702,1.029,10.547,0.907c0.837-0.12,4.002,0.246,9.451,1.089
		c5.456,0.848,8.186,1.274,8.186,1.274l6.363,1.271c1.822,0.367,3.216,0.665,4.184,0.911l1.456,0.362
		c3.148,0.974,6.05,0.668,8.728-0.906c2.668-1.581,4.367-3.941,5.096-7.092l15.639-57.818c0.723-3.152,0.356-6.062-1.09-8.727
		c-2.184-2.915-4.611-4.732-7.278-5.457C401.704,2.79,378.179,0,353.457,0c-54.311,0-102.851,15.52-145.641,46.546
		c-42.789,31.029-72.307,72.003-88.55,122.911H83.633c-3.396,0-6.181,1.089-8.364,3.271c-2.177,2.179-3.271,4.968-3.271,8.364
		v41.456c0,3.393,1.09,6.182,3.271,8.359c2.184,2.184,4.974,3.271,8.364,3.271h24.365c-0.732,11.64-0.848,24.359-0.367,38.186
		H83.633c-3.151,0-5.878,1.15-8.181,3.453c-2.301,2.302-3.454,5.029-3.454,8.177v41.095c0,3.155,1.153,5.875,3.454,8.186
		c2.304,2.303,5.03,3.443,8.181,3.443h34.547c15.273,53.576,44.124,96.188,86.549,127.822
		c42.427,31.646,92.003,47.458,148.728,47.458c4.61,0,9.275-0.113,14.004-0.365c4.738-0.243,9.154-0.61,13.277-1.089
		c4.118-0.48,8.182-1.021,12.183-1.63c3.996-0.61,7.636-1.207,10.905-1.823c3.272-0.601,6.364-1.206,9.271-1.809
		c2.912-0.614,5.518-1.272,7.824-2.005c2.302-0.718,4.232-1.269,5.814-1.625c1.578-0.365,2.851-0.797,3.813-1.272l1.822-0.367
		c2.669-0.968,4.729-2.728,6.182-5.277C440.008,492.203,440.365,489.472,439.642,486.563z"/>
</g>
</svg>
