<?xml version="1.0" encoding="utf-8"?>
<!-- Generator: Adobe Illustrator 16.0.2, SVG Export Plug-In . SVG Version: 6.00 Build 0)  -->
<!DOCTYPE svg PUBLIC "-//W3C//DTD SVG 1.1//EN" "http://www.w3.org/Graphics/SVG/1.1/DTD/svg11.dtd">
<svg version="1.1" id="Capa_1" xmlns="http://www.w3.org/2000/svg" xmlns:xlink="http://www.w3.org/1999/xlink" x="0px" y="0px"
	 width="512px" height="512px" viewBox="0 0 512 512" enable-background="new 0 0 512 512" xml:space="preserve">
<g>
	<path fill="#D80027" d="M124.75,181.424c0-5.976-4.844-10.819-10.819-10.819s-10.819,4.844-10.819,10.819
		c0,20.843,14.385,38.383,33.747,43.231v6.151c0,5.976,4.844,10.819,10.819,10.819c5.975,0,10.819-4.844,10.819-10.819v-6.151
		c19.362-4.848,33.746-22.388,33.746-43.231c0-20.844-14.385-38.384-33.746-43.232V93.726c7.2,3.871,12.108,11.473,12.108,20.204
		c0,5.975,4.844,10.819,10.819,10.819c5.976,0,10.819-4.844,10.819-10.819c0-20.844-14.385-38.384-33.746-43.231v-6.151
		c0-5.976-4.844-10.819-10.819-10.819c-5.976,0-10.819,4.844-10.819,10.819v6.151c-19.362,4.848-33.747,22.388-33.747,43.232
		c0,20.843,14.385,38.384,33.747,43.23v44.468C129.658,197.757,124.75,190.155,124.75,181.424z M170.605,181.424
		c0,8.731-4.909,16.333-12.108,20.205v-40.41C165.697,165.09,170.605,172.692,170.605,181.424z M124.75,113.93
		c0-8.731,4.909-16.333,12.108-20.204v40.409C129.658,130.263,124.75,122.661,124.75,113.93z"/>
	<path fill="#D80027" d="M147.677,295.354c81.429,0,147.676-66.247,147.676-147.676C295.354,66.248,229.106,0,147.677,0
		C66.248,0,0,66.248,0,147.677C0,229.106,66.248,295.354,147.677,295.354z M147.677,32.458c63.532,0,115.219,51.687,115.219,115.219
		c0,63.532-51.688,115.219-115.219,115.219c-63.532,0-115.219-51.688-115.219-115.219C32.458,84.145,84.145,32.458,147.677,32.458z"
		/>
	<path fill="#D80027" d="M364.323,216.646c-81.43,0-147.677,66.248-147.677,147.676c0,81.43,66.248,147.678,147.677,147.678
		c81.429,0,147.676-66.248,147.676-147.678C512,282.894,445.752,216.646,364.323,216.646z M364.323,479.542
		c-63.532,0-115.219-51.688-115.219-115.22c0-63.531,51.687-115.218,115.219-115.218s115.218,51.687,115.218,115.218
		C479.542,427.854,427.854,479.542,364.323,479.542z"/>
	<path fill="#D80027" d="M415.486,397.584c-5.146-3.039-11.78-1.326-14.817,3.818c-6.193,10.494-17.6,17.014-29.767,17.014
		c-17.3,0-31.667-12.791-34.148-29.411h33.26c5.975,0,10.819-4.844,10.819-10.819s-4.845-10.819-10.819-10.819h-33.642v-6.087
		h33.642c5.975,0,10.819-4.844,10.819-10.819s-4.845-10.819-10.819-10.819h-33.26c2.481-16.621,16.848-29.411,34.149-29.411
		c10.451,0,20.228,4.661,26.825,12.786c3.767,4.64,10.579,5.346,15.219,1.581c4.639-3.767,5.347-10.58,1.58-15.219
		c-10.724-13.21-26.625-20.786-43.625-20.786c-29.245,0-53.33,22.47-55.925,51.051h-12.544c-5.975,0-10.82,4.844-10.82,10.818
		c0,5.976,4.846,10.819,10.82,10.819h12.3v6.087h-12.3c-5.975,0-10.82,4.844-10.82,10.819s4.846,10.819,10.82,10.819h12.544
		c2.595,28.58,26.68,51.05,55.926,51.05c19.787,0,38.334-10.596,48.401-27.653C422.342,407.255,420.632,400.621,415.486,397.584z"/>
	<path fill="#D80027" d="M318.217,93.146c2.091,3.093,5.5,4.761,8.972,4.761c2.086,0,4.192-0.602,6.051-1.857
		c4.949-3.346,6.25-10.073,2.903-15.022L326.188,66.3c68.86,25.121,120.119,86.559,131.145,160.372
		c0.802,5.368,5.418,9.223,10.688,9.223c0.531,0,1.07-0.04,1.612-0.12c5.909-0.883,9.984-6.389,9.102-12.299
		c-12.266-82.114-69.511-150.396-146.313-177.935l12.116-5.357c5.465-2.416,7.937-8.806,5.521-14.271
		c-2.415-5.465-8.806-7.935-14.27-5.52L296.23,37.883c-2.932,1.296-5.137,3.826-6.021,6.905c-0.886,3.08-0.361,6.394,1.434,9.049
		L318.217,93.146z"/>
	<path fill="#D80027" d="M193.784,418.854c-3.347-4.95-10.073-6.25-15.023-2.904c-4.951,3.347-6.25,10.073-2.904,15.022
		l9.956,14.727c-68.861-25.12-120.118-86.558-131.145-160.37c-0.883-5.91-6.393-9.984-12.3-9.103
		c-5.909,0.883-9.985,6.389-9.102,12.3c12.266,82.113,69.512,150.396,146.312,177.934l-12.118,5.358
		c-5.465,2.416-7.936,8.806-5.52,14.271c1.788,4.042,5.749,6.446,9.901,6.446c1.462,0,2.947-0.298,4.37-0.927l39.558-17.49
		c2.931-1.296,5.137-3.825,6.022-6.904c0.886-3.081,0.36-6.395-1.435-9.05L193.784,418.854z"/>
</g>
</svg>
