<?xml version="1.0" encoding="utf-8"?>
<!-- Generator: Adobe Illustrator 16.0.2, SVG Export Plug-In . SVG Version: 6.00 Build 0)  -->
<!DOCTYPE svg PUBLIC "-//W3C//DTD SVG 1.1//EN" "http://www.w3.org/Graphics/SVG/1.1/DTD/svg11.dtd">
<svg version="1.1"
	 id="svg2985" xmlns:sodipodi="http://sodipodi.sourceforge.net/DTD/sodipodi-0.dtd" xmlns:rdf="http://www.w3.org/1999/02/22-rdf-syntax-ns#" xmlns:svg="http://www.w3.org/2000/svg" xmlns:dc="http://purl.org/dc/elements/1.1/" xmlns:inkscape="http://www.inkscape.org/namespaces/inkscape" xmlns:cc="http://creativecommons.org/ns#" sodipodi:docname="Sign_of_Georgian_Lari_(5).png" inkscape:version="0.48.4 r9939"
	 xmlns="http://www.w3.org/2000/svg" xmlns:xlink="http://www.w3.org/1999/xlink" x="0px" y="0px" width="1230.792px"
	 height="1435.015px" viewBox="225.653 79.372 1230.792 1435.015" enable-background="new 225.653 79.372 1230.792 1435.015"
	 xml:space="preserve">
<sodipodi:namedview  id="namedview2987" pagecolor="#ffffff" borderopacity="1" guidetolerance="10" gridtolerance="10" showgrid="false" objecttolerance="10" inkscape:zoom="0.22459761" inkscape:cy="691.41801" bordercolor="#666666" inkscape:cx="814.6154" inkscape:current-layer="svg2985" inkscape:window-y="-9" inkscape:window-x="-9" inkscape:window-height="1003" inkscape:window-maximized="1" inkscape:window-width="1920" inkscape:pageshadow="2" inkscape:pageopacity="0">
	</sodipodi:namedview>
<path id="path2995" fill="#DD1919" stroke="#DD1919" stroke-width="56.6929" stroke-linecap="round" stroke-linejoin="round" d="
	M771.063,107.719l-88.094,88.469L672,206.25l0.344,124.531L660.5,334.5l-9.719,3.375l-10.281,3.156l-7.781,3.375l-9,3.531
	l-9.906,3.719l-8.844,4.25l-9.031,3.875l-8.125,3.906l-6.905,3.188l-8.5,4.594l-6.72,3.906l-6.905,3.875l-8.47,4.594l-6.75,3.719
	l-9.719,5.844l-10.625,6.906l-11.469,7.781l-8.844,5.813l-10.094,7.625l-6.375,4.938l-8.125,6.375l-7.438,5.844l-7.969,6.375
	l-7.25,5.845L450,456.563l-6.906,6.344l-12.563,11.875l-5.469,5.281l-4.438,4.625l-6,5.813l-7.25,7.813l-6.906,7.406l-4.405,5.844
	l-5.5,6l-4.938,6.563l-4.969,6.375l-4.781,6.344l-4.938,6.031l-4.438,6l-4.594,5.688l-3.531,5.28l-4.063,6.563l-4.25,6.906
	l-3.72,4.938l-3.53,5.313l-5.5,8.845l-2.47,5.125l-3,5.313l-4.25,6.906l-3.344,5.281l-1.969,5.313l-4.063,6.906l-3.875,7.063
	l-4.25,8.688l-3.188,8.125l-3.531,8.656l-3.563,7.281L297,673.406l-2.656,7.438l-4.063,9.188l-3.188,9.563l-4.594,13.625l-2.5,8.313
	l-2.813,9.375l-2.469,8.655l-2.125,8.688l-5.5,24.031l-1.406,7.438l-2.313,8.688L261.781,799l-1.063,7.094l-1.594,11.125
	l-1.563,12.22l-1.594,19.438l-1.25,13.625l-0.531,10.438L254,885.5l0.188,30.594l0.344,10.095l1.063,14.5l0.906,11.844l0.875,8.5
	l0.875,9.031l0.875,7.25l1.594,9.03l1.25,8.656l1.25,7.781l1.594,7.78l1.406,6.72l2.125,9.375l1.938,8.155l1.781,8.313l2.813,9
	l2.313,9.219l2.281,7.781l2.125,6.719l2.313,7.781l2.656,7.25l2.656,7.781l3,7.594l2.656,6.719l2.469,5.845l3.375,8.313l3.345,8.156
	l3.719,7.594l3.188,7.594l3.188,6.219l3.188,5.656l3.72,8.125l3.344,6.188l3.375,6.375l3.719,6.375l2.281,4.063l2.313,3.875
	l3.345,5.5l3.03,5.125l2.813,4.438l3.375,4.594l2.813,4.938l4.438,6.72l3.875,5.655l4.25,5.688l3,4.594l3.375,4.406l4.25,5.5
	l3.531,4.594l4.938,6l6.219,7.438l5.125,6.719l6,6.563l4.438,5.47l4.75,4.78l5.688,6l5.125,5.688l5.125,5.125l3.875,3.719
	l4.781,4.406l4.969,4.969l4.25,3.875l4.595,4.25l3.719,3.531l4.938,4.25l4.595,4.25l4.094,2.813l3.688,3.563l3.906,3l3.188,2.281
	l3.53,2.844l4.25,3.375l4.063,3.156l4.438,3.188l4.75,3.531l4.25,3.188l3,1.97l2.5,1.938l2.813,1.938l3.031,2.125l2.625,1.781
	l2.313,1.219H352.188l-98,98h984.906l97.656-98l-513.344-0.156l-11.125-0.188l-13.469-1.406l-19.438-1.594l-17.875-3.531
	l-13.781-2.5l-14.344-3.344L721,1372.656l-13.625-3.375l-9.031-2.656l-14.313-5.125l-12.219-4.406l-10.438-3.719l-9.719-4.063
	l-10.095-5.125l-9.188-4.438l-11.844-5.469l-11.688-6.375l-10.438-6.188l-10.063-6.03l-7.625-4.938l-9.906-5.844l-9.03-6.72
	l-7.781-4.969l-7.594-5.656l-8.656-7.25l-8.844-7.063l-9.031-7.969l-8.656-7.438l-9.219-9l-8.469-8.313l-5.845-5.688l-6.905-8.313
	l-5.47-5.813l-5.5-5.844l-6.905-8.5l-7.595-9.375c0,0-6.719-9.012-6.719-9.719s-6.563-8.313-6.563-8.313l-7.406-11.156l-6.031-8.844
	l-6-9.375l-5.656-9.719l-4.78-8.156l-4.063-8.125l-6.031-11.156l-4.594-10.594l-4.438-10.281l-4.938-10.594l-3.375-7.969
	l-2.813-7.25l-3-9.188l-4.095-12.75l-4.219-13.438l-4.25-15.031l-2.656-12.905l-2.844-14.156l-2.656-12.031l-1.75-14.344
	L355,948.469l-1.406-15.219l-0.688-8.844l-0.719-10.25v-9.375l0.188-8.845l0.531-9.188l0.344-14.688l0.688-10.97l0.531-11.5
	l0.906-7.969l1.406-10.969l1.594-10.063l1.25-10.281l1.75-8.655l2.313-10.781l1.75-8.844l1.595-6.72l2.313-8.844l2.47-7.625
	l2.844-10.594l2.813-7.625l3.719-10.594l3.531-9.906l3.563-8.688l3.875-10.97l4.969-10.594l3.531-6.375l4.063-8.656l4.595-9.219
	l3.719-6.906l5.125-9l5.844-9.03l3.906-7.063l4.594-6.719l6.719-9.75l5.656-8.125l5.125-7.595l5.313-7.094l4.595-6.375l4.25-4.781
	l5.125-5.655l4.063-5.125l3.906-4.25l4.781-4.75l4.063-4.97l6-5.469l5.313-5.5l10.625-10.25l3.719-3.906l4.938-4.405l4.97-4.438
	l4.405-4.063l5.313-4.594l6.188-4.781l5.844-4.406l5.836-4.62l6-3.688l7.25-5.5l6.906-4.938l7.438-4.781l5.281-3.906l7.094-4.063
	l6.375-3.906l4.75-3.156l6.031-2.655l4.594-2.845l6.188-3.188l6.905-3.531l6.906-3.188l4.063-2.469l6.53-2.47l5.656-2.5l6.563-3
	l5.313-2.28l5.281-2.125l5.156-1.781l2.813-1.25v461.156l98.531-98.156l0.188-388.469l1.219-0.531l4.25-0.688l4.969-0.531
	l6.719-1.063l6.531-0.531l4.156-0.156l0.094,0.063l1.688,0.188l8.22-0.906l8.844-0.531l10.688-0.344l33-0.188l12.03,0.625
	l10.25,0.719l7.72,0.688l7.344,0.813l7.938,0.969l5.938,0.875l5.313,0.719l0.156,486.625l98.813-98.188V435.156l1.5,0.438
	l3.344,1.406l4.688,1.875l6.281,2.281l4.344,2.125l6.375,2.75l7.063,3.188l6.563,3.188l6.438,3.25l7.094,3.469l7.844,4.156
	l5.594,2.906l4.938,2.655l4.156,2.845l4.875,2.813l3.969,2.125l5.125,3.438l4.438,2.938l5.405,3.281l4.688,3.155l4.688,3.375
	l4.75,3.438l4.688,3.281l5.5,4.155l5.03,3.906l3.906,3.094l4.156,3.345l4.5,3.53l4.875,4l5.844,5.47l5.031,4.344l4.781,4.594
	l5.219,4.595l5.125,5.313l3.875,3.188l3.625,3.906l5.844,6.188l5.063,5.375l3.438,4l3.625,4.063l5.406,6.095l5.656,6.905l4.78,5.75
	l2.72,4.25l3.469,5.031l4.313,5.5l3.469,4.688l3.344,4.688l3.281,4.75l3.906,5.75l3.344,5.406L1262,636l2.75,4.063l2.813,4.438
	l2.75,4.406l2.563,4.969l2.313,4.5l2.905,5.406l2.563,4.156l1.969,3.969l2.281,4.875l2.031,3.531l1.969,4.063l3.094,6.563
	l3.094,7.156l1.75,3.719l1.688,3.97l1.688,3.905l1.5,3.97l1.781,4.969l1.5,3.969l2.125,4.406l1.406,3.625l1.155,3.625l1.595,4.875
	l1.063,3.469l1.5,4.75l1.406,5.156l1.594,5.188l1.845,5.405l1.78,7.095l1.595,5.813l2.125,9.563l1.155,4.938l1.22,5.5l1.405,7.438
	l0.375,1.405l0.97,5.845l1.313,6.905l0.906,7.5l0.969,7.438l1.156,9.469l0.969,8.656l0.688,10.25l0.625,9.125l0.72,11.938
	l0.438,13.438l90.845-90.845l0.155-1.655l-0.53-3.906l-0.781-4.844l-0.875-5.063l-0.719-3.969l-1.063-6.094l-1.344-5.313
	l-0.875-4.969l-2.125-8.469l-1.063-4.531l-1.406-5.469l-1.688-6.188l-1.406-5.156l-1.406-5.28l-1.344-4.25l-1.406-4.97l-1.78-5.563
	l-1.845-5.844l-2.469-7.344l-1.969-5.813l-1.844-5.688l-2.219-5.469l-1.845-4.688l-2.313-6.813L1391.5,672l-2.063-4.594
	l-2.375-5.656l-2.313-5.219l-2.813-6.656l-2.313-5.219l-2.563-4.75l-2.813-5.938l-2.313-4.5l-2.905-6.031l-2.5-4.5l-2.563-4.78
	l-2.906-5.125l-3.375-5.656l-3.094-5.75l-2.719-4.531l-2.844-4.938l-2.75-4.25l-2.813-5.031l-2.563-4l-3.188-4.5l-2.219-3.531
	l-2.313-3l-3.438-5.313l-3.531-4.97l-3.094-4.313l-2.844-4l-3.345-4.5l-3.469-4.5l-3.531-4.531l-2.03-3l-3.188-3.625l-2.031-2.469
	l-3.438-4.25l-3.188-3.813l-3.531-4.156l-5.406-6.375l-4.5-5.125l-4.156-4.156l-4-4.406l-4.406-4.438l-6.469-6.625l-5.563-5.219
	l-4.594-4.5l-5.595-5.5l-5.03-4.845l-4.438-3.719l-5.813-5.5l-4.875-3.969l-4.063-3.72l-5.406-4.155l-4.594-3.72l-5.313-4.344
	l-5.125-3.781l-5.656-4.063l-5.031-3.563l-5.75-4.5l-5.5-3.906l-4.406-3.25l-4.625-3l-4.844-3.125l-5.5-3.438l-5.813-3.719
	l-5.313-3.531l-4.594-2.75l-5.5-3l-4.875-2.844l-5.47-2.906l-5.75-3.344l-4.938-2.594l-5.75-3l-5.594-2.75l-4.938-2.469l-6.905-3.25
	l-6.188-2.938l-6.375-3l-7.875-3.438l-5.906-2.594l-6.813-2.625l-5.845-2.313l-5.405-1.938l-5.845-2.125l-7.844-3l-5.844-1.875
	l-6.625-2.281l-5.406-1.594l-3.375-0.625L1016.938,108l-98.969,98.438L918.031,310l-7.938-1.25l-10.53-1.219l-8.406-0.906
	L877,305.563l-13.156-0.438l-7.781-0.25l-18.938,0.188l-12.375,0.156l-14.438,0.531l-10,0.531l-2.625,0.625l-0.031,0.031
	l-8.563,0.688l-8.844,0.688l-6.188,1.25l-2.844,1.219L771.063,107.719z"/>
</svg>
