<?xml version="1.0" encoding="utf-8"?>
<!-- Generator: Adobe Illustrator 16.0.2, SVG Export Plug-In . SVG Version: 6.00 Build 0)  -->
<!DOCTYPE svg PUBLIC "-//W3C//DTD SVG 1.1//EN" "http://www.w3.org/Graphics/SVG/1.1/DTD/svg11.dtd">
<svg version="1.1" id="Слой_1" xmlns="http://www.w3.org/2000/svg" xmlns:xlink="http://www.w3.org/1999/xlink" x="0px" y="0px"
	 width="512px" height="512px" viewBox="0 0 512 512" enable-background="new 0 0 512 512" xml:space="preserve">
<g>
	<path fill="#D80027" d="M501.785,148.459L397.563,44.236c-6.599-6.599-15.37-10.232-24.701-10.232
		c-9.332,0-18.104,3.633-24.7,10.232l-24.492,24.491c-3.77,3.769-6.456,8.202-8.141,12.918L200.932,61.129
		c-0.008-0.002-0.018-0.002-0.025-0.004C149.381,50.897,99.073,84.396,88.682,135.928l-5.286,26.218
		c-5.837,28.953,12.971,57.255,41.924,63.093c28.955,5.834,57.257-12.971,63.095-41.923l3.231-16.033l51.389,4.494l134.2,134.201
		l24.322,24.322c4.925,4.925,4.923,12.939,0,17.864c-4.924,4.923-12.938,4.925-17.863,0l-65.151-65.151
		c-4.538-4.538-11.897-4.538-16.434,0c-4.538,4.537-4.538,11.896,0,16.434l65.151,65.151c2.386,2.386,3.699,5.559,3.699,8.933
		s-1.313,6.545-3.699,8.931c-4.927,4.925-12.939,4.923-17.863,0l-65.151-65.151c-4.538-4.539-11.897-4.539-16.434,0
		c-4.538,4.537-4.538,11.895,0,16.434l65.151,65.151c4.926,4.923,4.926,12.938,0,17.862c-2.386,2.387-5.559,3.699-8.931,3.699
		c-3.373,0-6.546-1.313-8.932-3.699l-65.152-65.151c-4.538-4.538-11.897-4.538-16.434,0c-4.538,4.538-4.538,11.896,0,16.434
		l65.151,65.152c4.926,4.925,4.924,12.939,0,17.864c-4.923,4.924-12.938,4.926-17.863,0L50.281,220.536l-30.442-30.442
		c-4.538-4.538-11.897-4.538-16.434,0c-4.538,4.538-4.538,11.896,0,16.434l30.442,30.442l33.129,33.129l-18.262,18.263
		c-5.979,5.979-9.273,13.929-9.273,22.387s3.292,16.408,9.273,22.387l5.96,5.96c5.227,5.228,11.961,8.399,19.222,9.116
		c0.717,7.262,3.889,13.996,9.117,19.221l5.959,5.962c5.367,5.366,12.198,8.394,19.219,9.093c0.711,7.27,3.887,14.014,9.121,19.244
		l5.959,5.96c5.227,5.228,11.961,8.399,19.223,9.116c0.716,7.261,3.889,13.995,9.116,19.223l5.959,5.96
		c6.173,6.172,14.28,9.258,22.387,9.258c8.107,0,16.215-3.086,22.388-9.258l18.262-18.263l43.761,43.762
		c6.777,6.777,15.785,10.508,25.367,10.508c9.581,0,18.591-3.732,25.365-10.508c6.419-6.418,10.064-14.849,10.434-23.863
		c9.016-0.369,17.445-4.015,23.865-10.433c6.616-6.616,10.062-15.194,10.42-23.879c8.683-0.358,17.263-3.804,23.877-10.418
		c6.616-6.616,10.062-15.194,10.42-23.879c8.685-0.358,17.265-3.804,23.879-10.42c13.987-13.987,13.987-36.745,0-50.732
		L401.89,297.76l58.923-58.923l40.975-40.975C515.405,184.241,515.405,162.078,501.785,148.459L501.785,148.459z M65.148,316.7
		c-3.283-3.283-3.283-8.623,0-11.905l17.125-17.125l17.865,17.864L83.013,322.66c-3.281,3.282-8.625,3.28-11.905,0L65.148,316.7z
		 M99.446,350.998c-3.283-3.282-3.283-8.622,0-11.902l17.125-17.126l17.865,17.865l-17.123,17.125c-3.283,3.28-8.626,3.282-11.906,0
		L99.446,350.998z M133.743,385.297c-1.59-1.59-2.466-3.705-2.466-5.951c0-2.247,0.875-4.361,2.466-5.952l17.125-17.125
		l17.863,17.863l-17.125,17.125c-3.281,3.28-8.623,3.28-11.903,0L133.743,385.297L133.743,385.297z M185.907,425.556
		c-3.281,3.282-8.625,3.28-11.906,0l-5.959-5.96c-3.283-3.283-3.283-8.623,0-11.905l17.125-17.125l17.865,17.864L185.907,425.556
		L185.907,425.556z M385.452,281.324L256.478,152.35c-1.933-1.933-4.482-3.122-7.205-3.358l-65.954-5.766
		c-0.343-0.031-0.684-0.044-1.021-0.044c-5.479,0-10.28,3.864-11.382,9.326l-5.286,26.218
		c-3.304,16.389-19.317,27.034-35.718,23.731c-7.939-1.6-14.782-6.198-19.263-12.944c-4.482-6.746-6.07-14.833-4.468-22.774
		l5.285-26.216c7.875-39.063,46.045-64.447,85.124-56.562c0.082,0.015,0.165,0.033,0.248,0.046l112.927,20.218l13.904,13.904
		l112.49,112.491L385.452,281.324z M485.35,181.427l-32.759,32.759l-112.49-112.491c-2.208-2.208-3.425-5.144-3.425-8.268
		s1.217-6.058,3.425-8.268l24.492-24.493c2.208-2.208,5.145-3.424,8.267-3.424s6.058,1.216,8.268,3.424L485.35,164.889
		c2.208,2.208,3.425,5.144,3.425,8.268S487.558,179.219,485.35,181.427L485.35,181.427z"/>
	<circle fill="#D80027" cx="457.22" cy="177.772" r="11.621"/>
</g>
</svg>
