<?xml version="1.0" encoding="utf-8"?>
<!-- Generator: Adobe Illustrator 16.0.0, SVG Export Plug-In . SVG Version: 6.00 Build 0)  -->
<!DOCTYPE svg PUBLIC "-//W3C//DTD SVG 1.1//EN" "http://www.w3.org/Graphics/SVG/1.1/DTD/svg11.dtd">
<svg version="1.1"
	 id="svg2985" xmlns:rdf="http://www.w3.org/1999/02/22-rdf-syntax-ns#" xmlns:cc="http://creativecommons.org/ns#" xmlns:svg="http://www.w3.org/2000/svg" xmlns:sodipodi="http://sodipodi.sourceforge.net/DTD/sodipodi-0.dtd" xmlns:inkscape="http://www.inkscape.org/namespaces/inkscape" xmlns:dc="http://purl.org/dc/elements/1.1/" inkscape:version="0.48.4 r9939" sodipodi:docname="Sign_of_Georgian_Lari_(5).png"
	 xmlns="http://www.w3.org/2000/svg" xmlns:xlink="http://www.w3.org/1999/xlink" x="0px" y="0px" width="1683px" height="1595px"
	 viewBox="0 0 1683 1595" enable-background="new 0 0 1683 1595" xml:space="preserve">
<g>
	<path fill="#DD1919" d="M600.097,853.461c-2.279-61.549-4.559-136.015-4.559-210.48h-2.279
		c-15.957,65.348-37.233,138.294-56.989,198.322l-62.309,199.843h-90.423l-54.71-198.323
		c-16.717-60.028-34.193-132.975-46.351-199.842h-1.52c-3.039,69.147-5.319,148.172-9.118,212l-9.118,194.523h-107.14
		l32.674-512.144h154.251l50.15,170.968c15.957,59.269,31.914,123.097,43.312,183.125h2.279
		c14.438-59.269,31.914-126.896,48.631-183.885l54.71-170.208H692.8l28.115,512.144H607.696L600.097,853.461z"/>
	<path fill="#DD1919" d="M780.935,544.198c42.552-6.838,98.022-10.638,156.53-10.638c97.262,0,160.33,17.477,209.721,54.709
		c53.19,39.513,86.624,102.581,86.624,193.004c0,98.021-35.713,165.649-85.104,207.44c-53.95,44.832-136.015,66.108-236.315,66.108
		c-60.029,0-102.581-3.8-131.456-7.599V544.198z M897.194,962.12c9.878,2.28,25.834,2.28,40.271,2.28
		c104.86,0.76,173.248-56.99,173.248-179.327c0.76-106.38-61.549-162.609-161.09-162.609c-25.835,0-42.552,2.279-52.43,4.559V962.12
		z"/>
	<path fill="#DD1919" d="M1280.917,537.36h116.259v414.882h203.642v97.262h-319.9V537.36z"/>
</g>
</svg>
