<?xml version="1.0" encoding="utf-8"?>
<!-- Generator: Adobe Illustrator 19.0.0, SVG Export Plug-In . SVG Version: 6.00 Build 0)  -->
<svg version="1.1" id="Layer_1" xmlns="http://www.w3.org/2000/svg" xmlns:xlink="http://www.w3.org/1999/xlink" x="0px" y="0px"
	 viewBox="-54 57 390 387" style="enable-background:new -54 57 390 387;" xml:space="preserve">
<style type="text/css">
	.st0{fill:#D71F27;}
</style>
<g>
	<path class="st0" d="M186.9,319.2c-2.8,0-4.3,0.2-5.2,0.4v13.9h4.5c5.7,0,9.1-2.8,9.1-7.3C195.3,321.6,192.1,319.3,186.9,319.2z"/>
	<path class="st0" d="M141.4,67.1c-101.6,0-184,82.4-184,184s82.4,184,184,184s184-82.4,184-184S243,67.1,141.4,67.1z M17.2,231.9
		c-0.7-0.2-1.4-0.5-2.9-0.9c2.2-0.5,3.7-0.5,5.1,0.3c1.3,0,2.6,0,3.8,0.7c11.7,1.3,23.5,2.2,35.3,1.5c8.5-0.5,16.8-1.3,24.6-4.9
		c0,0,0,0,0,0c5-3.2,9.3-7.1,11.9-12.6c2-5,2.1-10.3,2.3-15.6v0c-0.2-0.5-0.2-1-0.2-1.6c-0.9-5-2.6-9.7-5.7-13.9
		c-3.7-3.7-7.7-6.8-12.7-8.6c-1.2,0-2.3-0.1-3.3-0.7c0,0,0,0,0,0c-4.2-0.1-8.4-0.1-12.5-0.5c-2.8-0.3-3.6,0.5-3.6,3.3
		c0.1,15.5,0.1,31.1,0,46.6c0,1.1,0.5,2.4-0.4,3.5c0,0,0,0,0,0c0,0,0,0,0,0c0,0,0,0,0,0c0,0,0,0,0,0c-4.4,1.1-8.9,0.4-13.4,0.4
		c-1.9,0-1.1-1.8-1.1-2.9c-0.1-14-0.1-28-0.2-42c0-2.2,0-4.4-0.7-6.5c-0.6-0.4-1.3-0.7-1.9-1.1c0,0,0,0,0,0
		c-3.1-0.1-6.2-0.3-9.3-0.2c-2.1,0-1.9-1.4-1.9-2.7c0-1.3-0.3-2.7,1.8-2.7c17.5,0.1,34.9,0.1,52.4,0.2c0.5,0,1,0.3,1.5,0.4
		c0,0,0,0,0,0c1.1,0,2.3-0.3,3.2,0.8c0.6,0.7,1.4,0.4,2.1,0.6c5.2,1.4,9.6,4.1,13.2,8.1c4.4,3.9,6.8,8.9,7.9,14.6
		c1.9,8.7,0.8,16.9-3.9,24.5c-2.8,4.8-6.5,8.7-11.9,10.7c-2.4,1.7-5,2.8-7.9,3.3c-1,0.7-2.2,0.8-3.4,0.7c0,0,0,0,0,0
		c-1,0.7-2.2,0.7-3.4,0.6c-5.2,1.2-10.5,1.5-15.9,1.3c-6,0.6-12,0.5-18,0c-9.7,0.1-19.3-0.9-28.5-4C18.9,232.4,18,232.2,17.2,231.9z
		 M71.1,287c-12.6-0.2-25.2-0.1-37.7,0c-2.5,0-3.2-0.7-3.1-3.2c0.1-2.2,0-3.7,3.1-3.6c3.4,0.2,6.9,0.2,9.6-2.5
		c0.4-1.5,0.8-3,1.2-4.5c0-0.2,0.1-0.3,0.1-0.5l-0.1-0.2l0.1-0.2c0-0.7,0-1.3,0.1-2c0-8.8,0.1-17.6,0-26.4c0-1.9,0.8-2.2,2.4-2.1
		c3.4,0.1,6.8,0.1,10.2,0c1.9-0.1,2.4,0.7,2.4,2.5c0,10.2,0.1,20.5,0.2,30.7c0.7,3.5,3.1,4.9,6.4,4.9c1.7,0,3.3,0.4,5,0.2
		c2.6-0.2,3.4,0.6,3.3,3.3C74.2,286,74,287.1,71.1,287z M111.5,361.7H79.3v-50.5h31.2v9.4H90.8V331h18.6v9.3H90.8v12h20.8V361.7z
		 M160.5,339.5c0,15.6-7.9,23-21.1,23c-12.7,0-20.2-7-20.2-23.2v-28.2h11.5v29.1c0,8.7,3.3,13.1,9.1,13.1c6,0,9.3-4.2,9.3-13.1
		v-29.1h11.4V339.5z M196.9,361.7c-0.8-1.4-2-5.5-3.5-11.8c-1.4-6.3-3.5-8-8.2-8.1h-3.4v19.9h-11.3v-49.8h0c3.7-0.6,9.1-1,15.2-1
		c7.5,0,12.7,1.1,16.3,4c3,2.4,4.6,5.9,4.6,10.6c0,6.4-4.6,10.9-8.9,12.4v0.2c3.5,1.4,5.5,4.8,6.7,9.4c1.6,5.7,3.1,12.3,4.1,14.2
		H196.9z M252.9,283.6c-0.1,2.4-0.6,3.2-3.1,3.2c-12.2-0.1-24.3-0.1-36.5-0.1c-5.3,0-5.7-0.6-4.3-6.2l0,0c2.3-0.9,4.7-0.3,7.1-0.5
		c2.2-0.2,4.3-0.6,6-2.2c1.8-6.2,0.8-12.6,1.2-18.9c0.1-2.1,0.2-4.1,0.2-6.2c-0.3-2.4-0.2-4.9,0-7.3c0-9.7,0-19.5,0-29.2
		c-0.1-5.7-0.1-11.5-0.2-17.2c0-1,0.5-2.3-1.1-2.7c-2.7,7-6.3,13.5-9.9,20.1c-2.1,4.3-4.1,8.5-6.2,12.8c-0.5,1.1-1.2,2.1-1.8,3.1
		c-2.5,5.1-5,10.2-7.5,15.3c-0.5,1-0.7,2.3-1.9,3c-2,5.1-4.3,10-7.3,14.6c-3.1,6.4-6.2,12.8-9.3,19.2c-0.5,1-0.6,2.6-2.1,2.6
		c-1.3,0-1.5-1.5-1.9-2.4c-3.6-7-7.1-14-10.6-20.9c-2.6-4.6-5.4-9.1-7.3-14.1c-2.9-5-5.6-10.1-7.9-15.3c-2.7-4.5-5.1-9.2-7.3-14.1
		c-3.8-6.8-7.5-13.8-10.7-20.9v0c-0.8-1.3-1.7-2.7-2.5-4c-0.3,0-0.5,0.1-0.8,0.1c0,7.8,0,15.5,0,23.3c-0.1,9.6-0.2,19.2-0.3,28.7
		c0,0.4,0,0.7,0,1.1c0.1,1.2,0.2,2.3,0.1,3.5c0.1,6.2,0.2,12.5,0.4,18.7c1.8,9.7,2.2,10,12.3,9.9c0.6,0,1.1,0.1,1.7,0
		c2.7-0.5,3.3,0.8,3.3,3.3c-0.1,2.3-0.2,3.5-3.1,3.5c-12.8-0.2-25.6-0.2-38.4,0c-3.3,0.1-2.8-1.7-2.9-3.7c-0.1-2.1,0.2-3.4,2.8-3.1
		c1.6,0.2,3.3,0,5,0.1c5.3,0.1,9.2-1.8,10.8-7.2c0.5-4.6,0.9-9.3,1.4-13.9c0-3.6-0.1-7.1,0.4-10.7c0-0.5,0.1-1.1,0.3-1.6
		c0-2.8,0.1-5.6,0.2-8.3c0-5.1-0.2-10.3,0.2-15.4c0-0.4,0-0.9,0-1.3c0,0,0.1,0,0.1,0c0-0.2,0-0.5,0.1-0.7c-0.1-0.2-0.1-0.4,0.1-0.7
		c-0.3-2.3-0.2-4.7,0-7c-0.3-7.7-0.3-15.5-0.1-23.2c-0.2-0.6-0.3-1.1,0.1-1.6c0,0,0,0,0,0c0,0,0,0,0,0c-0.7-2.4-0.4-4.8-0.4-7.2
		c0-3.4-1.8-4.8-4.9-5c-1-0.1-2,0-3-0.1c-2.7,0-4.2-2.5-3-5.1c0.4-0.8,1-0.8,1.6-0.8c7.5,0,15,0.1,22.5,0.1c0.2,0,0.3,0.3,0.5,0.4
		c0,0,0,0,0,0c2.1,3,3.5,6.4,4.9,9.9c2.6,5,5.4,10,7.2,15.3c3.6,6.2,6.7,12.6,9.3,19.3c3,5.4,5.8,10.8,8,16.5c2.7,5,5.3,10,7.2,15.3
		c2.3,4.1,4.7,8.1,6,12.6c0,1.1,1.5,1.3,1.3,2.5c1.2,0.6,1.3-0.8,1.9-1.2c0,0,0,0,0,0c1.5-3.9,3.3-7.6,5.4-11.3c2.8-6,5.6-12,8.4-18
		c2.9-6,5.7-12,8.6-18c3.2-6.6,6.4-13.2,9.5-19.8c2.6-5.6,5.2-11.1,7.8-16.7c1.4-5.6,4.4-8,10.6-7.3c5.9,0.7,11.9,0.3,17.9,0.1
		c2.5-0.1,2.8,0.9,2.9,3.1c0,2.4-0.7,3.2-3,2.9c-0.9-0.1-1.8,0-2.6,0c-4.7,0-5.4,0.5-6.9,4.9c0,6.1,0,12.1-0.1,18.2
		c-0.3,20.4-0.2,40.8,0.1,61.2c0,1.3-0.1,2.6-0.1,4c0.3,2.4,0.4,4.9,0.1,7.3c0,0.4,0,0.7,0,1.1c0.3,0.5,0.3,1.1,0.3,1.6
		c0.1,0.9,0.3,1.7,0.4,2.6c2.3,3.8,6.2,2.9,9.6,2.9C251.9,280,253,280.5,252.9,283.6z"/>
</g>
</svg>
