<?xml version="1.0" encoding="utf-8"?>
<!-- Generator: Adobe Illustrator 16.0.2, SVG Export Plug-In . SVG Version: 6.00 Build 0)  -->
<!DOCTYPE svg PUBLIC "-//W3C//DTD SVG 1.1//EN" "http://www.w3.org/Graphics/SVG/1.1/DTD/svg11.dtd">
<svg version="1.1" id="Capa_1" xmlns="http://www.w3.org/2000/svg" xmlns:xlink="http://www.w3.org/1999/xlink" x="0px" y="0px"
	 width="512px" height="512px" viewBox="0 0 512 512" enable-background="new 0 0 512 512" xml:space="preserve">
<g>
	<g>
		<path fill="#D80027" d="M34.914,430.538h81.456v69.827c0,3.397,1.087,6.179,3.274,8.353c2.181,2.188,4.969,3.282,8.366,3.282
			h60.724c3.151,0,5.878-1.094,8.182-3.282c2.303-2.174,3.452-4.956,3.452-8.353v-69.827h183.636c3.39,0,6.179-1.08,8.364-3.268
			c2.188-2.187,3.274-4.97,3.274-8.367v-46.548c0-3.377-1.086-6.178-3.274-8.352c-2.18-2.188-4.975-3.282-8.364-3.282H200.361
			v-42.911h123.636c48.482,0,88.053-14.773,118.728-44.361c30.663-29.557,46.002-67.738,46.002-114.544
			c0-46.775-15.339-84.957-46.002-114.544C412.056,14.803,372.479,0,323.997,0H128.003c-3.397,0-6.18,1.093-8.366,3.268
			c-2.181,2.187-3.274,4.987-3.274,8.366v228.732h-81.45c-3.396,0-6.18,1.149-8.365,3.452c-2.18,2.304-3.274,5.03-3.274,8.181
			v54.176c0,3.397,1.087,6.181,3.274,8.366c2.187,2.188,4.963,3.269,8.365,3.269h81.456v42.911H34.914
			c-3.396,0-6.18,1.094-8.365,3.281c-2.18,2.175-3.274,4.97-3.274,8.354v46.547c0,3.397,1.087,6.181,3.274,8.366
			C28.734,429.458,31.516,430.538,34.914,430.538z M200.361,77.462h116.364c25.694,0,46.418,7.512,62.181,22.542
			c15.755,15.031,23.636,34.674,23.636,58.906c0,24.245-7.881,43.894-23.636,58.907c-15.763,15.043-36.487,22.556-62.181,22.556
			H200.361V77.462z"/>
	</g>
</g>
</svg>
