<?xml version="1.0" encoding="utf-8"?>
<!-- Generator: Adobe Illustrator 16.0.2, SVG Export Plug-In . SVG Version: 6.00 Build 0)  -->
<!DOCTYPE svg PUBLIC "-//W3C//DTD SVG 1.1//EN" "http://www.w3.org/Graphics/SVG/1.1/DTD/svg11.dtd">
<svg version="1.1" id="Слой_1" xmlns="http://www.w3.org/2000/svg" xmlns:xlink="http://www.w3.org/1999/xlink" x="0px" y="0px"
	 width="98.854px" height="118.625px" viewBox="0 0 98.854 118.625" enable-background="new 0 0 98.854 118.625"
	 xml:space="preserve">
<path fill="#D80027" d="M96.877,114.67h-5.93v-7.908H81.06V86.553c0-5.339-2.652-10.297-7.095-13.258L52.992,59.313l20.973-13.982
	c4.442-2.961,7.095-7.919,7.095-13.258v-20.21h9.888V3.955h5.93c1.092,0,1.977-0.884,1.977-1.978C98.854,0.884,97.969,0,96.877,0
	h-5.93h-1.979H9.885H7.909H1.978C0.886,0,0,0.884,0,1.977C0,3.07,0.886,3.955,1.978,3.955h5.931v7.908h9.885v20.21
	c0,5.339,2.653,10.297,7.096,13.258l20.973,13.982L24.89,73.295c-4.442,2.961-7.096,7.919-7.096,13.258v20.209H7.909v7.908H1.978
	c-1.092,0-1.978,0.885-1.978,1.979c0,1.092,0.886,1.977,1.978,1.977h5.931h1.977h79.083h1.979h5.93c1.092,0,1.977-0.885,1.977-1.977
	C98.854,115.555,97.969,114.67,96.877,114.67z M11.863,7.908V3.955h75.128v3.954H81.06H17.794H11.863z M27.082,42.041
	c-3.339-2.228-5.334-5.956-5.334-9.969v-20.21h55.358v20.21c0,4.013-1.995,7.741-5.334,9.969L49.428,56.936L27.082,42.041z
	 M21.748,86.553c0-4.014,1.995-7.74,5.334-9.969L49.428,61.69l22.345,14.895c3.339,2.229,5.334,5.955,5.334,9.969v20.209H21.748
	V86.553z M11.863,110.716h5.931H81.06h5.932v3.954H11.863V110.716z"/>
</svg>
