<?xml version="1.0" encoding="utf-8"?>
<!-- Generator: Adobe Illustrator 16.0.2, SVG Export Plug-In . SVG Version: 6.00 Build 0)  -->
<!DOCTYPE svg PUBLIC "-//W3C//DTD SVG 1.1//EN" "http://www.w3.org/Graphics/SVG/1.1/DTD/svg11.dtd">
<svg version="1.1" id="Layer_1" xmlns="http://www.w3.org/2000/svg" xmlns:xlink="http://www.w3.org/1999/xlink" x="0px" y="0px"
	 width="512px" height="512px" viewBox="0 0 512 512" enable-background="new 0 0 512 512" xml:space="preserve">
<g>
	<g>
		<path fill="#D80027" d="M505.439,225.496L316.343,64.2c-5.52-4.79-13.329-5.831-19.993-2.707
			c-6.664,3.02-10.934,9.684-10.934,16.973v78.721c-48.003,2.5-91.425,13.016-129.223,31.343
			c-36.966,17.91-68.621,43.213-94.028,75.181C16.244,321.398,0,389.289,0,433.544c0,8.539,5.831,16.036,14.057,18.119
			c1.562,0.416,3.124,0.624,4.686,0.624c6.768,0,13.12-3.645,16.452-9.684c38.632-70.391,100.796-107.461,195.554-116.52
			c10.309-0.938,17.91-10.101,16.869-20.41c-0.937-10.309-10.205-17.91-20.409-16.868c-47.483,4.581-87.156,15.307-121.206,33.009
			c-20.201,10.412-38.423,23.429-54.667,38.84c8.539-24.366,21.659-49.981,40.298-73.41
			c48.315-60.708,119.956-91.946,212.838-92.883c10.309-0.104,18.535-8.435,18.535-18.743v-56.229l141.511,120.685L322.902,360.758
			v-56.229c0-10.309-8.435-18.743-18.743-18.743s-18.743,8.435-18.743,18.743v96.943c0,7.289,4.27,13.953,10.934,16.973
			c6.664,3.021,14.474,1.979,19.993-2.811l189.097-161.712c4.166-3.54,6.561-8.747,6.561-14.265
			C512,234.242,509.605,229.036,505.439,225.496z"/>
	</g>
</g>
</svg>
