<?xml version="1.0" encoding="utf-8"?>
<!-- Generator: Adobe Illustrator 16.0.2, SVG Export Plug-In . SVG Version: 6.00 Build 0)  -->
<!DOCTYPE svg PUBLIC "-//W3C//DTD SVG 1.1//EN" "http://www.w3.org/Graphics/SVG/1.1/DTD/svg11.dtd">
<svg version="1.1" id="Capa_1" xmlns="http://www.w3.org/2000/svg" xmlns:xlink="http://www.w3.org/1999/xlink" x="0px" y="0px"
	 width="512px" height="512px" viewBox="0 0 512 512" enable-background="new 0 0 512 512" xml:space="preserve">
<g>
	<path fill="#FFFFFF" d="M256.002,512c-1.658,0-3.317-0.256-4.915-0.769c-53.71-17.205-99.438-50.205-135.914-98.083
		c-28.717-37.694-51.711-84.608-68.34-139.439C18.784,181.225,18.461,98.835,18.461,95.374c0-8.295,6.301-15.236,14.56-16.034
		c1.243-0.121,126.348-12.964,213.516-76.267c5.645-4.101,13.287-4.096,18.932,0.002c87.145,63.301,212.265,76.144,213.518,76.266
		c8.252,0.806,14.553,7.743,14.553,16.032c0,3.462-0.322,85.851-28.371,178.336c-16.63,54.831-39.623,101.746-68.34,139.44
		c-36.475,47.878-82.202,80.878-135.913,98.083C259.317,511.744,257.66,512,256.002,512z M51.14,109.505
		c1.338,27.036,6.543,89.299,26.746,155.588c34.479,113.121,94.395,185.032,178.116,213.827
		c83.916-28.859,143.9-101.015,178.336-214.562c20.065-66.162,25.214-127.952,26.533-154.853
		c-36.089-5.266-129.569-23.086-204.871-73.75C180.691,86.416,87.229,104.239,51.14,109.505z"/>
	<path fill="#FFFFFF" d="M247.39,334.441c-3.821,0-7.539-1.359-10.469-3.865l-58.251-49.816c-6.76-5.781-7.554-15.947-1.773-22.71
		c5.78-6.762,15.949-7.558,22.711-1.773l45.302,38.741l89.791-117.778c5.394-7.075,15.499-8.44,22.575-3.044
		c7.077,5.393,8.438,15.5,3.045,22.575L260.2,328.099c-2.685,3.522-6.701,5.784-11.106,6.253
		C248.525,334.411,247.957,334.441,247.39,334.441z"/>
</g>
</svg>
