<?xml version="1.0" encoding="utf-8"?>
<!-- Generator: Adobe Illustrator 16.0.2, SVG Export Plug-In . SVG Version: 6.00 Build 0)  -->
<!DOCTYPE svg PUBLIC "-//W3C//DTD SVG 1.1//EN" "http://www.w3.org/Graphics/SVG/1.1/DTD/svg11.dtd">
<svg version="1.1" id="Capa_1" xmlns="http://www.w3.org/2000/svg" xmlns:xlink="http://www.w3.org/1999/xlink" x="0px" y="0px"
	 width="512px" height="512px" viewBox="0 0 512 512" enable-background="new 0 0 512 512" xml:space="preserve">
<g>
	<path fill="#D80027" d="M496.997,95.059c-20.009-20.006-52.559-20.004-72.565,0l-62.789,62.79H16.063
		C7.192,157.849,0,165.04,0,173.911v241.973c0,8.87,7.192,16.063,16.063,16.063H392.38c8.871,0,16.063-7.192,16.063-16.063V256.176
		l88.555-88.554C517.002,147.615,517.002,115.063,496.997,95.059z M460.714,101.447c7.985,0,15.492,3.109,21.138,8.756
		c11.125,11.125,11.622,28.905,1.509,40.637l-42.146-42.146C446.637,104.008,453.478,101.447,460.714,101.447z M362.984,264.939
		l-35.868-35.868l-3.203-3.203l102.094-102.095l42.275,42.275L366.188,268.143L362.984,264.939z M316.911,249.155l5.422,5.421
		l-19.329,19.33c-4.182,4.182-4.182,10.961,0,15.145c2.091,2.09,4.831,3.137,7.571,3.137s5.48-1.047,7.572-3.137l19.329-19.33
		l5.422,5.422l-11.264,28.959l-62.289,18.605l18.605-62.289L316.911,249.155z M376.317,399.82H32.125V189.973h297.394
		l-28.322,28.322c-3.909,3.909-4.161,10.085-0.765,14.291l-25.121,9.769c-3.08,1.197-5.434,3.75-6.38,6.916l-25.005,83.715
		l-10.69,10.69l-12.604-12.605c-4.182-4.18-10.962-4.18-15.144,0c-4.182,4.182-4.182,10.963,0,15.146l12.604,12.604l-12.604,12.604
		c-4.182,4.182-4.183,10.962,0,15.145c2.091,2.091,4.832,3.137,7.572,3.137s5.482-1.046,7.572-3.137l12.604-12.604l12.604,12.604
		c2.091,2.091,4.832,3.137,7.572,3.137s5.482-1.046,7.572-3.137c4.182-4.181,4.182-10.962,0-15.145l-12.604-12.604l10.69-10.688
		l83.716-25.006c3.165-0.947,5.717-3.301,6.915-6.379l9.771-25.121c1.955,1.579,4.336,2.371,6.718,2.371
		c2.741,0,5.48-1.047,7.572-3.137l2.558-2.559v111.52H376.317z"/>
	<path fill="#D80027" d="M70.594,245.884h168.029c5.914,0,10.708-4.795,10.708-10.708s-4.794-10.708-10.708-10.708H70.594
		c-5.914,0-10.708,4.795-10.708,10.708S64.68,245.884,70.594,245.884z"/>
	<path fill="#D80027" d="M227.139,279.561c0-5.912-4.794-10.708-10.708-10.708H70.594c-5.914,0-10.708,4.796-10.708,10.708
		c0,5.914,4.794,10.709,10.708,10.709H216.43C222.344,290.27,227.139,285.475,227.139,279.561z"/>
</g>
</svg>
