<?xml version="1.0" encoding="utf-8"?>
<!-- Generator: Adobe Illustrator 16.0.2, SVG Export Plug-In . SVG Version: 6.00 Build 0)  -->
<!DOCTYPE svg PUBLIC "-//W3C//DTD SVG 1.1//EN" "http://www.w3.org/Graphics/SVG/1.1/DTD/svg11.dtd">
<svg version="1.1" id="Слой_1" xmlns="http://www.w3.org/2000/svg" xmlns:xlink="http://www.w3.org/1999/xlink" x="0px" y="0px"
	 width="100.156px" height="77.04px" viewBox="0 0 100.156 77.04" enable-background="new 0 0 100.156 77.04" xml:space="preserve">
<path fill="#9E0000" d="M1.156,42.372C0.385,41.601,0,40.446,0,39.675s0.385-1.926,1.156-2.696l5.393-5.393
	c1.541-1.541,3.852-1.541,5.393,0l0.385,0.385l21.186,22.727c0.77,0.771,1.926,0.771,2.696,0l51.62-53.543h0.386l0,0
	c1.54-1.54,3.852-1.54,5.393,0L99,6.548c1.541,1.54,1.541,3.852,0,5.393l0,0L37.364,75.884c-0.77,0.771-1.541,1.155-2.696,1.155
	c-1.155,0-1.926-0.385-2.696-1.155L1.926,43.527L1.156,42.372L1.156,42.372z"/>
</svg>
