<?xml version="1.0" encoding="utf-8"?>
<!-- Generator: Adobe Illustrator 16.0.2, SVG Export Plug-In . SVG Version: 6.00 Build 0)  -->
<!DOCTYPE svg PUBLIC "-//W3C//DTD SVG 1.1//EN" "http://www.w3.org/Graphics/SVG/1.1/DTD/svg11.dtd">
<svg version="1.1" id="Capa_1" xmlns="http://www.w3.org/2000/svg" xmlns:xlink="http://www.w3.org/1999/xlink" x="0px" y="0px"
	 width="257.68px" height="354.01px" viewBox="124.159 78.994 257.68 354.01" enable-background="new 124.159 78.994 257.68 354.01"
	 xml:space="preserve">
<g>
	<path fill="#DD1919" stroke="#DD1919" stroke-width="17.0079" stroke-miterlimit="10" d="M356.489,276.4H254.1
		c10.304-7.935,20.979-15.237,30.173-22.282c2.278-1.742,4.498-3.533,6.688-5.338h65.526c9.307,0,16.848-7.542,16.848-16.847
		c0-9.305-7.54-16.847-16.848-16.847h-34.38c4.687-7.178,8.687-14.877,11.629-23.374c7.576-21.907,3.798-47.133-8.874-66.304
		c-31.96-48.354-97.62-44.78-143.343-20.759c-19.239,10.108-2.209,39.191,17.007,29.096c22.695-11.922,47.892-17.305,72.712-9.145
		c16.978,5.582,31.08,20.995,32.551,39.114c1.66,20.539-10.779,37.764-25.129,51.381H149.511c-9.305,0-16.848,7.542-16.848,16.847
		c0,9.306,7.542,16.847,16.848,16.847h85.861c-7.84,5.791-15.542,11.753-22.753,18.371c-3.157,2.904-6.118,6.002-8.903,9.25h-54.205
		c-9.305,0-16.848,7.54-16.848,16.848c0,9.303,7.542,16.848,16.848,16.848h34.551c-10.948,30.408-7.5,64.931,17.138,90.346
		c34.079,35.161,92.538,26.539,132.104,7.263c19.534-9.519,2.443-38.567-17.008-29.098c-30.629,14.93-86.768,22.935-101.31-18.068
		c-6.99-19.714-3.321-36.17,5.718-50.438h135.781c9.307,0,16.848-7.545,16.848-16.848C373.335,283.956,365.795,276.4,356.489,276.4z
		"/>
</g>
</svg>
