<?xml version="1.0" encoding="utf-8"?>
<!-- Generator: Adobe Illustrator 16.0.2, SVG Export Plug-In . SVG Version: 6.00 Build 0)  -->
<!DOCTYPE svg PUBLIC "-//W3C//DTD SVG 1.1//EN" "http://www.w3.org/Graphics/SVG/1.1/DTD/svg11.dtd">
<svg version="1.1" id="Capa_1" xmlns="http://www.w3.org/2000/svg" xmlns:xlink="http://www.w3.org/1999/xlink" x="0px" y="0px"
	 width="512px" height="512px" viewBox="0 0 512 512" enable-background="new 0 0 512 512" xml:space="preserve">
<g>
	<path fill="#D80027" d="M483.832,28.164C465.063,9.389,442.447,0,416.005,0H96.003C69.561,0,46.946,9.389,28.167,28.164
		C9.393,46.942,0.003,69.556,0.003,96v319.999c0,26.441,9.389,49.058,28.164,67.836c18.778,18.778,41.394,28.167,67.835,28.167
		h319.999c26.441,0,49.057-9.389,67.827-28.167c18.778-18.778,28.167-41.394,28.167-67.836V96
		C511.995,69.556,502.606,46.939,483.832,28.164z M426.669,277.332c0,5.777-2.114,10.783-6.329,14.999
		c-4.228,4.22-9.229,6.337-15.007,6.337H298.675V405.33c0,5.777-2.121,10.779-6.342,15c-4.214,4.226-9.22,6.336-14.999,6.336
		h-42.665c-5.777,0-10.777-2.11-14.999-6.336c-4.223-4.22-6.335-9.222-6.335-15V298.668H106.668c-5.777,0-10.775-2.117-14.999-6.337
		c-4.221-4.215-6.333-9.222-6.333-14.999v-42.669c0-5.777,2.112-10.778,6.333-15c4.223-4.223,9.221-6.335,14.999-6.335h106.668
		V106.665c0-5.778,2.112-10.78,6.335-14.999c4.222-4.224,9.221-6.337,14.999-6.337h42.666c5.777,0,10.783,2.113,14.998,6.337
		c4.22,4.219,6.343,9.221,6.343,14.999V213.33h106.657c5.777,0,10.778,2.112,15.008,6.335c4.218,4.22,6.329,9.221,6.329,14.999
		v42.668H426.669z"/>
</g>
</svg>
