<?xml version="1.0" encoding="utf-8"?>
<!-- Generator: Adobe Illustrator 16.0.2, SVG Export Plug-In . SVG Version: 6.00 Build 0)  -->
<!DOCTYPE svg PUBLIC "-//W3C//DTD SVG 1.1//EN" "http://www.w3.org/Graphics/SVG/1.1/DTD/svg11.dtd">
<svg version="1.1" id="Слой_1" xmlns="http://www.w3.org/2000/svg" xmlns:xlink="http://www.w3.org/1999/xlink" x="0px" y="0px"
	 width="80.953px" height="80.954px" viewBox="0 0 80.953 80.954" enable-background="new 0 0 80.953 80.954" xml:space="preserve">
<g id="iconLogOut">
	<path fill="#FFFFFF" d="M48.8,49.477H36.724V32.289H48.8c0.268,0,0.485-0.219,0.485-0.486v-1.785c0-0.268-0.218-0.484-0.485-0.484
		H34.453c-0.268,0-0.484,0.217-0.484,0.484v21.731c0,0.268,0.217,0.484,0.484,0.484H48.8c0.268,0,0.484-0.217,0.484-0.484v-1.785
		C49.284,49.694,49.067,49.477,48.8,49.477z"/>
	<path fill="#FFFFFF" d="M57.331,40.54l-6.527-6.527c-0.183-0.183-0.504-0.182-0.687,0l-1.548,1.55
		c-0.189,0.188-0.189,0.496,0,0.686l2.948,2.948H38.754c-0.268,0-0.484,0.217-0.484,0.486v2.402c0,0.268,0.217,0.484,0.484,0.484
		h12.765l-2.949,2.949c-0.188,0.189-0.188,0.496,0,0.686l1.549,1.549c0.091,0.092,0.215,0.143,0.343,0.143
		c0.129,0,0.252-0.051,0.343-0.143l6.528-6.525c0.091-0.092,0.142-0.215,0.142-0.344C57.473,40.754,57.422,40.631,57.331,40.54z"/>
</g>
<g id="iconLogOut_1_">
	<path fill="#FFFFFF" d="M48.8,49.477H36.724V32.289H48.8c0.268,0,0.485-0.219,0.485-0.486v-1.785c0-0.268-0.218-0.484-0.485-0.484
		H34.453c-0.268,0-0.484,0.217-0.484,0.484v21.731c0,0.268,0.217,0.484,0.484,0.484H48.8c0.268,0,0.484-0.217,0.484-0.484v-1.785
		C49.284,49.694,49.067,49.477,48.8,49.477z"/>
	<path fill="#FFFFFF" d="M57.331,40.54l-6.527-6.527c-0.183-0.183-0.504-0.182-0.687,0l-1.548,1.55
		c-0.189,0.188-0.189,0.496,0,0.686l2.948,2.948H38.754c-0.268,0-0.484,0.217-0.484,0.486v2.402c0,0.268,0.217,0.484,0.484,0.484
		h12.765l-2.949,2.949c-0.188,0.189-0.188,0.496,0,0.686l1.549,1.549c0.091,0.092,0.215,0.143,0.343,0.143
		c0.129,0,0.252-0.051,0.343-0.143l6.528-6.525c0.091-0.092,0.142-0.215,0.142-0.344C57.473,40.754,57.422,40.631,57.331,40.54z"/>
</g>
</svg>
