<?xml version="1.0" encoding="utf-8"?>
<!-- Generator: Adobe Illustrator 16.0.2, SVG Export Plug-In . SVG Version: 6.00 Build 0)  -->
<!DOCTYPE svg PUBLIC "-//W3C//DTD SVG 1.1//EN" "http://www.w3.org/Graphics/SVG/1.1/DTD/svg11.dtd">
<svg version="1.1" id="Capa_1" xmlns="http://www.w3.org/2000/svg" xmlns:xlink="http://www.w3.org/1999/xlink" x="0px" y="0px"
	 width="512px" height="512px" viewBox="0 0 512 512" enable-background="new 0 0 512 512" xml:space="preserve">
<g>
	<path fill="#D80027" d="M327.206,232.58c-20.091-11.103-41.452-19.563-62.601-28.34c-12.267-5.076-24.004-10.997-34.367-19.246
		c-20.409-16.285-16.496-42.721,7.402-53.189c6.768-2.961,13.853-3.913,21.043-4.335c27.705-1.48,54.036,3.595,79.098,15.65
		c12.478,6.028,16.602,4.125,20.831-8.882c4.441-13.747,8.143-27.705,12.267-41.558c2.75-9.306-0.634-15.439-9.411-19.352
		c-16.073-7.085-32.569-12.161-49.911-14.91c-22.63-3.49-22.63-3.596-22.735-26.331c-0.106-32.041-0.106-32.041-32.253-32.041
		c-4.652,0-9.305-0.105-13.958,0c-15.016,0.423-17.553,3.067-17.977,18.188c-0.211,6.768,0,13.535-0.105,20.409
		c-0.106,20.091-0.211,19.774-19.457,26.753c-46.528,16.919-75.291,48.643-78.357,99.4c-2.75,44.942,20.726,75.291,57.631,97.391
		c22.735,13.642,47.902,21.678,72.012,32.358c9.411,4.124,18.399,8.883,26.225,15.438c23.158,19.141,18.929,50.97-8.565,63.024
		c-14.698,6.45-30.243,8.036-46.21,6.027c-24.638-3.066-48.22-9.517-70.426-21.043c-13.007-6.768-16.813-4.97-21.255,9.095
		c-3.807,12.16-7.191,24.426-10.575,36.693c-4.547,16.496-2.855,20.408,12.901,28.128c20.092,9.729,41.558,14.698,63.447,18.188
		c17.13,2.75,17.659,3.49,17.871,21.255c0.106,8.037,0.106,16.179,0.211,24.216c0.106,10.151,4.97,16.073,15.439,16.284
		c11.843,0.212,23.793,0.212,35.637-0.105c9.729-0.211,14.697-5.499,14.697-15.333c0-10.997,0.529-22.101,0.106-33.098
		c-0.528-11.209,4.335-16.92,15.121-19.88c24.851-6.769,45.999-20.092,62.284-39.973
		C408.524,348.477,391.288,268.004,327.206,232.58z"/>
</g>
</svg>
