<?xml version="1.0" encoding="utf-8"?>
<!-- Generator: Adobe Illustrator 16.0.0, SVG Export Plug-In . SVG Version: 6.00 Build 0)  -->
<!DOCTYPE svg PUBLIC "-//W3C//DTD SVG 1.1//EN" "http://www.w3.org/Graphics/SVG/1.1/DTD/svg11.dtd">
<svg version="1.1" id="Слой_1" xmlns="http://www.w3.org/2000/svg" xmlns:xlink="http://www.w3.org/1999/xlink" x="0px" y="0px"
	 width="24.666px" height="24.667px" viewBox="0 0 24.666 24.667" enable-background="new 0 0 24.666 24.667" xml:space="preserve">
<g>
	<path fill="#767676" d="M12.333,0C5.533,0,0,5.532,0,12.333c0,6.8,5.533,12.333,12.333,12.333c6.8,0,12.333-5.533,12.333-12.333
		C24.666,5.532,19.133,0,12.333,0z M12.333,22.422c-5.564,0-10.091-4.525-10.091-10.089c0-5.564,4.526-10.09,10.091-10.09
		s10.091,4.525,10.091,10.09C22.424,17.897,17.897,22.422,12.333,22.422z"/>
	<path fill="#767676" d="M12.333,5.232c-0.824,0-1.495,0.671-1.495,1.495s0.67,1.494,1.495,1.494s1.495-0.67,1.495-1.494
		S13.157,5.232,12.333,5.232z"/>
	<path fill="#767676" d="M12.333,10.465c-0.619,0-1.122,0.502-1.122,1.12v6.728c0,0.619,0.502,1.121,1.122,1.121
		s1.122-0.502,1.122-1.121v-6.728C13.455,10.967,12.952,10.465,12.333,10.465z"/>
</g>
</svg>
